<mxfile host="app.diagrams.net" modified="2022-06-11T03:43:32.606Z" agent="5.0 (Windows NT 10.0; Win64; x64) AppleWebKit/537.36 (KHTML, like Gecko) Chrome/102.0.5005.63 Safari/537.36" etag="H96GtV90AmMeyS-HmCSd" version="19.0.3" type="github">
  <diagram id="jPUyhOrV5SqNjyBGk9Kf" name="Page-1">
    <mxGraphModel dx="2524" dy="917" grid="1" gridSize="10" guides="1" tooltips="1" connect="1" arrows="1" fold="1" page="1" pageScale="1" pageWidth="827" pageHeight="1169" math="0" shadow="0">
      <root>
        <mxCell id="0" />
        <mxCell id="1" parent="0" />
        <mxCell id="138eJ2g4a-UKCfjiezDu-1" value="AnimationPose" style="swimlane;fontStyle=1;align=center;verticalAlign=top;childLayout=stackLayout;horizontal=1;startSize=26;horizontalStack=0;resizeParent=1;resizeParentMax=0;resizeLast=0;collapsible=1;marginBottom=0;" parent="1" vertex="1">
          <mxGeometry x="-37.5" y="110" width="160" height="86" as="geometry" />
        </mxCell>
        <mxCell id="138eJ2g4a-UKCfjiezDu-2" value="+ field: type" style="text;strokeColor=none;fillColor=none;align=left;verticalAlign=top;spacingLeft=4;spacingRight=4;overflow=hidden;rotatable=0;points=[[0,0.5],[1,0.5]];portConstraint=eastwest;" parent="138eJ2g4a-UKCfjiezDu-1" vertex="1">
          <mxGeometry y="26" width="160" height="26" as="geometry" />
        </mxCell>
        <mxCell id="138eJ2g4a-UKCfjiezDu-3" value="" style="line;strokeWidth=1;fillColor=none;align=left;verticalAlign=middle;spacingTop=-1;spacingLeft=3;spacingRight=3;rotatable=0;labelPosition=right;points=[];portConstraint=eastwest;" parent="138eJ2g4a-UKCfjiezDu-1" vertex="1">
          <mxGeometry y="52" width="160" height="8" as="geometry" />
        </mxCell>
        <mxCell id="138eJ2g4a-UKCfjiezDu-4" value="blend" style="text;strokeColor=none;fillColor=none;align=left;verticalAlign=top;spacingLeft=4;spacingRight=4;overflow=hidden;rotatable=0;points=[[0,0.5],[1,0.5]];portConstraint=eastwest;" parent="138eJ2g4a-UKCfjiezDu-1" vertex="1">
          <mxGeometry y="60" width="160" height="26" as="geometry" />
        </mxCell>
        <mxCell id="138eJ2g4a-UKCfjiezDu-20" style="edgeStyle=orthogonalEdgeStyle;rounded=0;orthogonalLoop=1;jettySize=auto;html=1;entryX=0;entryY=0.75;entryDx=0;entryDy=0;fontSize=16;" parent="1" source="138eJ2g4a-UKCfjiezDu-5" target="138eJ2g4a-UKCfjiezDu-19" edge="1">
          <mxGeometry relative="1" as="geometry" />
        </mxCell>
        <mxCell id="138eJ2g4a-UKCfjiezDu-5" value="AnimationComponent" style="swimlane;fontStyle=1;childLayout=stackLayout;horizontal=1;startSize=26;fillColor=none;horizontalStack=0;resizeParent=1;resizeParentMax=0;resizeLast=0;collapsible=1;marginBottom=0;" parent="1" vertex="1">
          <mxGeometry x="-170" y="290" width="282.5" height="140" as="geometry" />
        </mxCell>
        <mxCell id="138eJ2g4a-UKCfjiezDu-6" value="AnimationComponentRes m_animation_res;&#xa;Skeleton m_skeleton;&#xa;AnimationResult m_animation_result;&#xa;AnimationFSM m_animation_fsm;&#xa;json11::Json::object m_signal;&#xa;float m_ratio {0};" style="text;strokeColor=none;fillColor=none;align=left;verticalAlign=top;spacingLeft=4;spacingRight=4;overflow=hidden;rotatable=0;points=[[0,0.5],[1,0.5]];portConstraint=eastwest;fontSize=13;" parent="138eJ2g4a-UKCfjiezDu-5" vertex="1">
          <mxGeometry y="26" width="282.5" height="114" as="geometry" />
        </mxCell>
        <mxCell id="138eJ2g4a-UKCfjiezDu-12" style="edgeStyle=orthogonalEdgeStyle;rounded=0;orthogonalLoop=1;jettySize=auto;html=1;entryX=0.5;entryY=0;entryDx=0;entryDy=0;" parent="1" source="138eJ2g4a-UKCfjiezDu-10" target="138eJ2g4a-UKCfjiezDu-11" edge="1">
          <mxGeometry relative="1" as="geometry">
            <Array as="points">
              <mxPoint x="334" y="600" />
              <mxPoint x="50" y="600" />
            </Array>
          </mxGeometry>
        </mxCell>
        <mxCell id="138eJ2g4a-UKCfjiezDu-15" style="edgeStyle=orthogonalEdgeStyle;rounded=0;orthogonalLoop=1;jettySize=auto;html=1;entryX=0.454;entryY=-0.011;entryDx=0;entryDy=0;entryPerimeter=0;" parent="1" source="138eJ2g4a-UKCfjiezDu-10" target="138eJ2g4a-UKCfjiezDu-13" edge="1">
          <mxGeometry relative="1" as="geometry" />
        </mxCell>
        <mxCell id="138eJ2g4a-UKCfjiezDu-10" value="&lt;p style=&quot;margin: 0px ; margin-top: 4px ; text-align: center&quot;&gt;&lt;b&gt;ClipBase&lt;/b&gt;&lt;br&gt;&lt;/p&gt;&lt;hr size=&quot;1&quot;&gt;&lt;p style=&quot;margin: 0px ; margin-left: 4px&quot;&gt;+Name&lt;/p&gt;&lt;hr size=&quot;1&quot;&gt;&lt;p style=&quot;margin: 0px ; margin-left: 4px&quot;&gt;+getLength()&lt;br&gt;&lt;/p&gt;" style="verticalAlign=top;align=left;overflow=fill;fontSize=12;fontFamily=Helvetica;html=1;" parent="1" vertex="1">
          <mxGeometry x="254" y="480" width="160" height="90" as="geometry" />
        </mxCell>
        <mxCell id="138eJ2g4a-UKCfjiezDu-11" value="&lt;p style=&quot;margin: 0px ; margin-top: 4px ; text-align: center&quot;&gt;&lt;b&gt;BasicClip&lt;/b&gt;&lt;br&gt;&lt;/p&gt;&lt;hr size=&quot;1&quot;&gt;&lt;p style=&quot;margin: 0px ; margin-left: 4px&quot;&gt;std::string m_clip_file_path;&lt;/p&gt;&lt;p style=&quot;margin: 0px ; margin-left: 4px&quot;&gt;float m_clip_file_length;&lt;/p&gt;&lt;p style=&quot;margin: 0px ; margin-left: 4px&quot;&gt;std::string m_anim_skel_map_path;&lt;/p&gt;&lt;hr size=&quot;1&quot;&gt;&lt;p style=&quot;margin: 0px ; margin-left: 4px&quot;&gt;&lt;br&gt;&lt;/p&gt;" style="verticalAlign=top;align=left;overflow=fill;fontSize=12;fontFamily=Helvetica;html=1;" parent="1" vertex="1">
          <mxGeometry x="-50" y="650" width="200" height="120" as="geometry" />
        </mxCell>
        <mxCell id="138eJ2g4a-UKCfjiezDu-17" style="edgeStyle=orthogonalEdgeStyle;rounded=0;orthogonalLoop=1;jettySize=auto;html=1;entryX=0.5;entryY=0;entryDx=0;entryDy=0;" parent="1" source="138eJ2g4a-UKCfjiezDu-13" target="138eJ2g4a-UKCfjiezDu-14" edge="1">
          <mxGeometry relative="1" as="geometry" />
        </mxCell>
        <mxCell id="138eJ2g4a-UKCfjiezDu-13" value="&lt;p style=&quot;margin: 0px ; margin-top: 4px ; text-align: center&quot;&gt;&lt;b&gt;BlendState&lt;/b&gt;&lt;br&gt;&lt;/p&gt;&lt;hr size=&quot;1&quot;&gt;&lt;p style=&quot;margin: 0px ; margin-left: 4px&quot;&gt;+&amp;nbsp;&lt;span&gt;int m_clip_count;&lt;/span&gt;&lt;/p&gt;&lt;p style=&quot;margin: 0px ; margin-left: 4px&quot;&gt;std::vector&amp;lt;std::string&amp;gt; m_blend_clip_file_path;&lt;/p&gt;&lt;p style=&quot;margin: 0px ; margin-left: 4px&quot;&gt;std::vector&amp;lt;float&amp;gt; m_blend_clip_file_length;&lt;/p&gt;&lt;p style=&quot;margin: 0px ; margin-left: 4px&quot;&gt;std::vector&amp;lt;std::string&amp;gt; m_blend_anim_skel_map_path;&lt;/p&gt;&lt;p style=&quot;margin: 0px ; margin-left: 4px&quot;&gt;std::vector&amp;lt;float&amp;gt; m_blend_weight;&lt;/p&gt;&lt;p style=&quot;margin: 0px ; margin-left: 4px&quot;&gt;std::vector&amp;lt;std::string&amp;gt; m_blend_mask_file_path;&lt;/p&gt;&lt;p style=&quot;margin: 0px ; margin-left: 4px&quot;&gt;std::vector&amp;lt;float&amp;gt; m_blend_ratio;&lt;/p&gt;" style="verticalAlign=top;align=left;overflow=fill;fontSize=12;fontFamily=Helvetica;html=1;" parent="1" vertex="1">
          <mxGeometry x="210" y="650" width="270" height="180" as="geometry" />
        </mxCell>
        <mxCell id="138eJ2g4a-UKCfjiezDu-14" value="&lt;p style=&quot;margin: 0px ; margin-top: 4px ; text-align: center&quot;&gt;&lt;b&gt;BlendSpace1D&lt;/b&gt;&lt;br&gt;&lt;/p&gt;&lt;hr size=&quot;1&quot;&gt;&lt;p style=&quot;margin: 0px ; margin-left: 4px&quot;&gt;+&amp;nbsp;&lt;span&gt;std::string m_key;&lt;/span&gt;&lt;/p&gt;&lt;p style=&quot;margin: 0px ; margin-left: 4px&quot;&gt;std::vector&amp;lt;double&amp;gt; m_values;&lt;/p&gt;&lt;hr size=&quot;1&quot;&gt;&lt;p style=&quot;margin: 0px ; margin-left: 4px&quot;&gt;+ method(): Type&lt;/p&gt;" style="verticalAlign=top;align=left;overflow=fill;fontSize=12;fontFamily=Helvetica;html=1;" parent="1" vertex="1">
          <mxGeometry x="580" y="695" width="160" height="90" as="geometry" />
        </mxCell>
        <mxCell id="138eJ2g4a-UKCfjiezDu-18" value="&lt;font style=&quot;font-size: 16px&quot;&gt;BlendSpace1D是一维的混合空间，继承于BlendState，它指定了一系列普通动画clip，并通过一个命名float变量在运行时计算clip的混合权重&lt;/font&gt;" style="text;whiteSpace=wrap;html=1;" parent="1" vertex="1">
          <mxGeometry x="550" y="810" width="240" height="120" as="geometry" />
        </mxCell>
        <mxCell id="138eJ2g4a-UKCfjiezDu-19" value="&lt;p style=&quot;margin: 0px ; margin-top: 4px ; text-align: center&quot;&gt;&lt;b&gt;AnimationFSM&lt;/b&gt;&lt;br&gt;&lt;/p&gt;&lt;hr size=&quot;1&quot;&gt;&lt;p style=&quot;margin: 0px ; margin-left: 4px&quot;&gt;States m_state {States::_idle};&lt;/p&gt;&lt;hr size=&quot;1&quot;&gt;&lt;p style=&quot;margin: 0px ; margin-left: 4px&quot;&gt;bool update();&lt;/p&gt;&lt;p style=&quot;margin: 0px ; margin-left: 4px&quot;&gt;std::string getCurrentClipBaseName();&lt;/p&gt;" style="verticalAlign=top;align=left;overflow=fill;fontSize=12;fontFamily=Helvetica;html=1;" parent="1" vertex="1">
          <mxGeometry x="414" y="280" width="225" height="90" as="geometry" />
        </mxCell>
        <mxCell id="138eJ2g4a-UKCfjiezDu-25" value="&lt;span style=&quot;font-size: 16px ; text-align: center&quot;&gt;AnimationComponent将会调用状态机的update函数，将接收集到的信号传递给状态机&lt;/span&gt;" style="text;whiteSpace=wrap;html=1;" parent="1" vertex="1">
          <mxGeometry x="160" y="270" width="200" height="80" as="geometry" />
        </mxCell>
        <mxCell id="138eJ2g4a-UKCfjiezDu-29" value="&lt;div style=&quot;text-align: left ; font-size: 15px&quot;&gt;&lt;font style=&quot;font-size: 15px&quot;&gt;AnimationComponent将会调用getClipBaseName获得需要播放的ClipBase的名字(它可能是&lt;/font&gt;&lt;span&gt;BasicClip、BlendState、BlendSpace1D)并将计算该ClipBase的结果应用到物体的骨骼&lt;/span&gt;&lt;/div&gt;" style="text;html=1;strokeColor=none;fillColor=none;align=center;verticalAlign=middle;whiteSpace=wrap;rounded=0;glass=0;fontSize=16;" parent="1" vertex="1">
          <mxGeometry x="140" y="350" width="292.5" height="110" as="geometry" />
        </mxCell>
        <mxCell id="K_LMG_pKWYeQ4_rN-_Q0-1" value="" style="shape=image;verticalLabelPosition=bottom;labelBackgroundColor=default;verticalAlign=top;aspect=fixed;imageAspect=0;image=data:image/png,iVBORw0KGgoAAAANSUhEUgAABg0AAAHnCAYAAACL9h1vAAAgAElEQVR4nOzdeViVdf7/8ReLgCBIIuZxQQlXxA2E3BqkMqi40vFrq1Z4TcuvmbGmpqbvVWm51NgyNY7NNKPNaOvUZE6WGpaCZgqoR1FxXwAVjwooLsBh//2h5/6CogKew2F5Pq7Lq7zPfT6f9znKQe7X/Xl/XCRVCQAAAAAAAAAAtHquzi4AAAAAAAAAAAA0DYQGAAAAAAAAAABAEqEBAAAAAAAAAAC4iNAAAAAAAAAAAABIIjQAAAAAAAAAAAAXERoAAAAAAAAAAABJhAYAAAAAAAAAAOAiQgMAAAAAAAAAACCJ0AAAAAAAAAAAAFxEaAAAAAAAAAAAACQRGgAAAAAAAAAAgIsIDQAAAAAAAAAAgCRCAwAAAAAAAAAAcBGhAQAAAAAAAAAAkERoAAAAAAAAAAAALiI0AAAAAAAAAAAAkggNAAAAAAAAAADARYQGAAAAAAAAAABAEqEBAAAAAAAAAAC4iNAAAAAAAAAAAABIIjQAAAAAAAAAAAAXERoAAAAAAAAAAABJhAYAAAAAAAAAAOAid0dPEB4e7ugpAAAAAAAAAABoFbZs2eLQ8VlpAAAAAAAAAAAAJDXCSgObr7/+urGmAgAAAAAAAACgRfmf//mfRpmn0UIDFxeXxpoKAAAAAAAAAAA0AO2JAAAAAAAAAACAJEIDAAAAAAAAAABwEaEBAAAAAAAAAACQRGgAAAAAAAAAAAAuIjQAAAAAAAAAAACSCA0AAAAAAAAAAMBFhAYAAAAAAAAAAEASoQEAAAAAAAAAALiI0AAAAAAAAAAAAEgiNAAAAAAAAAAAABcRGgAAAAAAAAAAAEmEBgAAAAAAAAAA4CJCAwAAAAAAAAAAIInQAAAAAAAAAAAAXERoAAAAAAAAAAAAJBEaAAAAAAAAAACAiwgNAAAAAAAAAACAJEIDAAAAAAAAAABwEaEBAAAAAAAAAACQRGgAAAAAAAAAAAAuIjQAAAAAAAAAAACSCA0AAAAAAAAAAMBFhAYAAAAAAAAAAEASoQEAAAAAAAAAALiI0AAAAAAAAAAAAEgiNAAAAAAAAAAAABcRGgAAAAAAAAAAAEmEBgAAAAAAAAAA4CJCAwAAAAAAAAAAIInQAAAAAAAAAAAAXERoAAAAAAAAAAAAJBEaAAAAAAAAAACAiwgNAAAAAAAAAACAJEIDAAAAAAAAAABwEaEBAAAAAAAAAACQRGgAAAAAAAAAAAAuIjQAAAAAAAAAAACSCA0AAAAAAAAAAMBF7s4uAAAA1F1eXp4OHz6s/Px8lZSUyM3NTb6+vjKZTAoJCXF2eQAAAAAAoJkjNAAAoIk7ffq0fvjhB23YsEFHjhy54nleXl4aNmyYYmJiNHTo0EasEAAAAAAAtBSEBgAANGGLFy/WF198ocrKymuea7Va9fPPP+vnn39WeHi4HnnkEQUFBTVClQAAAAAAoKUgNAAAoAkqLCzUu+++q61btzbo+Vu2bFF6erqeeeYZ3XLLLXauDgAAAAAAtFSEBgAANDGlpaWaPXu29u7de13jVFZW6r333lNVVZV+8Ytf2Kk6AAAAAADQkrk6uwAAAFDTX//61+sODKqbO3eusrKy7DYeAAAAAABouQgNAABoQlJSUrRu3Tq7jllVVaXPPvvMrmMCAAAAAICWidAAAIAmZMWKFQ4Z12w223X1AgAAAAAAaJkIDQAAaCKOHz+unTt3Omz81NRUh40NAAAAAABaBkIDAACaCEevBNi1a5dDxwcAAAAAAM0foQEAAE3EsWPHmvX4AAAAAACg+SM0AACgiTh//rxDxy8sLFRlZaVD5wAAAAAAAM0boQEAAAAAAAAAAJBEaAAAQJPRrl07h47v7e0tV1e+9QMAAAAAgCvjygEAAE2EyWRy6Phdu3Z16PgAAAAAAKD5IzQAAKCJ6Nevn0PH79+/v0PHBwAAAAAAzR+hAQAATUTnzp0VGhrqsPGHDx/usLEBAAAAAEDLQGgAAEATctdddzlk3PDwcIevZAAAAAAAAM0foQEAAE3IyJEjNXr0aLuPO2nSJLuPCQAAAAAAWh5CAwAAmpjf/OY36tOnj93Ge+aZZxQcHGy38QAAAAAAQMtFaAAAQBPj6empV155RUOHDr2ucdzc3PTss88qOjraTpUBAAAAAICWjtAAAIAmqF27dpo2bZoeeeQReXp61vv5N998s/785z/rlltucUB1AAAAAACgpXJ3dgEAAODKxo8fr9tvv10//PCD1q9fr8zMzCue6+Pjo6ioKN16660aMGBAI1YJAAAAAABaCkIDAACauHbt2mnChAmaMGGC8vPzlZ2drfz8fFmtVrm5ucnPz09du3Zl3wIAAAAAAHDdCA0AAGhGAgICFBAQoC1btmjbtm2SpLvuusvJVQEAAAAAgJaCPQ0AAGimvvvuO3333XfOLgMAAAAAALQghAYAAAAAAAAAAEASoQEAAAAAAAAAALiI0AAAAAAAAAAAAEgiNAAAAAAAAAAAABcRGgAAAAAAAAAAAEmEBgAAAAAAAAAA4CJCAwAAAAAAAAAAIInQAAAAAAAAAAAAXERoAAAAAAAAAAAAJBEaAADQrIWHhzu7BAAAAAAA0IIQGgAAAAAAAAAAAEmEBgAAAAAAAAAA4CJCAwAAAAAAAAAAIInQAAAAAAAAAAAAXERoAAAAAAAAAAAAJBEaAAAAAAAAAACAiwgNAAAAAAAAAACAJEIDAAAAAAAAAABwEaEBAAAAAAAAAACQRGgAAAAAAAAAAAAuIjQAAAAAAAAAAACSCA0AAAAAAAAAAMBF7s4uAAAAALiWc+fO6fjx4yooKHB2KbhObdq0kclk0o033ujsUgAAAADUgtAAAAAATVZ+fr7+/e9/KykpydmlwM66du2qhx56SCNGjHB2KQAAAACqITQAAABAk/XWW29p//79kqR+/fqpU6dOTq4I16u4uFhHjhxRTk6O3n77bb300ksaNmyYs8sCAAAAcBGhAQAAAJqk5cuXa//+/erZs6feffdd9ejRw9klwY4WLlyo999/X//+978JDQAAAIAmhI2QAQAA0CQdOnRIkjR58mQCgxZoypQp8vLyUmZmpoqKipxdDgAAAICLCA0AAADQJB0/flyS1L17dydXAkex/dlaLBYnVwIAAADAhtAAAAAATVJ5ebkkycvLy8mVwFE8PT0lSZWVlU6uBAAAAIANexoAAAAA1yk7O1vff/+9JOnOO+9Ujx49aj0GAAAAAE0doQEAAABwnfLy8rRgwQJJUmRkpHr06FHrMQAAAABo6ggNAAAAgGauuLhYqampSkpK0r333qtBgwbZdfyqqiplZWVpzZo1Onv2rJ588knaRgEAAAAtFHsaAAAAAM3crl279Pzzz2vFihUqKyuz+/glJSX68MMP9f777+vkyZN2Hx8AAABA08FKAwAAALRoVqtVVqtVrq6u8vHxkZub2xWPV1VV6fz586qoqJCHh4e8vb2Nc3NycpSXlyd3d3f17t1bfn5+9a6l+vjShU2e63rH/tmzZ7V//36Vl5fL19dXN910kzw9PXX+/HkVFhYa5xUWFqqgoKDG2Neqv6yszBjDx8dHkrR//3516tRJ7du315kzZ4wwoqysTGfOnFFpaanatWsnV1fuQwIAAABaEkIDAAAAtGg7d+7Ur3/9a5WXl+uDDz5QVFSUqqqq9OGHH2rhwoXq0KGD3n//ffXt21fnzp3T7373O23btk1vvvmmbr/9dv3zn//U/PnzVV5ebozp4eGhl19+WXfffbdcXFzqXMuhQ4f0wgsvKDs7WxEREXrjjTeuGRoUFRXp73//u7788ssaNSQkJOjxxx/XnDlzlJiYaBx/9tlnJUnTp0/XuHHj6lT/9u3b9cQTT0iSZs+erf/+978ym82aPn26unXrZjwmSatXr9bq1asVFhamuXPnyt/fv86vHwAAAEDTR2gAAAAAh6qqqtKBAwd0+PBhHTt2TC4uLrX+ulR+fr4k6ZtvvlFJSYkiIiIaNH/37t0VEhKivXv36uDBg4qKitL58+e1a9cuSdKpU6e0Z88e9e3bV7m5uTp+/LhMJpNCQkIkXdgvYMiQIRozZow6d+6sH3/8UStXrjSCht69e9epjqKiIn388cfKzs5Wjx499OKLL6pjx47XfN6PP/6ozz77TB4eHnr00Uc1ePBgbd++Xd7e3nJ1dVVAQIB69uyprKwsSVLPnj3l4+NjrBiob/1fffWVtm3bZvze09NToaGhOnr0qM6ePSs/Pz9169ZNXbp0sdsqg61bt9b5fQQAAADgWIQGAAAAcKiioiK9+OKLdTrXxcVFrq6ucnFxUWVlpSTptttua3BgIEk33HCDQkNDtXfvXu3Zs0elpaXKy8vT4cOHFRoaql27dmnfvn2qqKiQxWLRiRMnNGbMGN14442SpEcffVTt2rUzgo0BAwYoKytLe/fu1a5du+p8sXvVqlVKTEyUn5+f/vd//9cIJa7l8OHDkqSgoCDdf//9uvHGGxUdHW08/txzzyk6OtpYDfDSSy/VeL/qW39FRYWWLFmioKAgVVRUyN3dXQsWLNCsWbOUmJiokSNHatq0aXbdCPmnn37S8uXLFRMTo5iYGPXo0cNuYwMAAACoH0IDAAAAOJSPj4969Oih7Ozsa55bVVWliooKeXl5ydPTU2fOnJGvr+91zd+mTRsNHDhQ//3vf3Xo0CGdP39eBw8elMVi0Z133qnjx49r9+7dKiws1L59+yRJw4YNM/Yz8Pb2VkZGhtLS0rR9+3bl5OQYd/XX1d69e7V48WKVl5fr/vvvr1cIEhQUJEk6cOCApkyZogceeEB33323AgIC6vT8+tYfFxdnXLR3d2+cHxc8PDx07tw5ffvtt/r22281aNAgxcTE1AhHAAAAADQOdi0DAACAw9166631Ov+RRx5Rp06d7DZ/aGioAgMDdfz4cVksFm3dulXBwcEaM2aMunfvriNHjigzM1PZ2dny9vbWwIEDJV1oXfS73/1OCQkJ+uc//6m8vDyFhYUpMDCwXvOnpKQYYw8ePNjYjLkuxo4dq0mTJsnd3V0nTpzQ3LlzFR8fr2+++cbYUPlKGlJ/XVdA2NNTTz2lOXPmKDY2Vh4eHtq+fbvmzp2rKVOm6OOPP9aRI0cavSYAAACgtSI0AAAAgMPZLsJfi4eHh2bNmqW4uDi7zt+1a1cNGDBAp06d0qZNm7Rr1y717dtXwcHB6t+/v06dOqVdu3bp0KFD6tWrl7p27SrpwsX+DRs2qG/fvvr666/1+eef69lnnzVaF9XVfffdp9jYWBUVFentt9+u10oFb29vPffcc1qxYoWmTZum7t27q7S0VAsXLtTRo0ev+tyG1F+fQMOe+vTpoyeffFIff/yxnnzySfXp00dnzpzRN998o2eeeUYzZ87UunXrnFIbAAAA0JoQGgAAAMAhcnNz9e233+qll17Sc889d9Vz27Vrpx49emj+/PkaMGCA3Wvx9vY2xl21apVOnDihsLAweXt7a+jQoZKk5cuXKz8/X6GhofLz85MkHTp0SJLUqVMno03S7t27jeP1mf9Xv/qVTCaTsrOztXDhQhUVFdXpubm5uaqsrFRAQIDGjx+v//3f/5V0Ya8Iq9Uq6cKFflsrof3796uqqsqu9bu6uhrjZ2Zm6syZM/V6fn14eHgoNjZWc+bM0RtvvKGxY8fK3d1d6enpeu+99/SrX/1Kn376qXJychxWAwAAANCasacBAAAA7ObMmTNKSUlRSkqKduzYYRz38vJSjx49tHfv3sue4+fnp2HDhum3v/2tQ2sbPHiw3N3dtXv37hotiLp3764OHTpo9+7dkqShQ4cad9v3799fkrRu3TolJCTI09NTFotFpaWl9Z7/pptu0mOPPaZZs2Zp2bJlMplMevzxx695Z/8XX3yh5ORkjRo1SpK0evVqSRfuzDeZTJKkwMBAde/eXZmZmXrvvff01VdfacqUKXar38PDw9jnYO/evXr44YfVr18/zZw5U/7+/vUaqz769eunfv36acqUKUpOTlZycrIOHDigJUuWaMmSJQoPD1dMTIzx3gAAAAC4fqw0AAAAwHUpKipSUlKSXn/9dU2ZMkXz58/Xjh075OrqqlGjRun3v/+9Pv30U73++utq06ZNjed6eXnp/vvvd3hgIF0IB2z9+qu3IOrSpYt69+4tSUa7IpuRI0ca+wlkZWWpqKhI06ZNU79+/eo9v4uLi+644w7Fx8dLkr788kuZzeZrPs/b21s5OTn6/PPP9fnnnys/P1+33XabXnnlFWNFRJcuXZSQkCAPDw+Vl5crKytLFRUVdq3/nnvu0fDhwyVJ+fn5Dl1tcCkvLy/deeedeuuttzR79mzddtttcnV11ZYtW/SnP/1Jjz/+uD7//HNZLJZGqwkAAABoqVwkVTlygvDwcEnSkiVLHDkNAACtypYtWzR79myFh4frlVdecXY5aIXKy8uVkpKi1NRUpaSk1HgsMjJSI0aM0PDhw+Xl5VXjsddee03bt2+XdKHlzYwZM67YjujFF1/U/v379dFHHyksLMwxL6SOioqKVF5eLh8fH6f0/C8rK1NhYaGkCxfQL31fbaxWq6xWq9zc3NSuXTu5uLhIsl/9lZWVOn/+vCorK+Xj43NZCFRfjz76qDIyMvTmm28awU1dFRYWas2aNUpOTq7RbikyMlIxMTFGwAEAAAC0FBMmTJB04ZqAI9GeCAAAAHWWlpZmtB8qKyszjg8ePFgjRozQiBEjjN75tbn99tt16NAh+fn56Y033jDulG/qvL29nTp/mzZt6tQG6EqBgr3qd3V1bTJ/Zj4+Prr77rt19913KyMjw2hftGnTJm3atEmBgYGKiYlRTExMvTeuBgAAAFozQgMAAABc1datW42gwHa3uySFhoZq+PDhGjFihAICAuo01ujRo7Vt2zb95je/uea5AQEB2r9/v44dO+b0lQZwDFs7oRtuuOG6xgkLC1NYWJgSEhKM8CA7O1v/+c9/9J///Ec333yzYmJiFBUVZY+yAQAAgBaN0AAAAACXycjIMFoPnT592jjeq1cvo/WQbRPe+qpLYCBJnTt3lnRhE9877rijQXM1dbm5uVq2bJlKSkpqfXz48OEaMmRII1fVOFJTU5Wfny8PDw917NjRLmP6+vrqnnvu0T333KPt27crOTlZa9euVVpamtLS0nTjjTcaqw8CAwPtMicAAADQ0hAaAAAAQJK0b98+Y0XByZMnjeNBQUFG66GgoKBGqyc2NlbffvutVqxYoZKSEg0bNswIEloKq9WqqqoqubvX/s/yzMxMnT17tpGrcqzCwkIdOXJEixYtkiT98pe/dMg8gwYN0qBBg2qsPjhy5Ii++OILffHFFxoxYoRiYmI0bNgwh8wPAAAANFeEBgAAAK1YVlaWERQcPXrUOG4ymYzWQ7169XJKbTfeeKMee+wxffTRR1q9erVWr17tlDrgOCNHjtT999/v0Dnat2+v8ePHa/z48UpPT1dycrLWrVtn/L03mUy69dZbFRMTow4dOji0FgAAAKA5IDQAAABoZXJycozWQ4cOHTKOBwQEGK2HQkNDnVjh/4mLi1NUVJR++uknWSwWFRQUOLskXCcPDw917txZvXv3bvQ9BoYMGaIhQ4bUWH2Qk5Ojzz77TJ999plGjRqlmJgYhYeHN2pdAAAAQFNCaAAAANAK5ObmKiUlRampqdqzZ49x3NfX12g9NHjwYCdWeGUdOnTQ+PHjnV0GWpAbbrhBEyZM0IQJE2Q2m5WcnKwNGzZo/fr1Wr9+vbp162bsfeDv7+/scgEAAIBGRWgAAADQQp05c8ZowbJjxw7juJeXl9F6KDIy0okVAs4XERGhiIgI5efnG6sPjh49qk8++USffPKJbrnlFsXExLTYDakBAACASxEaAAAAtCBFRUVG6yGz2Wwcd3V1NVoPjRgxQq6urk6sEmh6AgICNHHiRE2cOFGbNm1ScnKyUlNTtW7dOq1bt05BQUHG6gM/Pz9nlwsAAAA4DKEBAABAM1deXm60HkpJSanxWGRkpBEWeHl5OalCoHmJjIxUZGSkcnNzjdUHhw8f1kcffaSPPvpI0dHRiomJ0aBBg5xdKgAAAGB3hAYAAADNVFpamtF+qKyszDg+ePBgY58CX19fJ1YING+BgYG67777dN999yktLU3JycnauHGj1q5dq7Vr16pnz57G6oN27do5u1wAAADALggNAAAAmpGtW7caQUFhYaFxPDQ01Gg9FBAQ4MQKgZbp5ptv1s0336zjx48rOTlZa9asUVZWlhYuXKhFixYZ4cGAAQOcXSoAAABwXQgNAAAAmriMjAyj9dDp06eN47169TJaD5lMJidWCLQenTt31oMPPqgHH3xQKSkpSk5O1ubNm5WUlKSkpCTddNNNRoDg7e3t7HIBAACAeiM0AAAAaIL27dtnrCg4efKkcTwoKMhoPRQUFOTECgHYvhaPHTtm7H1w6NAhHTp0qMbqg/79+zu7VAAAAKDOCA0AAIBDeHl5yd2df2rUR35+vnHB8fTp03Jzc9Po0aPVvn17BQcHKyQkRIGBgXaZ6/z583YZB4DUpUsXTZo0SZMmTdL69euVnJysLVu2aNWqVVq1apV69eplBAhsSA4AAICmjp/kAQCAw9Bbv34CAgLUp08fh89jtVoJDQAHGTVqlEaNGqWjR48aqw8OHDigAwcO1Fh90LdvX2eXCgAAANSK0AAAAAAA7Kxbt256+OGH9fDDD2vdunVKTk5Wenq6fvjhB/3www/q06ePESB4eHg4u1wAAADAQGgAAAAAAJew5ybGsbGxio2NVW5urnbs2KEdO3aoqKhIe/bs0cGDBzVw4EANHDhQXbp0sducLU1lZaWsVquzywAAAGgVCA0AAECzNG/ePC1atEjTp0/XuHHjnF2OXZnNZj3xxBOKi4vTtGnT6IEOOIG3t7d8fHzsOmZgYKBCQ0N1//3323Xc1iAvL8/ZJQAAALQars4uAAAAtGzz5s1TRESE8ctsNl/xsfj4eGVmZhqPL126tNbnFhQUaPPmzZKkjRs3tri7Tzds2CBJ2rZtmywWi5OrAQAAAAC0JoQGAADAKWwrBaqzWCyaOnVqjeCgNv7+/ho2bJgkKSoqqsXdiT9y5EhJ0uDBg2UymZxcDQAAAACgNSE0AAAAjWL69Okym82KiIgwjs2fP19ms1lms1nz58+XdCE4WLZsmSRp3LhxWr9+veLi4i4bb+rUqTKbzS2uNZEkY1XF66+/3uICEaA5yczMVHx8vB599FEVFBQ4fD7bZ2T1VVe2Yy+//LJDVlUVFBTo0UcfNVZ0LV269LrmrO9zrVarXn75ZUVERGjevHkNfRkAAACwI0IDAADgFFOnTq0RIISEhCgsLEySdPz48atebLrSRabqx22/6nLhqvpFs+oXzCIiIoyLhbVdWLvUpe2Uql/4q17bpTXZnmc73/Z729yXvl7bhczaWjpd+npstdpaQTnqwiPQEm3fvl0Wi0UZGRk6ePCgU2pwZLuygoICPfPMM8rIyLDbnLRXAwAAaP4IDQAAQJNw+vRp5efnS5I6d+5c7zvsrVarZs2apcTExOuqY9WqVXriiSeM32dkZOjpp5/W5MmTa1xYW7BgwWWBwMyZM2uMZbFYNHHiRC1dulReXl6KioqSVPNimtVq1caNGyVJsbGxCg4Ovmp9mzZt0tSpU43nWywWvfbaa8Zd0JmZmZfVOnPmzMtaQQG4tkGDBslkMiksLEwhISFOqcGR7coOHjxofFbYVn6NGzfuuuakvRoAAEDz5+7sAgAAAKxWqz788ENZLBaZTCbFx8fXewyLxaJt27ZJunDxq/oqhvo4e/asVq9eLS8vLyOE2LlzpxISEoyWSE888YQsFou2b9+u4OBgrVy50ggrbHNXDzGWLFmi6Oho4wJk9edWr9t2se1qTp06pXnz5ik4OFhLly7VzJkzjbugIyIitGzZMuN9tJ2XmZlZI2gAUDfBwcFGuzRnuXQDeUcwmUzq0KGDXeZsjHoBAADgWKw0AAAATpWZmamJEycaF91nzJhxzbvtr+WJJ55ocH/sYcOGyd/fv8bKgOpBRvU2SlLNlQJxcXEaMGCAJMnLy0sTJkyQJOOifnBwsGJjYyVJGzdulNVqNdqf1PVO5uqrEWwhhE1BQYE2b9582XnV5wVQd7XtMVD9ePVf9blQbmsXVpc2aldrV/byyy9r165dRruyK7VOu5RtDNuqKtuqKHu0SLv0uVd6zVfaJ6L6e1tb+zUAAAA4HqEBAABwmqVLl2rixInGnfGLFy9u8AqB4OBgPf744zWOLVq0yKEbmB4+fLjG7y9tq9ShQ4fL2nPYVhMcPXpUVqvVGMMWVthLUFCQ3cYC8H9sq40awrbfiL3ahSUmJurhhx+usYpo5syZDr3T/1ot0mozb968Or3mTZs26dVXXzV+X5exAQAAYH+EBgAAwCnMZrOxB0BcXJwWL1583SsMxo0bJ7PZrISEBONYY25geukGzqdOnbqsJZBtpUJGRoY2b95srAyoS2ui+rg00ABgH7aNfuPi4rR+/XqZzWbj7vhr+eSTTy7bQ8BsNismJqbB9djGWb16tbEKasmSJVfd8NzLy0uvv/665s+fL0lGaLts2bJrfg7bWqSZzWZNnz5d0tU/Z6uvgJo+fbrxmj/66KPLgtLaxs7Pz9fp06fr8E4AAADAXggNAABAoysoKNBf/vIXSRcuvE2bNq3eGx9fzdSpU7V48eJG2YSzehsj2/4H0oX2H0uWLJGkGq2H/P39NWzYMEkXVlpkZGTUaGt0vbV069ZNkrRy5UqjrYfZbGYjZMDOEhMTNWrUqDq30Kl+8TwhIaFGyHD77bc36DOw+meHv7+/0RLNtpLJEa7WIu1aZs6cedV2TLWNbbFYdOrUKfsUDwAAgDohNAAAAI3u9OnTys/Pl/R/F97q2qSjXeEAACAASURBVN/7Sqr32I6IiDDaHtV1r4DrERsbq7i4OEn/t5/CqFGjjH0ann766Rp31NpWFdjuWI6KirJLaFJ9HwVbj/KIiIgGt1IBcLmHH364xr4mtq+1uuwlYGOv9mGXtkRrivz9/fX000/XOJaYmKiJEyeyXwEAAEATRWgAAAAaXW1texwhLi5O//jHP+y6V0BtbK0+qrdFki6sMFi9evVlbUuqb6ZsMpk0aNAgu9USERFhtByxmT9//mW1AWgYf39/ffTRR5etZrJtbl4Xjmof1lTbktk2ira1HJIuhC3bt293YlUAAAC4EndnFwAAAFof2wWkhrJdpH/99deNY8HBwVq2bFmDxrNdBLzUuHHjNG7cuDqdK11oizR16tQGz3e1eS99vdKVX/Ol72/1Vkm2O5PPnDlzzToBXJnt66+um/zaWpNlZGRo0aJFGjlypBEorlq1SqNHj653DStXrlR8fLyCg4OVmZmplStXSrL/xur2Mm7cOEVHR+uZZ54x9nYAAABA00NoAAAAGsXMmTM1c+ZMzZ8/v04bhkoXev7bNktG3ZjNZh09erRG6LBgwQKjVZK9N1wGWpsrhQR1aTMWHx+vlStXymKx1GgbFhcX16DQwNYaqTqTyaT4+Ph6j+UoBQUFtYYE9l5lBQAAAPuhPREAAEALY9ts1PbLdoHz0s1XAdjH/PnzL1sdVJvg4GAtXrzY2APFpqF7E8TFxemFF14wfh8WFqZPP/3U2Ey4qWoudQIAALRWLpKqHDlBeHi4JBlL4gEAwPXbsmWLZs+erfDwcL3yyivOLqdWXl5e8vHxsctY586d04kTJ3TixAkVFhYax729vXXjjTeqU6dOat++/RWfv2LFCr355pu1PvbQQw/pySeftEudTUF2drZeeOEFnThxwjh244036u2331aPHj0kSe7u7jUeB3C5jh072u0zzJ6sVqtmzZqlxMRExcXFadq0aU1+M2R7yMvLq/H5DwAA0BpNmDBB0oVrAo5EeyIAAOAQVqu1zpuC1iYnJ0epqalKSUnRoUOHjOMBAQEaMWKERowYof79+0uSysvLlZ+ff8Wxbr755qvewHC15zY37dq10wcffFDrYy3pdQIAAAAAHIPQAAAANBm5ublKSUlRamqq9uzZYxz39fU1goLBgwc7sUIAAAAAAFo2QgMAAOBUZ86cUUpKilJSUrRjxw7juJeXl4YPH64RI0YoMjLSiRUCaK2KiorqfO6ZM2f0hz/8Qbt27brssc6dO+udd94xWoRdD6vVqoqKCklSRUWFioqKVFlZedl5y5cv15w5c2odY9KkSfp//+//NbiGgoIC5eXl6fTp08axtm3bqmPHjurYsaPc3e37Y6a3t7ddxwMAAMDVERoAAIBGV1RUZLQeMpvNxnFXV1eNGDHCCAtcXV2dWCWA1iwvL6/ez5k9e/ZVH8/NzW1oOTU89dRTeuqppyRd2PPl3Llzl50TFRV11bZs11tL+/btVVZWpuTkZCUnJ+v48ePGY7/4xS8UExPDyjAAAIBmitAAAAA0ivLycqP1UEpKSo3HIiMjjfZDnp6eTqoQAFAfHTt21L333qt7771XGzduVHJystLS0vTTTz/pp59+Uo8ePRQTE6OYmBj5+vo6u1wAAADUEaEBAABwqLS0NKP9UFlZmXF88ODBRlDAxSQAaN6ioqIUFRWlkydPKikpScnJycrOztaiRYu0aNEijRkzRjExMRo4cKCzSwUAAMA1EBoAAAC727p1qxEUFBYWGsdDQ0ON1kMBAQFOrBAA4AidOnXSAw88oAceeECpqalKTk7Wpk2btGbNGq1Zs0bBwcHG6gMfHx9nlwsAAIBauEiqcuQE4eHhknTVfpoAAODqlixZot27d8vDw0OSdPr0ae3Zs0eSNGLECOM8Dw8PPfPMM06pMSMjw2g9VH1zzF69ehkrCjp37uyU2gAAzmOxWIy9D/Lz8yVJLi4uRngwYMAAJ1cIAADQPEyYMEGStGXLFofOw0oDAACagZKSEu3YsUOlpaWXPVZ9f4DevXs3Zlnat2+fsU/BiRMnjONBQUFGUBAUFNSoNQEAmhaTyaSHHnpIDz30kDZs2KDk5GSZzWYlJSUpKSlJISEhRoDQtm1bZ5cLAADQ6hEaAADQDIwZM0ZLly696jkuLi6Kjo52eC1ZWVlG66GjR48ax00mk9F6qFevXg6vAwDQ/IwcOVIjR45UTk6Osfrg4MGDOnjwoBYtWmSEB/369XN2qQAAAK0WoQEAAM2AyWRSly5dlJWVdcVzvLy8NHjwYIfMn5OTY7QeOnTokHE8ICDAWFHQv39/h8wNAGh5unbtqsmTJ2vy5Mn6+eeflZycrK1bt+rHH3/Ujz/+qN69exsBgqenp7PLBQAAaFUIDQAAaCbuuOMOffLJJyouLq71cV9fX3Xt2tVu8+Xm5hqth2z7J9jmsQUFjgopAACtx+jRozV69GgdOXLEWH2wf/9+7d+/v8bqgz59+ji7VAAAgFaBjZABAGgmzp07pylTpqiysvKyxzw8PDRx4kRNnDjxuuY4c+aM0Xpox44dxnEvLy+j9VBkZOR1zQEAwLWsXbtWycnJ2r59u3Gsb9++RoDQpk0bJ1YHAADgHGyEDAAAavD19dWAAQNqXMyvbtSoUQ0at6ioyGg9ZDabjeOurq7GioLhw4fL1dW1QeMDAFBf0dHRio6OVnZ2trH6YO/evdq7d2+N1QfsoQMAAGB/hAYAADQjY8eO1aFDh1RYWFjjeJcuXWQymeo8Tnl5ubGiIDU1tcZjkZGRRlhAH2kAgDP16NFDCQkJSkhIMMKDjIwMff/99/r+++/Vv39/I0Bwc3NzdrkAAAAtAqEBAADNyMiRIzVv3rwax9q2bas77rijTs9PS0szwoKysjLj+ODBg42gwNfX1641AwBgD7ZwIDMz0wgQdu/erd27d9dYfXDTTTc5u1QAAIBmjdAAAIBmxNXVVVFRUVq/fr1xrKSkRCNHjrzic7Zs2WK0H6q+QiE0NNRoPRQQEODQugEAsJfg4GAFBwfXWH2wa9cuLV++XMuXL1dYWJgRIAAAAKD+CA0AAGhmbr31VpnNZlmtVknSgAED5OfnV+OcjIwMo/XQ6dOnjeO9evUyVhR07ty5UesGAMCeXF1dddttt+m2227TwYMHlZSUZLQvysjI0MKFC43woGfPns4uFwAAoNkgNAAAoJkZOnSo3N0vfAv38fHR7bffLknat2+f0Xro5MmTxvlBQUFGUBAUFOSUmgEAcKSQkBCFhIRoypQpxuqDPXv26LvvvtN3332nQYMGKSYmRtHR0c4uFQAAoMlzkVTlyAnCw8MlSUuWLHHkNAAAtCr//Oc/tWLFCrm5uWn8+PFKTU3V0aNHjcdNJpPReqhXr15OrBQAAOfYt2+fESCUlpZKkvz8/IzVB3UJ0pOSkhQdHc0mywAAoEmYMGGCpAttiB2pVYYGGzZs0ObNm2WxWGr0dgZQPz4+PjKZTBo2bNhV+6kDLdHatWuVnZ2tI0eOqKSkxDg+YMAA3X///Zed/+WXX2rnzp11PudqBgwYoPDwcL3yyivq2rWrsrKyJF3YENnb21vt27dXZGTkdc9Rl+fPnDnzmmMBAOBMpaWlRniwb98+4/iQIUMUExOjW265pdbn7dy5U9OmTVPbtm01a9YsNlgGAABO11ihQatrT/TOO+9ow4YNzi4DaDH27t2rNWvWaOTIkXr++eedXQ7QKK72vWT48OHq0qXLZcd9fX2VkZFR53OuZvjw4YqOjlZgYKCio6M1dOhQxcTEaPv27frwww+Vn5+vW2+99brnuNbz77jjDnXo0EFnz55VeXn5NccEAMAZPDw8FBsbq9jYWO3Zs8cIENLT05Wenq5FixZpzJgxiomJUbdu3Yznff7555Kk4uJiPf/883rqqac0duxYZ70MAACARtOqVhqsXr1af/3rX+Xt7a1f//rX6tu3r2644QZnlwU0W6dPn9aePXv0wQcfqKioSL/5zW902223ObsswKFsgcFNN92kX/7ylwoKClLbtm1rnBMREXHZ88xmc73PuZqmNEdFRYUsFosqKirqPDYAAM5ktVqN8ODAgQPG8fDwcMXExCg8PFyTJk2q8RwPDw/dd999xh1+AAAAjY32RA7w0ksvac+ePXr11Vd1zz33OLscoMX49ttvNWPGDPXr109vvPGGs8sBHOqxxx7T+fPn9dlnn9GmoJqCggKdOXPG2WUAAFBvu3btMgKEyspKSRda/hUXF192btu2bTV27FglJCQ0dpkAAAC0J3IEi8Ui6ULLBQD2Y/uasn2NAS1VXl6eTp06pZ49exIYXMLDw8PZJQAA0CChoaEKDQ1VQkKCER5kZmbWem5xcbFWrVql/Px8/e53v2ODZAAA0CK5OruAxmS7A7JTp05OrgRoWWxfU9xljJbuxIkTkqSAgAAnV9K0mM1mLVy4UF9++aWzSwEAoMF8fHwUHx9/zVUERUVF2rJli1566SUVFBQ0UnUAAACNp1WtNADQ+vj4+Khjx46SpLKyMidXg4Zo06aNCgsLlZeX5+xScBX/+te/FBYW5uwyAAC4bl988cU1zykuLlZmZqaef/55TZ8+XUFBQY1QGQAAQOMgNADQarRp08bZJaAFmDx5sry9vZ1dBgAAcIDCwkLt3r27TueWl5fr1KlTeu655zRjxgwNGDDAwdUBAAA0DkIDAADqaMCAARo2bBht7gA7cXVtVZ0yWwzbRrHAtZw8eVLJycnauXPnZY/NnDmz1udMnz69XudcTUPm+Oqrr9SuXTtjE+Sqqirjv7b/v1RlZaWmTZumZ599VrfcckuTeB2NOQfQXOTl5Wnp0qU6duyYcnNznV0OgEbg4uKizp07KygoSBMnTpSnp6ezS2o2CA2uw7Fjx/Tzzz8rIiJCN910k1xcXJxdUqtXXFys7777TqtXr1ZZWZn+8Ic/qF+/fs4uq06qqqp06NAh7dixQ6NHjzZa6tSmrKxMiYmJysnJUdeuXRUXF6c2bdooPT1dqamp8vT0VHx8vAIDAxvxFbRO8+bN06JFizR9+nSNGzfO7uNnZmZq6tSpxlzBwcF2n8MeHP0+tHTHjh3Txo0bNXToUPXo0eOq5yYnJ2vv3r3y8/PT+PHj5e3trezsbH3//feSpDvvvPOaYwBNxQ033KB27do5uwzUQ35+vs6fP+/sMtAMpKWl6f3331dhYWGtj3fp0qXW4xkZGfU652oaMsddd92lUaNG6cUXX6zTHFFRUbJarSopKdGKFStUUlKiRx55xOmvw1FzVFRUyGq1spcZmp1169bp/fffp2Ut0AodOXJEmzZtUnJysn7/+9+rf//+zi6pWSA0aKBz585p9uzZSktLU3BwsObOnauuXbs6u6xWLS8vTy+99JLMZrNx7Eo/pDRFx44d04svvqjMzEzdeuutmjFjxhVboFRUVCg1NVWJiYmKi4vT2LFj1aZNG2VnZ2vBggUymUwaM2ZMkw8NqqqqdPDgQfXq1cvhc9kuatvMnz9fERERtZ6TkJBgXKiXpKVLl9a4s8r23IKCAm3evFmStHHjRsXGxsrLy8uudW/fvl0Wi8X4/6YYGjTG+9CSVf9+EhoaqnffffeqX7sZGRlatGiRwsLCdNddd8nb21t5eXlasGCBJCkyMrJZhQaFhYXy8fFxdhkAADsqLCw0AoOIiAg9+eSTl51zpbaR8+fPr9c5V9OQOSIjI+s1x6X/nqzLHLWdczVN6b1q06aNvLy85OHhwZ3aaDbKy8v16aefqqysTHfccYfuvPNOdevWjRs/gVagrKxMR44c0ddff620tDR9/vnnmjVrlrPLahYIDRrI09NT3bp1U1pamjp27Ki2bds6uySHKy0t1datW/XTTz9p4MCBiouLs/scxcXFSk1NVVJSku69914NGjSozs9NTk6W2WyWu7u7pk6dqlGjRsnf39/uNTpK27Zt1bFjR2VmZiogIKBF999PT09XUlKS0tLS1L59+zr/MOMolwYKdeXv769hw4YpIyNDUVFRDrlQPmjQIJlMJgUEBCg6Otru49tDY7wPLVmbNm2Mdkf+/v6t4vuJrV3FihUrNG7cOE2YMMHZJQEA7CgjI0OFhYXq06dPvf+dd6WL8PU9hzkcO4e3t7c8PT1VUlJyXeMDjSE1NVW5ubmKiIjQH//4R2eXA6CR9enTR2PGjNH48eO1c+dOHThwoFFuXm3uCA0ayMPDQy+++KJ++9vfqm3bti36Aq9NTk6OZs2aJYvFoj59+jhkjl27dun555+XJI0fP75ezz1+/LgkqV+/foqPj29WgYEkdejQQfPmzVNxcbF8fHzk5ubm7JLsav/+/frpp5/0008/qbKy0lgF0thtKS5tn1OXwGDcuHGKjY3VrFmzlJiYWOOxqVOn1liVYG/BwcFatmyZw8a3F0e/Dy2Zl5eXpk2bpueee65Ffz85ffq01q9fr+XLl+vEiRNycXFRVVVVi329aLrMZrOeeOIJxcXFadq0aS0q6LS1tAsICNDcuXOb3b+F0HJkZWVJksaMGePkSuAoZrNZixcvVt++fRUTE+PscoCrsq3cHjhwoJMrAeAsbm5u6t+/v44dO6bjx48TGtQBoUEDVVVVqaioSJWVlbJarXJ3d1dVVZXOnz+vyspKubm5qV27dsZFkfPnz6uiosI4LumyY4WFhdq7d688PDzUp08feXp6qqqqSsePH9fhw4cVGBioHj16GBeTKysrjfk8PDzUtm1b5eXlKTs7W97e3urdu3e9L8ZUVFQoOztbubm5cnNzU/fu3RUYGCir1apz584ZG98VFxeroKBAHh4eRgudyspKFRQUKDMzU+Xl5ZfVe+n74OPjo/z8fOXm5qpPnz4qLi6u0U6osLBQBQUF8vLyuuoP9BUVFSosLJTVajV+f+bMGbm6uqpdu3YqLS2V1WqVq6urfHx8VFJSoszMTAUFBcnX19eoPTc3V0eOHJEk43VX36CxrKzMqM92UT87O1snT55UUFCQOnfuLBcXF5WUlGjfvn0qLS1V79695efnV6f3vrKyUsXFxaqsrFRJSUmN1kTV/x60b99e3bt3r9OYl75Ptj9bX1/fBv39qC+LxaINGzboxx9/1Llz52S1Wq+4gZwzhYWFacaMGXr11Vfr3PdVkqxWqxEkVG9pVP24TUMvTtkubplMJmNPA1vQUX3MgoICPfPMM8rIyDBqqX5s+vTp6tatm5544gnjNc+dO1eSjHOkmqGKrS2TyWTSW2+9pc8++8x4TdXnru19qMvc1S9mVT/fVsfhw4eN1/ncc8/V631zlJ07d2rv3r3y9vautdVCQ9T2/aT6Uun8/HxlZmbK09OzQYFtZWWlLBaLjh49Km9vb4WEhFyx9Zm9nTt3zvgMOHTokNzc3FRRUSHp/zaWdHfnnyK4cgu5Sz8bpCt//kiXf77Yxq1+fMOGDZKkbdu2yWKxNMm2bw1la2lnsVh08ODB677DGGioTp06aciQIVfsk4/mb/Pmzfrhhx90ww03NNqcXbt2NX7mQ/PUrl075eTkqLy8vFHnPXv2rCQ1+fa9ABzL9hnAvjx1w0/qDVRSUqI5c+YYPeWnTZsmq9Vq/GBb/Qfa2s6VZByLjY1VVFSU/va3vyk/P1/ShWWgL7/8sv7zn//oiy++MOaNj4/Xiy++KG9vb509e9aYb9KkSQoMDNT7779vfAMOCQnRnDlzdNNNN9XpNaWnp+u1114zLpxLMi5ULlu2rMYP82+//bbefvtt4wLhkSNH9Pzzz+vAgQM1xhw+fLhmzJihjh071ngfYmNjNWjQIL333nvq16+f3nrrLf3lL3+pcZH12WeflXT5neGXOnz4sKZOnWrcPbB7925NmDDBuECwdu1a48Ln1KlT9Y9//EPZ2dnGBYndu3frT3/6k7Zu3Vpj3KFDh2ratGlGb/Dt27cbFz3feOMNJSUladWqVZIuXPR6+eWX1a1bN02fPt2oxc/PT2+++aaioqKu+f5X//OsfgH6zJkzevfdd2vcbR4VFWUEOHVR22vs3r27XnvtNQ0ZMqTO49TFuXPntH79ev3444/KycmRdKG1VVNle58LCgrsMl5tgUFTsGrVKuNCmXShbcDTTz+tU6dOGX9fJWnBggUaNGhQjYtoFotFDz/8cI3xEhMT1blz5zqtLqht7rffftv4jLTdGVu9jup7SDQ1n376qSIiIpSVlaWePXte93i1fY+wfe9YsGCBPvnkE+NzffDgwfXq/2+xWPTOO+9ozZo1xrGAgAA9//zzGjt2rEP6uFqtVm3YsEGJiYk6cOCA3N3djfptgUF1rDTA1axdu/ayMNf2+Wr791RddOvWzQhtR44cqUWLFmnw4MEymUz2K7YJqN7SLiQkxNnloBU7efKk0tPT6/Rv4KaorKxMiYmJysnJUdeuXY22rJce43tY42vsVcoAALRWhAZNgO0H4piYGKWnp+vAgQMym82aPHmyAgICNHHiRK1bt04nTpwwLriPHDmyxhhff/21PD09FR8fr6NHjyo9PV0HDx7Un/70J/3xj3+85t3up0+f1ty5c3XkyBGFhYXpwQcfVGlpqTZu3CgXFxf5+fmpV69eysrKUnl5ubp27Sp/f39j3PLycrm5uemBBx7QsGHDlJOToy+++EKpqan65JNP9PTTT9eYb9++fUpPTzcuJLm4uCggIEA9e/Y0ljP37NlTPj4+17xA5u7urp49e6q0tFT5+fny8PBQcHCwunTpUmOlQElJiRYuXKjs7GzjWFZWll5++WVlZ2fLz89Po0ePVmVlpZKSkrR161bNmDFDb7755mV3JMyZM0eDBg1SXFyckpKSVFpaqtdff10eHh4aPXq0QkJClJqaqrNnz+qrr75SWFhYg+7sraio0IIFC4zAYOjQoQoODtbatWuNgOlaqr/GMWPG6J577tGGDRv0zTff6I033tC7776rbt261bu2K0lISJCXl5eKi4vrdH5OTs5lfz/s6ZZbbjFaXjUGi8Wibdu2Sap9s2VnOXv2rFavXi0vLy8j1Ni5c6cRUNlWNFgsllo3XK4eZNnu3F25cqXi4+OvedHNNre/v7/x3Op3+C5btkwWi6XGaopLg4T09HT95S9/ccybUw+2z5T9+/c3aMVPXVVVVem///2vFi5cKEnq1auXhgwZok2bNhl/v67l1KlTmjFjhjZt2qShQ4fqwQcf1L59+/Txxx/rj3/8o0wmk92WaFdUVCg6Olo7d+7UQw89pDZt2qisrEySrnkn2erVq7Vr1y65ubnJ1dXV+G/1/7/Wf+11Tn3Hg/1deqOAj4+PFi9ebHwm2VZAVf8Mef311/XYY4/VuUVaRESEzGazQ+p3tubS0g5o6ioqKpSammoE+mPHjpWky44RGgAAgJaK0KAJ8PX11VtvvaV+/frp6NGjevrpp5WdnS2TyWRc0L3rrrv029/+VkVFRdqzZ89locENN9yguXPnKiQkRBUVFfrggw+0cOFCbd++XYcPH1ZYWNhVaygoKFBubq4k6Y477lBsbKxcXFx0zz33SLpwAf8Xv/iFcRHvV7/6VY0f6rt06aJFixbJw8PDOObm5qZ33nlH6enpOnfuXI22LJmZmXrhhRc0YcIEubm5ycXFRc8995yio6ONu/lfeumlOl1w7d69u95//33jYmSfPn1q7eN76tQpDRkyRH/729/k7++vyspK/f3vf1d2drYCAwP15z//Wf369ZMkpaSk6A9/+IO2bdumNWvW6N57760x1t13361nn31Wrq6u+te//qW//e1vKi8v11NPPaVHH31UZWVlmjNnjpYuXarMzEydPn26QaHB4cOHjTuEH3zwQT377LNyc3PT5MmT9cILL+jgwYNXfX5VVZVWr16t7OxsRUZG6tVXX5Wfn5+GDh2q7Oxsbdq0SWaz2a6hQdu2bVVUVFTn88vKynT06FG7zX+puoYrjmD7u1z9gruzDBs2zPiaiIqKUmJiokwmk+Lj4yVdWJkUFhZWa3um6udJF1Y8rVy5UhaLRadOnbpmaDBhwgRjbtsdvjYFBQXavHmzJCk2Nta4MBgcHKzY2FjjXKv1/7N353FRle3/wD8wMCwCsgiyCIiIGKCiLG6pmSZmKEb4NXdcsBLRtNKUxz1KtNQyLAGLtEyDLBIVc99xGREeRFFgRMEBEUTWYf/9we+cZwZnYIBZWK7369UrnZlzznUOMjPnvu77uoQK/XciK2ZmvpmZmUL7jhQVFeHkyZMAGupBb9q0CXp6enj58iXWrFmD69evN7uPmzdv4ubNm7C1tcXGjRvRq1cvjBo1Cvn5+YiNjcWFCxfg4uLS5tUGaWlpuHHjBlJTU1FWViaWMJB1+7S0tDbFoApqampKT1LIc3/yPraiEirjx48X+zszk74tmMSDtFJGDEml1JrbX2hoKHbv3s2uhmCSIMxrpO1X0ooraeXimORq4+1ES8GJvk6W+CSdDxPrsmXLsGHDBggEAoSHh8tlhRUhhLQ3yuh3w3zOtId7A2moNw4hhBAGJQ3agT59+sDKygpAw3JLps6+g4MDevToAaBhYLx3797soExjY8aMYW/iOBwOhg8fjp9//hnl5eXIyspqNmlgaGgIU1NTCAQCfPfdd7h9+zZmzpwJV1dXmQbGtLS0UFBQgGvXruG///0vUlNTmxzgc3R0xJtvvimWZFAGHx8fGBsbA2jomZCamgoAGDp0qFgZJ2dnZzg4OCApKQkpKSmv3FCLXhfmZwQ0NFZSU1MDl8vFgAEDEBsbC6FQ2OryPDk5OewAwujRo9lj9urVCx4eHs0mDSoqKthzrKqqwsGDBwE0zPwtLCwE0JCYkKcFCxbg1KlTbFmSysrKJl9vZWWF1atXyzUGUaI/H2Wws7NDQECAWHmdqKgo3Lp1q8N88W78b8LExEQp9WptbGykPufq6qrUlQZPnjxBAZnmeQAAIABJREFUQkICUlJSUFZWhrq6OtTU1LB9arp3767Q4z979ox9D3399dfZpfjdu3fHqFGjmk0a1NbWIjk5GUDDaqy///6b7R3ArOYSCASorKxs802xo6MjHB0dsXDhQhw/fhzXrl3D5cuXweVyJX5eNebt7Y0+ffqgtrYWdXV17P9F/yzr/xX1WknbMH+WVHKpq1NTU5M58bBixQq8+eabMu+bWZk0ceJEmZIHTb2viGqcMGiNgoICrFq1Cnfv3mUf27x5s8QSbQcOHGAHjEQH6UVt3rwZN27cwLp169hkSePVYEwPAxcXF4wZM6bJ7wXS4uvVqxc7SaPxdUhJSWET4IQQ0h40TrJKGuRnXgNALNHauE+O6LaK7ncjOlHm1q1bKCoqapf3BdQbhxBCCIOSBu2AkZFRs0tbm5u5p62tLXVwX5YmQ0ZGRli+fDnb0+D8+fM4f/48PDw8sHHjRpibmze5/fHjx7FlyxZUVVXBysoKvXv3hpGREa5cuSLx9ba2tmxyRFl69uwpNsDANFAGGgaWRRMYXC4XFhYWSEpKQk1NzSv9A2QZQJXHTEtmlryFhYVYiSQOhyPTQF9VVRWeP38OoOELsKxlTdrizTffxJtvvomCggJcvXoV//77LwoKClBTUyPx36KmpqZcVzo01pL67/Li4+MDHx8fscGXlJSUTvPFu3EfBHlpKoGlra2t0H8nAJCRkYFTp07h2rVrqKurQ3V19SsJPy6Xq5QGfKWlpWxir/Ggpyyrlqqrq9k+HRkZGc0mGOXF3d0d7u7uCAoKwsmTJ3Hp0iU8ePAAOjo6KCkpkbjNoEGDOuTvRX19fYdKcihz//X19TI3OJRlZVrjgezWzAI1NzeX+nrRgZzm+ig1RSAQICAgAPv372dnrAINg1cxMTGwsLBgy8MxA0YvXrxAREQEAPFVaUwiIT4+Hr6+vnB2dsagQYMgEAhw48YNeHl5AQBu3LgBQHw1mSzxiQ66Xb16FW5ubuDz+ewKJ0kl6Rh8Ph9PnjyR+8oWRfRYIZ1TXV0dSktLUVdXBy6Xy34uSnu8uroaZWVlUFdXR7du3cDhcFBXV4eioiLw+XzU1NTA1NQUtra2rVpFyOwfaPj+r6en1+R9QOM4tbW1IRAIUF5ejj59+rCTFTgcDvT09NgJC6WlpaitrWUfB/DKYyUlJXj48CG4XC769esHLS2tFp9PR9Y4odCSlWmK7ndjaGgId3d3pKSkiK3CbW+oN07zKioqcP78eRgYGMDDw0PpEyHJq+rr65GWloY//vgD6enp8PDwwIcffkgl5P6/rKwsnDhxAgDw9ttvw9bWVuJjhDRGSQM5Ym58Gqurq1P4IJNQKGS/MAINPQoYsn7pcXV1xZ9//onU1FT8+eefOHHiBG7evIm//voLH330kdTtiouLERMTg6qqKnzyySd4//33oa6ujtjYWKlJA1XcHDZOvHC5XHYW+tOnT1FRUQEdHR0ADYMYzACmoaGhyj5smJnBAoEA+fn57IwXoVCI3NzcZrfncDjsoPn//d//YfHixa9cd0V9yTExMcHkyZMxefJkPH78GJcvX8aZM2dQWVnZovJFHVlQUBC8vb1fKTnRVswgsuhMKEnNQuUlJSUFFy5cgI+PD4RCIY4cOQKgoWxFW28mmGRASkoK2yPBzs4OPB6vzbN+ZVFfX4+zZ88iPDycbT4sbWUQh8PB1KlTxZrTKwqHw2EbCD9+/JgdVK+vrxdrVt/U9sz72RtvvIHPPvvslQFTDoej0MEELy8veHl5oba2Fn/99RdOnTqFiooKVFdXi61AUmSZJ0ViZtN31PgVqXFCpan/t+Y9JD4+Hp6enq0e3G/K5s2bsXnz5lYlJiwsLDBw4EAA4iXfREuvMeXhGMyMzsZl4MaMGcNuzwzq+/r6Ij4+nn3vB8BOBmhctlISZjUCEyuThGguFtGSdABw9OhRhfRNUGV/kva+P0qoiKuqqkJoaCji4+MxYcIErF+/Hjo6OsjKymK/c73//vtYuXIlOBwO/v33X6xfvx5Dhw5FaGgoioqK8OmnnyI9PV1sv8OGDcOmTZtatEq1trYW+/btQ0REBDQ0NBAcHIzJkyc3uU1xcTE7233WrFnQ1dVFREQEJk6ciGXLlmHVqlVISUkRex+qrKzE1q1b2X4KTCN45jEvLy94enri22+/RXFxMYCG96GtW7eKrabuTBqXepNU5q0xQ0ND/PLLL2KJXYYy+t0EBQW127JEjI7SG6eiogLa2toqeX/8/fffERYWBgAIDQ19pZQiUa76+nocPXoUISEh7KQVa2tr1NbWUtLg/3v+/Dk7ScXDwwO2trYSHyOkMUoayJHo7HQ+n4/CwkJYWloiJSUFt2/fVuixL1y4gClTpsDR0RGFhYX4559/ADR86DOlj5pSUVGBmpoa6OvrY8CAAbC3t0d5eTnOnDnDzmARTYo8fPiQTVIUFBTg2bNnAMA2Hy4vL5ep5nZjogNlDx8+xJAhQxT2RUBHRwdOTk44f/48EhIScOfOHQwbNgwAcPnyZTx48AAaGhpwd3dX2aBQ3759YWxsjMLCQhw7dgwuLi7Q0dFBYmKiWKkDaXR1deHg4IDr16/j+vXr8PPzExugKS8vV8oMJBsbG8ycORMzZ85Eamoqzp07h6tXr0JdXV0ps7aVSdoNizwG2BnMjHuBQAA/Pz+57LM5zECaKGaWVFt+htra2uxAmDLPB2i40V+xYgXy8vJQXV3dbB1+d3d3ODs7KyU2S0tL2NvbIy0tDSdOnMCoUaPQo0cPpKen4+zZs81ur6mpCUdHRwDA7du38fjxY3h6erLPM7/7yrjR4nA48PPzg5+fH168eIG///4b8fHx0NXVxcuXL+nLfCfUkoSKLCtnRAdZmIEe5v1IHokDQ0NDLFu2TGwAiRmcFy1rIU8FBQViEzwal4ETTagyRBMRzEokpjSRPGeDNleSzs7ODkOGDFHY6hVZV6l0JR0x6ZGVlaWw66GtrQ0XFxfEx8cjKysLJSUl0NHRQUZGBvv9KzU1FcXFxTA0NMTDhw8BAE5OTtDT08Pz58/B4XDw/vvvw93dHTk5OTh06BASEhJw4MABLFu2TOZYeDweDh8+DACYP38+3nnnnRZ9tl6/fh0vX75swdlLduHCBSQkJODNN99Eeno6u8L1+PHjCAwMVOjnPbNaS0NDg72XE/1zc/+XZx8coGHFGACJZd+aIu9+N40JhUJ2tRmzmkv0viE8PJydJCKpj01b+ueIlmXy9/fHiBEjxD7zRI/NfM62tjeO6HkCDSvXbGxsxK5tWwmFQvj7+0NLSwumpqaYOnUqRo0a1eb9ysrGxgYaGhrQ1dVVSgnX9iAvLw9nz55Feno6li9fDgMDA7nuv6qqComJibh48SIGDBiAiRMnyrzt8+fPER0djZqaGgwaNAgrV65Et27d6B6DEDmgpIEcaWtrw9XVFfHx8UhLS8OsWbNgamqKoqIiaGtrs7M+FOHFixdYtGgRrK2tIRAI2GP5+fnB0tKy2e1zc3OxYsUK2Nvbw8HBAffu3UNCQgI0NDQwePBgcDgcGBsbw8rKCtnZ2fj9999x9epVTJgwAbNmzYKNjQ0EAgE2bdqEffv24eXLl2I3w7IyNTWFtbU1+Hw+du7ciejoaMyfP19sxpu8qKmpwcfHB9evXwePx8PSpUvZvhBMzW9vb28MHTpU7seWla2tLUaOHMnO6rt27RqMjIxkbgjL4XAwZcoUXLp0CVlZWZg9ezbs7OygoaGBsrIy9O/fH+vWrVNqUsTJyQlOTk4IDAxERUWFQm8q2wt5N1Rzc3PD+vXrxW4KNm3ahA0bNihktYGFhQU+/vhj7Nq1i70ZF725aCs3NzeEh4e/cvNy9epVha424HA4eOedd7B3795mX6uuro6lS5ey7w2KZmJigrFjxyItLQ08Hg/Tpk2DhYUFnjx58kq5NGnGjh2LU6dOgcfjISgoCL1794aWlhYqKyuhq6uLnTt3ym1pPI/HQ0JCAsrKyjB9+nSprzMyMsL8+fMxf/58lJeXg8/no2/fvnKJgXQNzs7OmDhxIuLj42XqycOUi2sOM8NUdMClcf8ARWKSCMzvpKTm76KlLUQnDshSmqgtsTQ2efJkjB07Vm7HY0jrG9KeynipchtZ3/vbiyFDhih0/wMGDICuri4yMjLw9OlTmJqa4v79+zA2Noa+vj6ys7Px7NkzaGlpsSv0XF1doaamBktLS0RFRYmttuVwOPj6669x584dlJSUyPSd7fnz54iMjERxcTG8vb0xd+7cFn+nfvr0KTZu3IixY8eirq5Oaim/5ujr62PXrl3o378/iouLsWrVKty8eRM5OTkQCoXs6kNFEC1t1hpqamoyJxp2794tdT+iM+RjY2NbHY8oefS7kbfW9s9hREVFvXJOGzZskClJ3lxvnMY9I5jjyVttbS074ae0tBTfffcddu/ejdGjR8Pb25u9p1eUcePGYejQoeBwODJNfugM/vjjD0RFRcHFxUUhn0c5OTnYsmULBAIB+vXr16JtS0tL2bEnHx+fZvt5EkJkR0kDOfPy8kJKSgri4uJQXFyM7t27Y9OmTYiLixNbji5v7733HvT19REZGYmamhpwuVwEBgbC19dXppklGhoa0NLSYnsZAA09AJYsWcLeGOrr68Pf3x/p6ekoKChAVlYWqquroa+vj8WLF+Pp06d48uQJHjx4gOnTp8Pc3BzffPNNi87D0tIS/v7+CAkJQVVVFR49eqTQJpM9evTApk2bsHPnTly4cIEdEDQwMMCcOXMwY8YMhX7Jbo62tjaWLVuGiooKnD59mu1x8Nlnn+HGjRsyfUG3t7dHSEgIvv32W9y8eRNpaWkAGlbGeHl5qbS0ho6ODvr376+y44tiliu3hLa2NkJCQhASEsI+pqwlvZIGwhrHL+2cJG3b3Pnb29tLPS9J10Ha/qQt/W78uGgZJKYWeWlpqdT4WsvLywuJiYlsXXBJtLW18eGHHyq1PwaHw8GsWbNQUlKCw4cPo7i4GEKhEEuXLkVeXh5+++23ZvfR+P2NKcOgoaGBt99+W+6lyX766acWfUnX1dVV2soN0jEVFRXhwIEDCAgIYAfw7t69y36fkqXJMZMEkDV56+PjgzFjxrwy6KEoog2O4+Li2MEd0ZJzoqWHmJrbN2/eRGFh4SulhNpCdBUbE4tQKERkZKRC+tg0xsxcZ0ozkv/pSMkNZSU5rKys0LdvXyQnJ4PP58Pe3h6pqano378/DAwMEB8fj/T0dOjp6SErKwuOjo7sQJSWlhYKCgpw7do1/Pe//0VqaqrME3IYVVVVOHz4MHg8HmxtbTF37txWDR56enpi+PDhbS5F1adPH3Z1ub6+Pvr374+bN2/i6dOnqKysVMj9jLu7OyoqKpCWlgZ3d3fU1NSgtraW7WPG/Lm5/9fV1cm04hOATK+RF3n1u5G31vTPESW6gkB0pYPoZ5Asx5bUG0f0s4uZYCQpkdBWjccHmL9fuHABFy5cgLm5Od566y1MmjRJIZ8plZWVbA8npvqCUChkV1+LznIX7XnCPN74MQ6Hg6ysLDx79gw2NjYwNzeHmpoaKisr8eDBA1RVVcHBwUFsdj9zPKZXS11dHR4+fIjy8nLY2tqiR48eLXo/qaurg0AgYN8Lrays2DLXZWVl7LnV1tbi5cuXYj1i6uvrUVJSgqysLJSXl0NfXx8ODg5iM/0bx1tZWQk+nw8bGxtwOByUlJSwnxsVFRUoKioS600jTXl5ucRtmZ6fotcZaKiYYWZmJlaGTigUIjMzEyUlJdDX10efPn3Evi9K6ilTVlaGtLQ0sf4x9fX1yM3NxePHj1vUJ6fxtWG2kfS4aCyi10coFCInJwfPnz+HhobGK/9eZCW6f6DhPri5785N/Ww1NTVb/XvBrFrMz88X+70gykXfyuXMwMAAGzduxKeffor6+nr2l3v48OFiA2oAXhlkA6QPtDU3oKepqYmAgADMmjULVVVVLV6OZW1tjUOHDomVIpLUxMvT0xPHjh1jm4kxTbiYfghlZWXsUj0AmDlzZrPnLEpNTQ3e3t4YP348hEKhWKOv5kirEdncLEMLCwts27ZNYpM0UdIGO6XtX9bZjQxpP2NjY2OEhoaivLxc7Gc7depUfPnllzId87XXXsOPP/7I7kPaOXYFTJmdlsyUF515qmzMjKHmykV0ZDweD9nZ2WL/diMiItiBQVlqdbfF559/joCAADYp15idnR1Gjx7N/n327NlynVUkKekCNAyqr1y5EkuWLIFQKBT70rZy5Uqx10p7f2Le36TdyBDS3t26dUviLEXR+vzSCIVCNiEo2gOmMWkDGqI9ChTFzs4OAQEB2Lx5s8TZn/7+/mKfVaIlioCGlWzyatgpuopDUixEdTpiQiUlJQV9+vSBu7u7QvZvYGCAgQMHIjk5Genp6ejXrx8ePnyIGTNmoGfPnoiPj0dqairMzc3x5MkTTJ48mf0edfz4cWzZsgVVVVWwsrJC7969YWRkJLUXmyRPnjxBZmYmAKB///6t/j20traWy4C+kZER+9nOlIhTNDc3N9jZ2bV6dQSDSTY1lVhg/mxkZCRTXzd5a0u/G3lrTf8cUaKvs7Ozg5eXF6KiopCbm9tsydGmeuOIfuZOnDiRnRhiaGgIX19fsc/Y06dPo7y8XOYSVo3LXkmbSMQMdDIlx3799Vd4eHjIvefAyZMnXykfxTwGiK/ITk5OZhM7zOOij3355Zc4e/YsTp8+DQBsb5RevXph/fr17PU1MDBAaGgoW25UNIYVK1bgl19+YVeAaGhoYNGiRViwYIFM7wVZWVnYsmULEhMTxR4PDw+HsbGxWOnde/fuwdfXlz13ExMTrFmzBgkJCWLbNu6pIhpvUFAQ9u7di6ysLImry7dv347t27ezZbyasm/fPonbrl+/Hr169WKv8xdffIG//voLPB6PTQJWVlbit99+Q0REhFhPOy6Xi6VLl+L9998Hh8MR6ynD9I/Zs2cPe+/o5uaG4OBg/PHHH2K977y9vbF69epm7xvv3r2LJUuWoKamBj/88AM8PT1RX1+PyMhI/PzzzzA2Nsb3338PR0dHlJSU4OOPP0ZSUhLbT2Pfvn0IDw8XK+/I5XIRHBzc4pJ5mZmZ+Oyzz5CVlQU3Nzd8+eWXzb7fNfWzzc7ObvXvxb///stOaG7pv2kiPx3nm2c78/LlS/D5fACvNspVU1ODvr6+SuLS1dVt9WCWrHFrampKXLLO4XDkVttOloymvEk7r/aiLT9bee6DKEfj5dBM/4DOSlLPBOB/A2bMrANF2Lt3r9SEAdCwsofh7OwMd3d3mJmZKSyexuTxfqiM99QFCxYo9OdEuh7RcjyiZLmJBBr+3TMDJ4MGDWrRoF5ra1a3ho+Pj9iNLUNScrvxNfH09JTb77a2tjbbXJUZbJo4cSJmzZqFVatWKWW1Aek8XFxcMHr0aIXdE3E4HHh4eODXX3/FvXv30KNHDxQXF2PQoEHQ09ODsbEx+Hw+kpKSUFNTgwEDBkBTUxPFxcWIiYlBVVUVPvnkE7z//vtQV1dHbGxsi5IG9vb2GDduHDZs2ICTJ0/Czs6uVYMZHA5HbEBHtIecqLq6uk7XB4zBJMVkmdCgzEkPquh3I29MuTnRiUeyrNJrK2aVsDQxMTF4+vSpQmNgfl+uXbsGHo/HJl0VWTK6NbZu3YqBAwdi4sSJOHv2LKqqqhASEgIul4vXX38d9vb2SEhIQHFxMaKjo+Hi4iJ2P5+fn4/169fjtddeg6+vLy5cuICCggJERkbCzs6u2YSJUChEeHg4EhMTYW1tjTlz5kBfXx8XLlxgkzW9e/dGVVUVCgoKwOVyYWdnB2NjY2hoaLArhSZNmoRRo0ahvLwcf/zxB9LS0vDDDz9g06ZNYvFWVlbi559/FitRbGBggL59++LRo0eoqamBlZUVDA0NZRpbkrZt4xXi0dHRSEpKYv9eW1uL/fv348cffwTQMMly8ODBuHHjBtLT07Fjxw5069btlQmZzGqasWPH4s6dO0hPTwePx8Ps2bNhYmICPz8/XLp0CXl5eWySobkJcNbW1mwvu4yMDHh6eqK0tBSpqakAgMLCQty/fx+Ojo7Iz89Hbm4uLCws2H5WFRUVcHV1xRtvvAFzc3OcOnUKJ0+eZBMNDg4OzV5HoGHVxv79+5GVlQVbW1usXr1abEVGcyT9bFvriy++gKOjI3x8fHDixAlUVVUhNjYW48eP7xDvvZ0JJQ1aKDExEVu3bkVFRQVycnKgoaGBkSNHUraLkHZO2koUWbR01Yg0Ta1YaGoQrD0tiVYEY2NjtjwHQ3TmjqLk5OQgLCwM9+/fBwBMmjQJx48fZ5/X0dHB3LlzO3WyRl7c3Nzg5OSEZ8+eqToU0sm05b0bkPz+LUt5t7YeoyXl4QDpq4UkaeqaSNqPpGNKW+Ek6XEejweBQAALCwsYGxvLFCMhymBnZwc7Ozvk5ubizJkzsLe3Z2fuOzg44NGjRyguLoaxsTFbDrOgoID9rLK0tIS6ujrKy8tx/fr1Fh/f09MT06dPx88//4yDBw9i0KBB7Czg1uJyubCwsEBSUhL4fD4KCwthaWmJlJQU3L59u037Ji2n6n43iiYUChWycoNZtSAtcTB+/Hg8f/5c5hUmjf9fWVmJwsJCmeNhSv0ADSsPHzx40OK6+YryzjvvYMWKFVBXV8dPP/2EPXv2oKamBh999BHmzZuH6upqbN26FbGxseDz+Xjx4oXYIHxNTQ3mzJmDjz76iG3wvnz5cggEAiQkJGDMmDFNJttEeygNGzYMU6dOBYfDwYQJE9jXfP/99+yEtn79+olNqqitrcWuXbvEYurRoweWL1+Oe/fuIS8vT+x3pbCwEK6urtizZw8MDQ1RX18PNzc3jB49ml3RsHDhQpnvfefNmyd1W9HvQ7W1tThy5AhsbGxQW1uLx48fs71PZsyYgRUrVoDD4aC8vBxffPEFTp48iT///BMjR44US37r6+tj27Zt6N+/P7Kzs7Fs2TJkZWXBwsICO3bsQK9evTBp0iQsXboU5eXluH//frNJAyMjIzg5OSEtLQ33799HVVUVnj9/jsePH8PJyQmpqal48OABamtrIRAIkJeXhzfeeAM9e/Zkr4Genh6bgHZ2dsajR4+QlpaG1NRUmZMGp0+fRnx8PAwMDPD555+zSQlZSfrZtrT0H8PHx4f9mQwdOhRr166FQCBAfn5+p3jv7UgoadBCdXV1bF1oZtmSKhvlyqK8vBx///231Ky6o6OjQhrayUt+fj7i4uLYD/rGhg0bBldXVyVH1XLnzp1j+wk0ZmBggKlTp9IqAAWorKxU+EwWWXl4eODo0aNSnxeN87333sN7770n8TllaRyvomLQ0tJCeHi4xOcUdcyrV68iLCwMFRUVsLGxQWBgIBwcHFBbW8v2CjE2NoaXl5dCjk8IkaylJeSEQiFbuxloKOVGWkcoFCIiIgJz5sxhBwP4fD42bNgAAOxqDVpRRNoLExMTODo6Ij4+Hnl5eXj33XdhZGQEdXV12NnZ4fr168jLy8PQoUNhaWkJoGEwy8bGBgKBAJs2bcK+ffvw8uVLtolmS2hoaGD69Om4ffs2kpKSsHXrVmzfvr3FAy2itLW14erqivj4eKSlpWHWrFkwNTVla3S3t1nSXYWi+t0YGRnBxMRErC9AUVER29dLEY4cOYIxY8bA0NBQrE9QW1euaWtrw9zcHEDDigxfX1+4ubmBz+cjIiJC7LV+fn5ipVRa6vHjx/j444+bfA2XywWHw4GJiQlGjRqFx48f48qVKxg1alS7SRgADWWemQmoorO6BwwYADU1NXC5XAwYMACxsbEQCoViZXSAhvuVt956i92HlZUVWzYqMzMTFRUVTSYNtLW10atXL6SkpCA6Ohrp6emYPXs2hg8fDi0trWbj53A4qKurw7lz53D79m3cvXu32YFiHx8fpU9CmDhxImxtbQE0vHdnZGRAIBBAQ0MD48ePZ6+frq4uRo4ciZMnT+LBgwfIyckR68Eo2j9GT0+PTSg4ODiwPz9ra2v07t0bqampMn1n0tTUxIABA/DXX38hMzMTpaWlbHxvv/02cnNzce/ePZSVleHBgwcAGnrKMGNHurq6SElJwfXr15GcnIycnBy2V6es0tLSEBMTg5qaGkyfPl3mMs6NyetnK/p70bdvX/Ts2RN5eXm06lUFulTSQEtLC5WVlWyDk9ZwdXXF8ePHUVFR0eyyO0UzMDDA7t27UVdX12RDSw0NDTg5OUkddG/JkiNV0NXVxcCBA6V+sTA1NVVyRK1jY2MjNSmgpaXVoerUNsbUMpXli4WyteULKemcDh06hD/++AMAMGrUKCxZsoT9t/vBBx8gNzcXaWlpWL9+vSrDJIQQpcvNzcW4ceNeedzCwgKLFi2CtrY2JQ1Iu6GtrQ0XFxd20JMpQQQAgwcPZmtLu7u7s/d++vr6WLx4MZ4+fYonT57gwYMHmD59OszNzfHNN9+0OAZTU1N8+OGHWL16NbKysrB//36Zalg3xcvLCykpKYiLi0NxcTG6d++OTZs2IS4uTmqdeiJ/yuh3Izpgq6xeMikpKa+8z8vSJ0gW3t7eOHnyJAQCwSsl9+RJ2v2dlpYWNDU1YWxsjFGjRmHw4MFsTf19+/YpLJ62kKVnXeM+k6K0tLSkjgUxjemboq2tjcWLFyMvLw+JiYnsf/b29ti8ebPYgLkkPB4Pa9asQUFBAUxMTGBnZwd3d3d2ElZjPXv2lFsvppZonMxlvsuYmpqie/fuYs8xyS9mZYso0f4x0jAl11rCyckJpqamyM3NhUAgQGJiIuzs7PDGG2+Ax+PhyZMn4PP5yMrKgq6uLgYMGACgYXb/hg0bcPXqVbZ0lIuLC8rKypCfny/z8a9du8bue9CgQa2qpCLPn63o70VrrieRn46WoajgAAAgAElEQVQ7StkKFhYWePToEbKysuDi4tKqfXA4HHYZkKqpq6vLVOeNy+V2iJn40nTr1q3Vmc72xN7evk0zj9ozpm6dKr4AECKr0tJShIWFsSUIZs2aJbaagxEcHIwTJ05ITUhSIkoyui6kLYKCghAYGCj2WHM3ukDDd5wtW7Zgy5YtLd5WFkVFRVixYoXEmaUWFhb49ttvO80yaS6XK/E77rx587B06VK6YSPt0owZMzBjxoxXHh8/frzUkl+urq74888/UVZWBg0NDXaAf+bMmWKvk1TCS9Jjnp6eOHfunMwxSytfxjAwMMDGjRvx6aefor6+Ht26dQOHw8Hw4cNligdoe2k3WfB4PFy+fBl9+/Zt9b11RyPvfjfa2tr47LPPkJ2dzX7OMJNWpJU0bSt/f38AYBMU8mzubGdnh927d4s1zlXE+TRu+KqtrQ1jY2OMHj0agwcPZmeUK5O0CYAVFRUKPW5lZaXY6oPq6mp25ZSlpaVMk/psbW0RHh4OPp+PY8eO4ffff0dGRgZ+//13BAcHS01KVFVV4Z9//kFBQQFbFonL5YLH40lNGqhqALjxIDizMlVSyZvHjx8DaFjFoaenp5T4rKys4OzsjPPnz+PmzZtITU2Fo6Mj7Ozs8NprryEpKQmpqanIzMxE37592dUO165dw9WrV+Ho6Iivv/4alpaWbMKzJUmD//u//4O+vj5OnjyJ7du3Y8eOHejdu3eLzkHSz1ZVvxdEfrpU0mDgwIF49OgR9uzZg88++6zT3OQRokp8Ph979uwBALnNuiFE3u7evYuwsDDk5uaie/fuCAwMhLu7u8TXamhoYPLkyVL39ezZM2zduhUcDgfLly9v8RcqecjOzkavXr2UflxJLl26BHt7e+rtQ1qloKCgyUbk7UFzAx1PnjxRUiSKJ63nQmc6R6IcKSkpyMzMxIgRI9rl5B8OhyPT5CtVUVNTU1gTaXm5desW9u/fj+nTp7e7pEFr+pHJu9+NrJrqgdP4763tn1NUVCT2vCJ749jZ2SEuLk7ssd27dwMAevXqJZcVa9XV1TAwMECPHj0wZswYuLq6wtrauk37bCtmdjrQUOpl8ODBEAqFOHXqlEKPW1hYiH///Rd2dnbQ1NRkGz8DDSVzdHR0mty+qqoKZWVlMDIygr29PZYuXYqamhr89ttvKC0tRU1NDbhcLjv4m5eXh9zcXBgaGqK8vJwtg2NpaQlNTU3U1tbi2rVrLT4P0SbwDx8+RG1trULvLXr37g1bW1tkZWXh6NGjcHZ2Rrdu3fD8+XOcOHECANC/f392cF7RdHV12aTB6dOnUVhYiAkTJkBXV5ddOXfs2DEUFhZi7Nix7OdXZmYmAMDMzIz9zLh37x77eEuOv3DhQiQnJyMrKws///xzm1fNAar7vSDy06WSBjNmzMCVK1dw/fp1+Pn5wcjIiBpcEtIGRUVF7EwGExMTiTO9CFG148ePIzIyEkBDYiswMLBNZc3u3buHK1euAGhYCfXFF1+88hoej4e9e/fKtD9J/Rwab9/4Nb169cL27dtx7Ngx9OjRA0ZGRmzzK3kdQ5bzEAgEePr0KTw9PbFixYp2WaKMEEKI8t29exeHDx8Gl8ttl0kD0vExZXZaMlNeWskhZRAIBEhKSgLQULa2M+Lz+Th37hwWLFjAPhYbG8uuamhr3wSGmZkZvvzyS7ZXSXtgY2PDNq395ptv8Oeff6KkpEThyUkNDQ0cOnQIp06dgqamJjuI7+joiHfeeafZ7cvLy7Fy5UpwuVwMGjQIOTk5OHv2LICGkm9M0oFpppufn4+PPvoIdnZ2WLNmDRwcHJCSkoLvv/8ex44dQ2VlJdtsviWMjY1hZWWF7Oxs/P7777h69SomTJiADz/8sMX7koWVlRX8/f0REhKC48eP4/Lly7CyskJOTg6Ki4thYGCAOXPmQE9PD0KhUCExNDZo0CBoaGjg3r17YiWIrK2tYWxsjHv37gFoKL/HJFRee+01AA2TuPz9/aGlpQWBQPBK7wtZ9OnTB4sWLcKWLVsQFxcHCwsLBAQEtCl5o6rfCyI/XSppoKWlhe3bt+PgwYO4fPkyXrx40aqmV4SQ/9HW1sbrr7+OmTNn0oAhaXd+/PFH/PvvvwCAyZMnY/78+W3e54gRIxAcHIwrV66gf//+Eps1P3/+XGpZBFEDBgxodntprxk4cCAOHTqEkpIS8Pl8hRxD1vPo2bMn/f4TQghhdevWDQAkfrZ0dufOnUNaWprE5wwMDDB16tQ2z95sDywtLTFgwAA4OzurOpR2jc/ni5XrkVf/gPbqyJEjCAsLe+XxiRMnwsvLSy7HaI89DU1NTfHBBx9g8+bNKCgoQHZ2NqZPnw4PD49mmza39bjLli1DZGQkMjIyADQMKq9Zs0amstrq6urQ1dVFQkICbt26BaDhfeqDDz7AjBkz2ElJI0aMwNSpU/H333+juLgYz549g4aGBubMmYNHjx4hMTERaWlpGD9+PBYvXoy1a9e26Dz09fXh7++P9PR0FBQUICsrC9XV1S28GrJTU1PDO++8A3V1dezZswd5eXlso3kPDw8EBQXByclJYceXxNraGvb29khLSxMrQWRpaQkHBwdcv36dLVfEGDFiBGbNmoXDhw/j0aNHsLa2xrp16/DLL7+0ODmqpqaGCRMmIDExEXFxcTh8+DCGDBkCT0/PVp+Tqn4viPyoAahX5AGGDBkCoOHDo70pLCxEeXm5qsMgUjBLHYODg1UcCZFGV1cXxsbGqg6DkFdkZ2cjLCwMaWlpUFNTw5IlSyQ292yr0tJSibUu7969K/M+JN1sN96+qdesW7eOfUxNTQ319Q0f61ZWVnBxcYGLiwtGjhzZpmNIY2hoCGNj42aXPhNCCOlanj17hu+//x5BQUFSywF2VhkZGXj+/LnE57S0tODk5CS1RnhHUlNTg5ycHKUe08rKSmqNbGVqasWChYUFdu/ezZZCFk0ayLsnQmvi9ff3V1i/C2nXJTw8XGzFUU5OjtJ7Ye3btw/Hjh3DZ599hvfff79N+4qNjcXmzZtf+VkDDaWTysrKwOVyFZocbByDjY0NysrKoKamBj09vSZXIEtSXl6OqqoqqKurs31UGquvr0dpaSlqa2uhra3Nrhqpq6tDaWlpq48tirl+6urq0NPTU0r/A9HzUvTPTVHKy8tRU1Mj9Wenasr6vZDF9u3bcejQISxcuFCm1Tjtla+vLwDg9u3bCj2O6j9xVcjY2JgGPNuxvLw8AGg3dbsJIR3DlStXEBYWBqFQCFtbWwQGBqJv374KOZa05lhtnXUny/bMa1auXImwsDBUVlayCQOg4YasoKAAJ0+eRFhYGDw9PTF06FAMGzYMampqLToGIYQQ0hJmZmbYvHkzdHR0UFVVJTZIfvToURw9erTZfUyePFlijyHR7WV5jTKOwfT90NHRgZaWFrS0tNhz7kjnIesxKisrUVhY2Ow28vby5UulH1OaHTt2NPk806/HwMBArO9AbW2tSnr5iMaryONLuy6ixxT9vtrR1NbW4uHDhwAafrbMqiqGpqamSkpgt7VPi66ubrODudJ6rairq8ut3Iwqrl9H6CHTHFUPxDdHVb8XpO26dNKAEEJI53Lw4EHExMQAAEaPHo3AwEBoamqqOCrFev3113Hq1CmkpKS8chPG1OAUCoW4dOkS7ty5g127dsHe3h4bNmygkkKEEEIUqqKiAhUVFeBwOOyM0bS0NJlK3/Xr109iPwTR7WV5jaqP8fLlS+Tk5MDS0pL9ryOeB7N9XV0damtrm329IpSWlqrkuIQUFRVh/fr1yMvLY/sGeHh4wMTERMWREUKI4lDSgBBCSIdXUlKCsLAw3LhxAwAwZ84cvPvuuyqOSnk2bdqE2bNnN1lyr76+nq3VOXnyZEoYEEIIUZra2lp2oHnMmDFiNZmlMTMzk1jTWnR7WV6jqGOMHDkSDx48YAfcBw8ejPz8fOTm5oqVXklPT2dXIlRXV6N79+7o2bMnevbsibfffhtGRkZwdnZW2Xm09RiEdBUvX75Eeno6AGD8+PGYN29euywFI+rOnTtISEiQ+JyWlha8vb3bZY8IoKHkDtNDQRJHR0eMHTtWyVG1XEf+GeTn5yMuLg6VlZUSnx82bBhcXV2VHBVRJkoaEEII6dBSUlIQFhaGvLw8GBkZYcmSJRJn0nV2S5cuxfbt25td8u3u7o7hw4crKSpCCCFEnJmZGczMzBS6vaKPkZycjMjISGRnZwMAAgIC8Pbbb6O+vh4ffPDBKz0NRAdcXrx4gRcvXuD+/ftsAn/AgAEqOQ95HIOQrqB79+7YvXs38vLy0LNnT+jr67epdn9beXl5YcyYMWwPAmlMTU0xePBgic9paGi067I2GhoacHJykjpg3aNHDyVH1Dod+Wegq6uLgQMHSu1B0l6THUR+KGlACCGkwzp27Bj27dsHABg0aBACAwM7zBdIeRs2bBhGjx6NhIQEqV+ue/bsibVr1yo5MkIIIaTzOHz4MA4fPgwAeO211xAQEIDevXsDaKiN/eWXX2LZsmVsicCmVFZWws3NDY6OjgqNmZCujukx0toSV2pqajAwMJBb7f62Em1E3BQrKytYWVkpISL543K5nWIWe0f+GXTr1q3TTcZj3gNo1b1sKGlACCGkQ9qzZw9Onz4NAJgyZQr8/f1VHJHqLV++HPfv32cbyTemp6eHx48fw8bGRsmREUIIIR1bTk4OIiIikJycDADw9fXF7NmzX3ldjx49sGHDBqxZs0am/X744YdyjZMQ8ioLCwsA/2taTgjpmpj3AOY9gTRNXdUBEEIIIS3x5MkTfP755zh9+jTU1dURFBRECQMRCxculPi4rq4uMjIysHLlSsTHxys5KkIIIaTjOn36NFauXInk5GSYmZkhODhYYsKA4ejoiM8++4yd3SzNqFGjqJEqIUrg4OAAAIiLi0NsbKyKoyGEKFtdXR0OHDiApKQkGBgYwN7eXtUhdQi00oAQQkiHcfnyZYSFhaGyshJ2dnZYsmQJfeA34u7uDj8/Pxw9epQtU2Rra4uvvvoK+/btw5kzZxAeHo67d+9i0aJF6N69u4ojJoQQQtonoVCIiIgInDt3DkBD0+CAgACZalAPHz4cBQUF+P3331FRUSHxNXfv3sXJkyfh5eUl17gJIeJsbW3h6+uLI0eOYPPmzfjqq6/Qq1cvVYdFCFGCmpoasVVGM2bMkKm8F6GkASGEkA7it99+w59//gmg4aY9MDAQGhr0MSbJzJkzkZGRgcTERGhoaGDNmjXQ1tZGYGAgnJycsG/fPly5cgWpqalYuHAhRowYoeqQCSGEkHYlMTERERERyM3NBYfDQUBAACZMmNCifXh7e6OoqAjx8fEoLy8Xe65nz57Iy8vD3r17cebMGUybNg0eHh7yPAVCiIjZs2fDwsIC0dHRePbsGfh8vqpDIoQokY2NDWbMmIGhQ4eqOpQOQw1AvSIPMGTIEADAkSNHFHkY0oitrS0AoLa2VsWRtF5RUREAwNDQUMWRtB6HwwEAZGVlqTgSQjquly9fIiwsDLdu3QIAzJ07F1OnTlVxVO1fTU0NQkJC4OrqCh8fH7Hnnj17hsjISPaaTpo0CYsWLVJFmIQQQki7c/DgQcTExAAAXFxcEBAQAGtr61bvb+fOnbh58ybbHNnS0hLff/89Ll68iOjoaOTk5AAAPD09MW3aNFpFSYiCVVZWIj8/X9VhECUqLy/Hzp07AQDBwcEqjoYok5qaGnr27NmpJhz6+voCAG7fvq3Q41DSoJNikgakfaCkASGt89///hdhYWF49uwZjI2NsWTJEvZzhbRdbGwsfvnlFwANnxuLFi2Cs7OziqMihBBCVOPx48eIiIjA3bt3AQDTpk3DjBkz5LLv//znP3jw4AFqamrw6aefiq3y+/vvvxEdHc2WMZo4cSKmTZsGIyMjuRybEEK6utLSUsydOxd6enrYv3+/qsMhpE2UlTTgANioyAMwHamnT5+uyMOQRjry7PzO6OXLl6oOgZAOJy4uDjt37kRZWRkGDx6MtWvX0sw7Oevfvz+GDBmCrKwsZGZm4ty5c1BTU6PEASGEkC7n5MmT+Oqrr/Ds2TNYWlpixYoVeOutt+S2/7Fjx+L58+dQV1fHggULxJ7r378/3nrrLdTU1ODBgwdIT0/HiRMnoKamBicnJ7nFQAghXVVVVRX++usvcLlcvPvuu6oOh5A2OXz4MABAIBAo9DjqCt07Uandu3fDzc0NsbGxCj+WUChEcHAw3NzcsHv37lce4/F4Cjkuj8eDm5sb3Nzc4O3tDT6f36bzbum2RUVFmDdvntKuMyFdRVhYGH766ScAgI+PD9atWwcTExMVR9U5OTg4IDQ0lC35dOjQIWzcuBHZ2dkqjowQQghRvLKyMuzatQt79+5FXV0dxo0bhx07dsDV1VWux1FTU8OSJUsQEhIi8XkDAwMsWLAAO3bswIgRI1BdXY2DBw/io48+wtmzZ+UaCyGEEEJIcyhp0EkVFRWxtapv3LjB1s9UJoFAgKSkJADA1atX5b5/Ho+HxYsXiz1WUlLS6vNuD9eMkK7u8ePHWLVqFc6cOQMOh4Nly5Zh3rx5qg6rS5g7dy7Wrl2Lnj17Ijk5GStWrMDJkydVHRYhhBCiMLdu3cLKlStx8eJFaGlpYenSpQgMDASXy1XYMTU1NZt8vnfv3vj000/xn//8B/3790deXh6+//57BAcH486dOwqLixBCCCFEVOfpAkHEGBoawt3dHSkpKfD09IS2trbSY7CwsMCgQYMgEAjEanbKC5OIcHFxwbfffsuWZGrtebeHa0ZIV3bp0iWEhYWhqqoKffr0wZIlS9CnTx9Vh9WluLu7w9nZGZGRkTh37hz27t2L1NRULFy4EAYGBqoOjxBCCJGbAwcO4K+//gIAuLq6IiAggC2t2x4MGTIEQ4YMwenTpxETE4N79+5h8+bNGDlyJKZNmwYbGxtVh0gI6SLU1dWhq6ur6jDaRENDA1OmTIGWlhb09PRUHU6blZaWqjoE0gVQ0qATCwoKQlBQkMqOr62tjZCQEKlLcOWlV69eYgP8bTlvVV8zQrqqX3/9FUeOHAEAvPHGGwgMDASHw1FxVF2Tjo4OgoKC2OTBpUuXcPfuXSxatAjDhg1TdXiEEEJIm2RmZiIyMhL3798HAMyYMQPTpk1TcVTSjR8/HuPGjUNMTAyio6Nx5coVXLlyBZMnT8a0adM6xeAXIaT96wylYjds2KDqEOSirq6OkgZEKag8USclqcdA48eZ/4KDg2UuxcPn8+Ht7S22vbR+BZLq/Yv2IODxeGwPATc3N8ybNw9FRUUyxxAVFQUAiI+Px8iRIxEcHIyioqJXzrtxHKIxiB5THtcsNja2xedDSFdWVFSEkJAQNmEwb948LFu2jBIG7cCbb76JHTt2wM3NDYWFhdi2bRv27dun6rAIIYSQVjt27Bg+/fRT3L9/H9bW1ti8eXO7Thgw1NTUMG3aNPzwww/w8vICABw9ehQffvgh9VUjhBBCiEJQ0qALEQqF2LJlC+Lj41u1fWxsLPz8/OTWnXvx4sXswD8ApKSkYPv27QrtJXD69GmxPgjNHbMl1+z06dPYvHmzzPsmpKtLTk7G6tWrwePxYGJigvXr18PHx0fVYRER5ubmCA4Oxpw5cwA0DLZ88sknSE1NVXFkhBBCiOxevnyJr7/+mk1+T5gwATt27ICLi4uKI2sZExMTfPDBBwgNDYWHhwfKy8vxyy+/YNmyZbh06ZKqwyOEEEJIJ0JJgy5EtDFxeHg4eDweeDweQkJCmq3fz+fzERERAQCYOHEirly5Ah6Ph5iYGOjo6LQqHtH9rF+/HkDDqoG7d+82uZ2dnR3i4uLg7+8vth9ZzqO4uBhnzpwBj8djt09KSpKaCGnJNZO07+zsbEoaECLB0aNHsXHjRuTn52PIkCEIDQ2Fq6urqsMiUrz77rvYunUr+vbtCz6fj//85z+IiYlRdViEEEJIsxISErBy5UpcvXoVurq6WL58OT788MMOvarRwcEBa9aswerVq2Fvb4/s7Gzs3LkTGzdubPZeihBCWoupFKGMFU6SKkGIPiat4kVbNa4ekZeX16ZjtvSaMZUxvL29wefzW3w8QuSJkgZd1OLFi18pw9OU5ORkCAQCWFhYYNGiReyAuZ2dHZycnFoVg6+vL7ufMWPGsDN9srOzW7U/WY/JNExuaXPm5q6ZpH0XFBTgxYsXbYiYkM6lvr4e33//PX7++WcAwNSpU/Gf//wHxsbGKo6MNKdfv37Ytm0bpkyZAgA4ePAgNm3ahJycHBVHRgghhEj2888/Y9u2bXjx4gXc3NywY8cOjBkzRtVhyc3QoUOxfft2BAQEwMjICMnJyVi3bh2+++47ua0OJ4QQoKGs7K1btwAAN27cUMnkSNFJnVevXpX7/mNjY8WqRwBAXl5eq4/ZHq4ZIW1BSYMuxM7ODgEBAWKPRUVFtaj2vomJCYyMjNoci4WFRYcYJJTHNSOENHj06BFWrVqFs2fPQkNDA8uXL8fcuXNVHRZpIX9/f6xZswampqZISkrCypUrcerUKVWHRQghhLAePnyIVatW4ejRowCA2bNnIzg4GGZmZiqOTDHefvtt/PDDD3jvvfcAAOfPn0dgYCB+/fVXVFZWqjg6QkhnYGhoCHd3dwCAp6dns1UeFMHCwgKDBg0C0PJJoM0RCoW4ceMGgP9Vs/jll1/Qr1+/Vh+zPVwzQtqCkgZdjI+Pj1j5HKCh9n5GRoZM2ytq5vyLFy9QUFAg9/3KQ1uvGSEEuHjxIlavXo2MjAzY29tj27ZtnWqmX1fj4eGBnTt34o033kB1dTV++OEH7Nq1C6WlpaoOjRBCSBf3zz//YPXq1UhPT0fv3r0REhICX19fVYelcFwuF7NmzcKePXswduxYAMCRI0fw0Ucf4fjx4yqOjhDSGQQFBYHH46msD522tjZCQkLYEj6KYm5uzg7wt/WYqr5mhLQFJQ26qKCgIMTExMDCwkKm1w8cOBAWFhYQCASIjIxkl1Xx+fxWNcQUCASIi4tj/x4XF8eWPxo4cGCL96cMLb1mhJAGBw4cwK5du1BdXY0333wToaGh6N27t6rDIm2kq6uLZcuWYcmSJdDS0sLFixexYsUKXL9+XdWhEUII6YIKCwsRGhqKqKgoAMCkSZOwY8cOvPbaayqOTLnMzc0RFBSEL774AoMGDUJRUREiIyPxySefICEhQdXhEUI6KEk9Bho/zvwXHBwscykePp8Pb29vse2l9Q4oKirCvHnzxHoEMIP5zHZMDwGmJ4EsFSJ4PB5GjhyJ+Ph4AA3VJZjzbOqYTN8B0WNKuzatuWYVFRVir5O1vDgh8qKh6gCI8vD5fAQFBb1S39LFxQX29vZNbmtnZwcvLy9ERUUhPj6efTMFGhoEt0ZUVBT7pZ7h5eUFOzu7Vu1PEdpyzQjp6l68eIGwsDDcvn0bQENZG6YePuk8xo8fD2dnZ0RGRiIxMRGhoaGYPHky5s+fr+rQCCGEdBFXrlxBREQEiouLYWBggICAAIwcOVLVYamUk5MTNmzYgMuXLyM6Ohp8Ph/btm2Dm5sbpk2bhn79+qk6REJIBycUCrFlyxax8aGWkNRDoC0WL14s9veUlBRs374d69atU1hpoA0bNog1oI+KioKNjY3UlQUtuWZbt26VuO/Jkye3PXBCZEArDbq4iRMnYu/evWwD36YEBQW9kiBoS2+C0NBQtvkxAKxfvx5BQUGt2pcyteSaEdJV3blzB6tWrcLt27fRo0cPbNiwgRIGnZiFhQXWrVuH2bNnAwCOHj2KTz/9FPfv31dxZIQQQjq7yMhIfPPNNyguLsbQoUOxY8eOLp8wEPX666/j22+/hb+/P7p16wYej4fPP/8cP/zwA54/f67q8AghHZhoY+Lw8HDweDzweDyEhIQ0O0jP5/MREREB4H89BHg8HmJiYqCjo9OqeET3s379egBAfHy82MC7JG5ubrhy5QomTpwIoGGyG4/Ha3Z8SiAQwMPDAzweD2fOnGHHt5pqeizrNZO278ePH8twJQiRD1pp0EkxdddCQkLYx+zs7MRKArVGU0vFGh/P0NAQv/zyi9R9GRkZNfl8c4KCgl55E5d03tLikHQuLb1msu47Kyur+RMipJP4559/2FVEbm5uCAwMpCRbF+Hr6wsnJydERkYiMzMTa9euxaxZs9jGjIQQQoi83Lt3D5GRkeDz+QBoRWNzpkyZgnHjxiE6Ohr//PMPTp06hbNnz8LPzw/Tpk2DujrNJySEtB4zy9/f31+myaDJyclsiepFixaxA+ZM5QlZyxuJ8vX1ZfczZswYuLi4ICUlBdnZ2QrpgWBhYQFvb28A/2t6nJKSIvP2TV0zafvOzc1t1bUhpDXomwEhhBC5qKurw+7du9mEga+vL4KDgylh0MX0798fX3/9Nbts9rfffsOWLVteKfNGCCGEtNaRI0cQHBwMPp+Pvn37IjQ0lBIGMujWrRv8/f3x7bff4vXXX0dtbS0OHz6Mjz76CKdOnVJ1eISQDsbOzg4BAQFij0VFRcncSwAATExMYGRk1OZY2lIFQ5nkcc0IURZKGhBCCGkzPp+PVatW4dy5c+Byufj444/ZUjWka5o/fz5Wr16NHj16IDExEStWrMDp06dVHRYhhJAO7NmzZ/jyyy/x66+/AgAmT56Mbdu2wcHBQcWRdSzW1tZYuXIlNmzYACcnJ+Tn5+OHH37AmjVrpK4qJ4QQSXx8fMDj8eDv788+lpKSgoyMDJm2LygowIsXL+Qe14sXL1BQUCD3/cpDW68ZIcpCSQMCQHLH+pZ2nJcn0e7zjf9jOtYTQtqH8+fPY9WqVcjMzGRn+40ePVrVYZF2gKktPXr0aFRVVWHPnj349ttvUVZWpurQCCGEdDAXLlzAJ598glu3bsHIyAirVi2nAPsAACAASURBVK3C/PnzVR1WhzZo0CB88cUXCAoKgrm5OdLS0hASEoLt27ezZZ8IIUQWQUFBiImJgYWFhUyvHzhwICwsLCAQCBAZGcmW3OHz+UhNTW3x8QUCgVhp6bi4OLb80cCBA1u8P2Vo6TUjRNmop0EnlZ2d3aLXa2pq4scff5T6fGlpKUpLS9saFnr27Ck26C8a565du5CcnMz+3cTE5JXtBw4cCDc3txafHyFEMfbv34+///4bADBu3DgEBgaqOCLS3ujp6eHjjz+Gs7MzIiMjceHCBaSmpmLRokXw8PBQdXiEEELaudraWkRERODff/8FAIwYMQIBAQHo3r27iiPrPMaOHYuxY8fizz//RHR0NK5du4Zr165h0qRJmDZtGl1rQohEfD4fQUFBr5QhdXFxgb29fZPb2tnZwcvLC1FRUYiPj0d8fDz7XHh4eKviiYqKYkvlMry8vNg+Ce1Bc9eMVhuQ9oSSBp1UbW2tqkNoMQ8PD9y4cUPqDNRu3brBw8OjQ54bIZ1NYWEhwsLCkJiYCABYsGAB26iJEEneeustODk5Yd++fbhz5w6++uorTJkyRWxZLiGEECIqJSUFERERePLkCQBg4cKFeOedd1QcVef13nvvsc2ST5w4gePHj7PNkn19fVUdHiGkA5g4cSLWrVvHNiRuSlBQEEaMGME2BAba1psgNDQUBw4cYJsRr1+/Hj4+Pq3alzK15JoRokxqAOoVeYAhQ4YAaGhWRUhzZsyYgcrKSonPaWlp4ffff1dyRISQxhITExEWFobCwkKYmZlhyZIl7XbJJ2mfYmJicPDgQQCAvb09Fi1aBEdHRxVHRQghpD2Jjo5mv/s7OjoiICAAffr0UXFUXUdmZiaio6Nx/fp1AIClpSX8/PzwxhtvqDgyQoiyqaurw9raWtVhSMTj8dikQ3h4ONzc3FQckeLV1dWxyXTSNTGJ/Nu3byv0OLTSgLQrI0aMwLlz56Q+RwhRrb///hv79+8HALi7uyMwMJCWrJMW8/PzY8sVZWRkYM2aNZgzZw7effddVYdGCCFExQQCASIiInDnzh0AwNSpUzF37lwVR9X19OnTB6tXr8atW7cQHR2Nhw8f4rvvvmNXHtCEEUIIIaRzo6QBaVfGjh2L69evo7y8XOxxXV1djB07VkVREUJqamqwZ88enD9/HkDD8vVZs2apOCrSkb322mv45ptv8NNPPyEuLg4HDhzA3bt3sWjRIpibm6s6PEIIISpw9uxZREREoLKyEqampggICIC7u7uqw+rS3N3d4e7ujn///RfR0dFISUlBSkoKRo8eDT8/P/Tq1UvVIRJCCCFEAShpQNoVFxcXcLncV5IGXC4XLi4uKoqKkK4tMzMTYWFh4PP50NLSwpIlSzBq1ChVh0U6iQULFsDJyQmRkZG4ffs2Vq5ciYULF2LcuHGqDo0QQoiSVFVVISIiAmfOnAEAjB49GgEBAejWrZuKIyOMCRMmsP0OoqOjcfHiRVy8eBFTp06Fn58fdHV1VR0iIUTBSktLZX7t8ePHERoaKvG5mTNn4oMPPpBLTBUVFWJ/Fo2xtrYWFy9eRH19PU6fPo0rV65I3Mfq1asxadIkucSjDPR+S5SFehqQdufAgQP4559/2IbHHA4HU6ZMwZw5c1QcGSFdz7lz5xAWFoa6ujo4ODggMDAQNjY2qg6LdEIlJSWIjIzEpUuXADSsPFu0aBF0dHRUHBkhhBBFSkpKQkREBJ4+fQp1dXUEBATAy8tL1WGRJuTn5yM6OhqnT58GAOjr68PPzw+TJ09WcWSEECIuJCQEPB7vlcdpnIl0ZMrqacABsFGRB7CwsAAATJ8+XZGHIZ1I9+7dcf78edTU1ABoaIC8YMECGBoaqjgyQrqWqKgoHDhwAPX19Rg/fjzWrl1L/QuIwmhpaWH48OEwNDREUlISMjMzcfnyZZibm8PS0lLV4RFCCFGAQ4cOYc+ePSgpKYGzszPWrl3bJZpYdnTdunWDh4cHXF1d8eLFC2RlZeHOnTtISEiAvr4+TTAhhLQbXC4Xd+7cQXV1tdjjWlpamD9/PoyMjFQUGSGtd/jwYQANfaAUiZIGpN0xNDTEuXPnUFJSAgAwMzPDzJkzVRwVIV3H8+fP8fXXX+PChQsAgIULF1L/AqI0ffv2xfDhw5GTk4PMzExcunQJQqEQrq6uqg6NEEKInDx58gQ7duzAuXPnAAB+fn5Yvnw5TU7oYHr06IHRo0fDxsYGT58+RVZWFq5du4YHDx7AzMwMpqamqg6RENLF9erVCzExMeykVIaZmRnd45IOi5IGpEurrq7G/fv38f/Yu/e4Juv+f+AvzohyEERYgohoHiDUptwplgcsSFEMWXlIpRpaIvb1XHlGMQ+ptyJUsgwP3Wozb0k0LKksMRWnoqCpIKLiNAQRFQdy+P3B77rubWywjY1rsPfz8ejxyDGu673PdRjX5/B+W1paIiwsDD179uQ6JEJMwrlz57B69WrcvHkTbm5uWLBgAQYPHsx1WMTEODg4YOjQoTA3N0d2djauXr2Kc+fOoUuXLnBxceE6PEIIIU3w888/Y82aNbh37x7c3d0xe/ZsvPHGG1yHRZrA09MTwcHBaNeuHfLy8lBQUIBff/0VDx48QJcuXag2BSGEU3fv3sXNmzfZf9vY2FA/E2nRmmvQwGQLIRcVFeHevXt4+vQp16EQFdq0acOOBLdp0wanTp3iOCKiStu2beHu7k6ziFqJ//73v9i1axcAYMCAAYiOjoaDgwPHURFTJhAI0Lt3b3zzzTe4fv06Fi5ciClTpmDs2LFch0YIIURL5eXlSEpKYlcyDhs2DFFRUbC1teU4MqIvo0aNYosl//e//0V6ejrS09MhEAggEAhgaWmy3Q+EEA4NGzYMp0+fRnl5OQCgpqYGgwYN4jgqQoyfyRVCvnLlCvbs2YPs7GyuQyGk1fDz88OECRPQq1cvrkMhOnj+/DkSEhLwxx9/AKhLEUApwYixEYlEOHLkCACgf//++OCDD+Dm5sZxVIQQQjQhkUiQlJSEf/75B1ZWVoiKisKIESO4DosY0N27dyEWi9lBImdnZwgEAipyTQjhxHvvvYdHjx4BALp37461a9dyHBEhumuuQsgmNWhQVFSE6OhoVFVVwdXVFZ6enlRc14iVlJQAqPsDkxin0tJS3L59G0VFRbC0tERCQgKtOmhhcnNzkZiYiJs3b8LW1hbR0dEIDAzkOixCVPrrr78gEonw8OFDtGnTBkKhEMOGDeM6LEIIIQ3YvXs3+yzo7++PqKgodOrUieOoSHPJzs6GWCzGpUuXANTVLhIIBBgwYADHkRFCTMmuXbvw448/wsbGBpGRkTRwTVq05ho0MKn1gXv27EFVVRVCQkKwfPlyWFlZcR0SIS3e8+fPsXz5cqSlpWHPnj2YNWsW1yERDf36669ISEhAbW0tevTogRkzZsDT05PrsAhRa+DAgejduzdEIhEyMjIQHx+PnJwcCIVCSm9BCCFG5ubNm0hKSsKVK1cA1NW4ozp3psfPzw9+fn74448/IBaLkZubi88//xwBAQEQCATw8fHhOkRiYsrLyyGVSlFUVMR1KKQZOTo6wtzcHOXl5bC2tqYU2CbEzMwM7u7ueOGFF6gfWEsmtdJg1qxZuHPnDvbu3Yvu3btzHQ4hrcb169cxfvx4eHh4YMuWLVyHQzTw7bff4tChQwCA119/HR999BHHERGinbS0NIhEItTU1MDd3R0ffPAB+Hw+12ERQggB8NNPPyEpKQkA4OHhAaFQCH9/f46jIsbg4MGDEIvFePbsGQAgJCQEAoEA7du35zgyYgrkVz4RQkyLtbU1JkyYgLCwMK5DaTJKT2QAAoEA1dXVyMjIoBmJhOiRTCZDYGAgLCwsIBaLuQ6HNKCoqAgJCQm4ePEiAEAoFGLkyJEcR0WIbm7fvg2RSMSmPHjrrbcwefJkjqMihBDT9fjxYyQlJeHEiRMA6iYmCIVCmtlHFDx+/BhisRipqakAACsrKwgEAkRERHAcGWnNEhISkJ6eDqAupz2tsDY9paWlqKqqQocOHbgOhTSjqqoq3L59G/n5+QCACRMmQCAQcBxV09CggQEwjSqRSDiOhJDWh5nhawzXOlFNIpEgISEBpaWlcHd3R3R0NHx9fbkOi5Am27dvH/bt2wcAePHFFyEUCtGtWzeOoyKEENNy5swZJCUlobi4GG3atEFUVBSGDh3KdVjEiBUUFEAsFuPkyZMAADc3NwgEAgwfPpzjyEhrc+XKFSxatAgAkJSUxPZTEUJMx2+//YZ58+YBAEQiUYuun0o1DQghxEBMsQD61atXUVpaikmTJqFTp054+eWXYW1tzXVYAIDKykqUl5dzHQZpwd555x34+vpCJBLh2rVrWLBgASIjIzFmzBiuQyOEEJOwY8cOpKSkAKibNBYVFQU3NzeOoyLGzsvLC/PmzcP58+chFovx999/Y+vWrUhPT4dAIEDfvn25DpG0EgUFBQDqVqXSgAEhpmnYsGHo378/zp49i9u3b7foQYPmQoMGhBCTY2VlBTs7O67DaFYBAQEICAjgOgyVqAgZ0Qc/Pz9s2rQJIpEIP/30E5KTk9kiya6urlyHRwghrVJeXh6SkpJw7do1AMCkSZMwbtw4jqMiLU2/fv3Qr18/pKenQywW48qVK4iNjUVgYCAEAgE6d+7MdYikhZNKpQBAKYkIMXGenp44e/YspFIp+vTpw3U4Ro8GDZqgsrISmZmZKCsrw9ChQ9GmTRuuQ2qSCxcu4NSpU7CxsUFoaGiL62Spra3F1atX8f333yM3NxcDBgzAhx9+2GJyqD579gx//PEH2rdvDz6fDwsLC7XvLSgowE8//QQAePPNN+Hl5aXyNUIIMSVmZmaIiopC7969IRKJkJmZyQ4cUIoMQgjRr9TUVGzfvh1A3Yxx5v5LiK6CgoIQFBQEsVgMsViMjIwMZGRkYPTo0RAIBGjXrh3XIZIWqqamBgBgY2PDcSSEEC4x94Dq6mqOI2kZzLkOoCX7448/MGvWLCxevBh79uzhOpwmKygoQFJSEn744Qc8efKE63C0Ultbi0OHDmHq1KlISUlBTk4O7t2716JuBHv27MFnn32GmJgYnD59usH3PnjwAElJSUhKSsKDBw/UvkbUk0gk4PP5WLRoEWQyWbPtLzQ0lC3AY+gYSktLMXXqVPD5fPD5fKSkpDRpn9r+rkwmw6JFi8Dn8xEfH6/rxyBEa4GBgdi0aRMGDRqE8vJybNmyBYmJiaioqOA6NEIIafEePnyI9evXswMGISEh2LhxIw0YEL0RCAT46quvEBwcDAA4dOgQPvzwQzYFFiGEEEIMjwYNmsDNzQ0ODg6wtLREx44duQ7HpD148ABisRhVVVXo06cPduzYAaFQ2GJWGQBAx44dYWlpCTs7O5PMud/cmIJrWVlZ7HLV1hRDaWkpPv74Y2RnZ+ttn8bQZoRoysnJCfPmzYNQKISZmRmOHTuGOXPm4Pz581yHRgghLdbJkycxd+5c/PXXX2jXrh1mz56NadOmwczMjOvQSCvj7OyM6dOnY926dRgwYADKy8uxY8cOzJo1C3/++SfX4RFCCCGtHg0aNMFLL72Ew4cP49ixYxg1ahTX4Zi0J0+e4OHDhwCAsLAw+Pn5wdvbu8EUP8Zm1KhROHbsGA4fPkwztZrBoEGDAAB9+vQBj8drdTHk5eWxAwbbtm2DRCJBWFhYk/ZpDG1GiLZGjhyJjRs3wtfXF1KpFCtXrsTu3bu5DosQQlqcb775Bl988QVKS0sxYMAAbNy4Ea+++irXYZFWrlu3bvj000/xySefwMfHB3fu3MGmTZuwfPly5OTkcB0eIYQQ0mpRTYMmeP78OSorKwEAVVVVsLKyQnV1NZ4+fYqamhpYW1uzxVZramrw5MkThddVvVZcXIz8/Hy0a9cO3bt3h4WFBWpqalBQUIB//vkHHh4e4PF4MDc3Z2N4+vQpAKBt27YwNzdHQUEBioqK6r23KWpra1FaWoobN26gqqoKnTp1Ao/HU9kpr8l7lT97mzZt8ODBAxQUFMDOzg7du3fXeJVAeXk5Hj9+zOYpfPbsGUpLS2FrawsLCwuF9gGA69evo2PHjujQoQO7DZlMhhs3buDx48ewt7dH165dYWtrqzZeXY5VYyoqKlBdXY3a2lpUV1crtFdFRQWuXbuGiooKeHt7a7Q9eTU1NZBKpbhz5w7s7Ozg4+NjcoWAlfH5fEgkklYfA4/Hg7Ozs172aQxtRoguvLy8sHLlSuzduxfff/89Dhw4gMuXL0MoFKJr165ch0cIIUbt6tWrSEpKwo0bNwAAU6ZMwdixYzmOipiagIAABAQEIC0tDWKxGBcvXsTFixcxdOhQCAQCmtBCmtXdu3dx4sQJ8Pl8dO3atUWvtiovL8fBgwdRVlaGHj16YNiwYVyHpLXCwkLs27cPFy5cgLe3N+bPn081UP4/Vce3NRxz0jxo0KAJLl68iGnTpgGom8nL5/Nx69YtxMTEQCqVIjIyEjExMQCAsrIyNlUI87r8a5MmTYKbmxu2bt3KDkSEhoYiKioKmzZtwu+//87uNyoqClFRUbCwsFCIYfXq1fj5558V3jt27FjMnTu3SR3EUqkUX3zxhcJ2gbqq48uXL0ffvn21fq/yZ3d1dcXWrVtRVVUFAPDx8cGaNWs06sz55ptvkJyczP57/fr1WL9+PZYuXQoPDw+2fVatWoX//ve/kEgkWLp0KcLCwlBRUYHvvvsOSUlJbLsDgLW1NWbOnInx48fDwsJCL8eqMUePHkVsbCx4PB7i4+Ph7e2N2tpa/Pnnn1i1ahWKi4sBAA4ODggKCmp0ewxVx8TFxQXz5s3D66+/3qL/wGmKlJQUxMbGws/PD5s3b2ZTQsXHxyucT8o/b4zy74eEhGDJkiUaxWBra4uVK1ciLS0NISEhmDRpEhYsWMCmAmLO24bIZDJ2G0Dd8Y+IiGDPq4sXL6rdZ2RkJEJDQ9l7mPy5qEubyQ+8AXU1EZjrUXnbLZ0+BmeJ4U2cOBF9+/bF7t27UVhYiJUrV2LixIlszmRC1GEmJhgbuvcQQzty5Aj27dsHoG6l4eTJk9GtWzeOoyLNxRjvfSEhIWyx5P379+P333/H77//jvDwcAgEAip0Swzu8ePHWLVqFU6fPg1vb29s3rwZnTp14josnVVWVuLo0aNsX1VL60A+c+YMFi5ciLKyMgCAmZkZ269EVB/fln7MSfOhQQMj8cMPP8DT0xNjxozBn3/+ifv37yM1NRW//vorunbtirFjx+LXX39FWVkZDh48iKCgIHTv3l1hG6tWrcILL7yAiIgIZGZmoqCgAAcPHoSnpyemTp2qU+dwSUkJVqxYgczMTFhbW2PQoEHo0KEDfv75Z9y+fRuLFy/G5s2b4ePjo9V7lT+7jY0NQkNDcefOHVy4cAF5eXnYsGEDPv/8czg4ODQYo4ODA7p164abN2+yKxucnJzYlQUMsViMrKws9t/V1dXYuXMnvvrqKwBAr1690K9fP5w5cwa5ubnYuHEj2rZtW6+TVh/HSlNXr17F6tWrUVxcDAcHBwwfPhx37tzBoUOHNPp9+WPSr18/TJgwAdeuXcPOnTvx+eefg8fj4aWXXtIpttZIufNbG+pqCOgqLS2N7fhnxMbGwsPDA3w+Xy/7UJaZmYmjR4+ygxRSqRTLly9vcNBE0zZjts2Q33Zr4OHhYbIDcC2Np6cnDRIQrd26dQu1tbVch1EPj8eDpSX9OU8MZ/r06Zg+fTrXYRCOFBYWGmXnm5WVFSZOnMgOHvz66684cOAA0tPTIRAIMHLkSK5DJK2YjY0NPDw8cPr0aXTo0AFt2rThOiSTVV5eDrFYjLKyMnh5eWH+/Pno2LGjyWdVIERf6CnDSHh5eWHTpk1wc3PDyJEjMXPmTJSXl8Pf35/tOA8ICMBnn32GoqIiFBQU1OuIfvXVV7F48WLY2dmhqKgICxcuRFZWFs6cOYNx48bB3t5e67j+/PNPZGZmwtLSEuvXr8fgwYMBAG+//TY+/vhjSKVS/Pjjj2xBKk3fK699+/bsYEJ1dTW+/PJLfPvtt7h48SJu3boFPz+/BmOcOnUqXnvtNXZ29AcffMB29MunUqmursaBAwfQuXNnVFdX49atW0hJSQEATJgwAbNnz4aFhQXKy8uxatUqHD16FD/88AMCAwMVUiXp41hpora2FseOHUNRURFcXV3x73//Gz179kRNTQ2Sk5ORkJDQ6DYyMzORmZkJLy8vLF++HB4eHnj11VdRVFSElJQUHD9+HH5+ftTZibpO/7NnzwLQbEa/sl27dinUEGA69o8dO6ZzTMx25AckDhw4AF9f33qz+Bm2traIi4tDeHg4pk2bVm9G/8WLF9Xur6SkhH0vs6ogOzsbeXl5KgcqGmszmUzW4LaLi4vx8OFDWjpKCCGEEEK05ubmhpkzZ7KDBxcuXIBIJGIHD1555RWuQyStkLW1NRYuXIiZM2eiTZs2GqdVJvpXWVmJf/75BwAwbNgwDBw4kOOICGldaNDASPTu3ZvNO+7g4ABHR0eUl5ejZ8+e7Ez7bt26wc3NDffv32fz9MsbOXIkO6Lq6uqKfv36ISsrC4WFhSgpKdF60OD58+e4dOkSAMDX1xf+/v7szzw9PcHn85GamopLly7h0aNHGr9XOfYhQ4agS5cuAAALCwsMHDgQ3377LcrLy1FQUNDooIGmQkJC4OXlBQCwtLREXl4epFIpLC0tMWLECDaFkJ2dHQIDA3H06FFcu3YNhYWFbHyAfo6VJp49e4b8/HwAQL9+/djYzc3NERgYiD179qCkpETt71dXV7MdxJaWljh48CA7G/HmzZsA6mZ7V1RUqO2ANlWxsbGIjY1lUws11j7yneeRkZEKHewjRozQKYaQkBD4+voCAJycnBAeHo7s7GzcuXMHMpnMIMcsODiYHVzw9/cHj8djVx00prE2U7ftkpISGjQghBBCCGllrK2tm21fffr0QZ8+fXDhwgX88ssvkEqlOHjwIK5du4bXX3+dfY4yZTU1NUa5aqQlqq2tRXl5OWpqaiCTyWBpaYna2lq2BqKFhQXatWsHMzMz9nWmZiHz3KP82tOnT3H16lVYW1vjxRdfhI2NDWpra3Hv3j3cunULrq6u8PLyYvss9FkjsjGN1X+U9/z5c9y6dQsPHjyAnZ0dunTpotAPpao9Hj9+jOvXr8Pa2lqr2osymQyPHj1CdXU1++/S0lK2PeT307ZtWxQXF6OoqAg9evRg27GxeJntymQymJubK9TJfPLkCby9veHi4gKg7pgyx1DTz6Fco5Q5ZupeLy8vR2VlpcI59vz5c9y/fx+FhYWwsLCAl5cXOnTooNPEUOazAlDYhzrK56GtrS2kUinKy8vRtWtXtt6rLteE/HnBXBOk+dGggZFwdHRs9KZubm7eYO5adcviqqurdcpHWV1djWfPngGoW/4u/4eftbU1W0i4uroaz58/1/i9yrEwBYtV0ecfNsppkZibsKurKxwdHRV+5u7uzu6f+RJi6ONYaaKyshIPHjwAALzwwgsKx9fa2rrRm+bz589RWloKAMjLy0NeXl6T4mntnJycMGvWLDbnPlCXIigrK0ur3PudO3fWSzzu7u5GP5jTWJtRQTrDYmpEaDq41ZLk5+cjJiYGLi4uWtUUaSnU1QdRxqT/0mX1k7bk66EwtZfkX5NfQaVPTFsAdfVQ1q1bhy1btui0T13iZa6j1lZnheiXqutDfhVgc1yjujKmODWNpbm/A1TdBwz9Hauc1lK+Fpsu+9S2zVSd0/rm6OjY7ClCeDwe3nzzzWbdZ0tRVFREgwZ6UlFRgTVr1rB16JYsWQKZTMZe0/LXsKr3AmBfCw4ORkBAABITE9kahnw+H4sWLcL333+PvXv3svsNDQ3FwoULYWdnp9cakQ19Tk3qPwJ1/TxHjhxBfHw8+zmAusmL77zzDj788EPY2dkptAfz2Tdv3szWI3BxccGqVasQEBDQaHxMTUjG3r17sXfvXkRGRiIqKkphP/7+/ti0aRN69uyJzZs3w97eXqN45ffD4/Ewe/Zs7NmzB+fPnwdQN4l0zZo1KC0txZo1a9jP4eXlhfXr19frg1J2584dNmPG4sWL8dZbbwGoqyfEfLbNmzdj8ODBqKysxNq1a5Gamoro6Gi8//77OHr0KJYvX65wfCwtLSEUCvH+++9rVFuTUV5ezm7fwcEBa9eubfQ4KJ+HdnZ2SEpKQkhICGbNmoUFCxbofE3Inxf6OJ+Jbqh6mp6Zm5urvDArKyvx/Plzg+6b6bQH6jqMHz16BKAu/Y9yp7gmrKys2D84b926hfLycoV93b17FwDQoUMH2NnZafxe5VknMplMoWP+4cOH7P/rs9NR+bgwI8JSqRRFRUUKP7t16xYAwNnZmbNZ0PLn0t27dxWOb0lJSb2YlVlYWLADDUOHDsXhw4eRnp6u8N8nn3xCI7Zy+Hw+WyibIZVKG0zpo4w5d/TNUNttKn20WWshk8mwaNEi8Pl88Pl8hIaGsquFSktLMXXqVPZnzMMAM5ND+efqfhYfH8/u7+TJkwCArKwsjVeEtBQXL16EVCpl02OZIvkVTGfOnFFI99VcpFIpWwuIOd/0SX7AgHH//n2d92noeI1Vfn4+QkNDVd4/UlJSFO47zD2bIZFIFH7GpG3UFPP78tvUF+beJ3/fI6bBGL4DDPkdq64OVlP2aQxtRgjR3vHjx7F9+3YMGzaMLTIvkUjw7rvvIiMjAxEREXBzcwNQNznrwoUL9bbxww8/4Ntvv0VoaCj69+/PZlXYsGED2+mqLab+Y0JCAiorK9GrVy9MnDgR3bp1Q2VlJTZu3IhDhw6x9Z5++uknrFq1CsXFxfDy8sI777yDfv36oaqqCt999x22b99ebzLm8ePHsWHDBgwaNAhDhw6FtbU1DhBeAQAAIABJREFUiouL8cUXX+DOnTuNxti2bVv06NGD7V9ycXGBr69vvZqYTE1H+UEzXeItKirCqlWr4ObmhsGDB8PS0hJlZWWYM2cOVq1ahWHDhqFfv34AgIKCAvz444/1tqHMzc0NPXr0AADk5uayE3KZLB4AcOHCBXZ2/o0bN2BpaYk+ffoAqHv+9PHxwcyZM7Fx40a8/fbbAACRSITTp0832oYMJjV2WloaLC0tMXv2bAwYMEDj3weA06dP4+DBg1r9jirHjx/Hli1bMHz4cDbrSF5eHo4cOWKU9cVaOxo00DNHR0e28/zmzZsoKytDbW0tTp06ZfA/4A4fPszOns/OzsaJEycAAD169NCpnoGFhQWbZujatWv4448/2FUCly5dwqlTpwDULQe1t7fX+L3KM06OHz+O3NxcAHWd4T/++CMAwNvbG506ddI6bk116dKFXap66NAhtu0ePHiAn376CQDQs2dPg8bQkLZt26JXr14AgFOnTrFfHE+fPsXBgwcbnSliZWXFfgGdO3cOt27dgpOTE/uftbU17OzsqJ6BCmFhYUhPT9c4NZaTkxP69+8PAEhOTlboPDl27JhOnX1Hjx5lO5zz8/PZIsL9+/c3ylnX2raZKVHXOZCWloaVK1dqdX7Ir2QZNGgQgLr7amtb1cGksPLz82t0hk5rJX9fCQgI4GQlCY/HYx9KmPNNX2QyGc6cOQOgLh1bRkYGduzYgRdffFHnfRoy3pZI1aAMAEybNk0vnfzMTGxDUHffJKbBGL4DDPkdm5eXp1AHSyKRICwsrEn7NIY2I4Roz97eHuvWrcOnn36KDRs2sP0TPB4PW7duxaefforPP/8cdnZ2qKqqwt9//11vG+3bt0dSUhKWLFmCxMRETJ48GQDYGpG6UK7/uGPHDsydOxfffvstgoODAdQNVjx48AAPHz7EDz/8gKqqKgwdOhQ7d+7EggUL8PXXX+O9994DAKSmpuLGjRsK+zA3N8e6desQFxeHL774AgsXLgRQd49U9TmVjRgxAomJiXjxxRcBAKNHj8bOnTsxdepUhffl5+djypQp+Ouvv9jBAF3iraqqwvTp07Fq1SqsX78eo0aNYl9ftmwZli5dio0bN7Kd7devX1eYTKuKnZ0dm5L4ypUrePr0KZ48eYK8vDx4eXnB2dkZ+fn5ePbsGYqKinDv3j34+PjA09MTABAUFISdO3fivffew5AhQxATE4PBgwejqqpKq7/1bty4geTkZFRVVeG9997DqFGjtO4nunv3LubPn4/MzEysWLFC5xR19vb2SExMxJIlSxAfH8+2Z2FhISeTqEwdpSfSM3t7e/Tt2xfZ2dn4/fffcenSJdjb26OiooJdRmYoJ06cwFtvvYX27dvj5s2bqKqqgqurKyIiInTOZ/fqq68iNDQUqampWLlyJbZv3442bdqw2+fz+Rg5cqTW75X38OFDCIVCeHp6QiqVsm0UERGBF154QfcGaUSnTp0QGRmJuLg4HDlyBCdOnECnTp1QWFiIsrIyODg4YPLkyWjXrh2b5qc5WVhYYPjw4Thy5AjKysoQExODLl264OHDhwqrDhoybNgw/PLLL5BIJOzv29jYsOfjpk2bjLIDmgvqOih4PJ5CjQ51QkNDcfToUUilUoVOlJCQELYouDakUikiIiLqxRIaGqr1tgylqW3WmsmnRiktLYWHh4dCugAm7UxaWhrCw8PB5/OxY8cOrTrhDDW71xh4e3sjNTWV6zA4FxMTY5CUEZpiCqvHxcUZdD/y6diass/mitdYqUp3JZ8ChklfIpVKceDAAfj6+rL3EeaeRIgxMIbvgOb4juXxeGydtKbu0xjaTJXmTqXYGlJNaRtvc6SaIobTtWtXdpJiu3bt2Mme3bt3Z1M8e3p6okuXLrh8+bLKeomGqBGpTf1HS0tLdhLo8OHD2UwNFhYWGDx4MHbt2oWioiJcu3aN7ewG6ibFMJM9zMzM2AFTqVSK69ev61wbUFmPHj0wfPhwthNbKpVqHG/37t3Z7djZ2cHPzw9mZmawtrZG+/btAdSlu2YGa+3t7dGzZ09kZmbi6dOnja40AOoGii0tLXHv3j0UFRXh2bNnyM3NxejRo3HhwgXk5uaiqKgIt2/fRklJCd544w02a4adnR3y8/Px119/ISsrC7du3WLrV2qqrKwMO3fuREFBAfh8PiIiIrRKa8QICAjAwIED2VTduk5Olb8m5Nvz7t27qKioUJuWnRgGrTTQMwsLC0yYMIEdDSsuLkb79u2xcuVKveU6V+ezzz5D9+7dkZubi6qqKnh6emL16tXsbHNd2NnZYc6cOZgwYQKsra1RWFiI3NxcmJubY8KECVizZg37ZabNe+WNGzcOU6ZMQV5eHsrKymBtbY3Zs2cjPDzcoLPgzczMMGrUKCxZsgRubm4oKyvDlStXUFZWhgEDBmDr1q1aL8nSt5dffhmffvopXFxcUFVVhdzcXPTr1w+LFy/W6Pc7dOiAFStWICgoCEDdkrecnBzcvHkTXl5ezVqgrCXy8/PD7t27Ncpx7e3tjf379yMkJEThdV1rE4SEhGD+/Pk6xcKllhJnc3JyckJcXJxCR578LGhNlt+qwqQdmTp1qsLAZnx8vEK6EeWfqyKfWik+Pl4h3QmTZkk5/ZKqlCHKaVKU050wMcunblL+vZSUFDblifz75D/vvXv3FGJRTqmiKlZ17aWssVRSTY1l0aJFGg38Kh8TddtTFV9DVB0jdZ1U8m3BfC75dDZMZ7M25xqzjcDAQKSlpQGoW6HFfM6G9smcD/L7lG8bVb+r7jOrSsPz7NmzRs/xliQsLEwhZ7z8Sow7d+5odM4opy+SP+7yA5zTpk1TOJdUtbm681j++oyPj4dEIkFQUBDbASd/fqij7npRvrcwmHOIeW9j8WpK/hxUvs9pEruq81P5vJY/JqquOeVjxqQ500Rj6ayaKxZV3wGqtqdtJ7vy92ND907l7wz547Ro0SJcvnxZ4ZzRJLUXsw3m2mEmiDCfs6F9qvtu1lebyb9P03NXE8aQSrGlpZoyhjYjzad9+/ZNrpdoiBqR2tR/rKioYGfUMz9jODo6wtXVVWUstra2aj+XPutveHl5KWTe0DVeR0dHthCyOmZmZlp3uHfu3Bkvvvgi7t+/D6lUymaYCAoKQvfu3XHnzh3cvn0b169fBwD069cPFhYWkMlkiIuLw9tvv434+HjcunULPj4+Whd+v3r1Kvu94O/vzw6GaMvT01MvHfry14Qu7Un0i1YaGIC7uzsSExPx5MkTAHUjxubm5tixY4fC+5ycnOq9BqifKdLYDJKOHTsiPj6+3n41pfxwyXB0dMS8efMwe/Zstvq5fAV3Xd/LsLKyQlRUFCZNmoTKyspG36+KurZp7GHCwsICoaGhGDVqFFutnUnbI0/fx0oVVe1vZmaGN954A0FBQXj69CnMzMzYqvPMskCGus/K4/Gwbt06yGQy9sFIlzZubVS1t6pjrI2GZrmqOj7KMSg/uI4dOxbjx4/XKRZ154Oqz60qZlXnsLZtpq49lLfdWH2O1kh+oMDDw6PB99ra2sLDw0OjNB36mC2cmZnJrpoB6jo1YmJi4OzsjJycHPZ9ycnJGDRoELuiQl0qlNjYWJw5cwZLlixh0ycwdS+YwSUmF7Ofnx+GDBnSYDq/4uJiLFiwQCGW2NhYeHh4gM/nq3yA16ZNdu3apTKVlLu7e73Ze7rEkpaWxnaWa0t+NqEu1B0jXSmvisnOzsb69esNOpt02bJl9c7Dzp07N1pQVZOOlzVr1mi17ZZGJpOx9x4PD49Gj5Gu6YdkMhlEIlG9NlfXnsw9pylsbW3ZB/979+5BJpPB1taWvbcA/6sNJF8vZNCgQVrH2xDm/qFpYW11HY7Mdaq872PHjinU61C+5lRd40y6h8bk5+cjKSmp3uvLli1T+VkMGYsqTUmHpe90V6ru4/L3fkNQ9d28fPnyBosea9pmyteg/LabatCgQUhOTuY0laIhY1BONcUcf4lEovM+jaHNiPbU1basqakxeEoVpkYks3991IhUrv8o/x2gqv6js7MzSkpKcOvWLYX7YFFREXvfYrYpHzeT0hqoG6hg6nI29nykDeVZ7+3atdMpXkNxdnaGv78/Ll++jL/++gulpaXo1q0bunbtip49eyI1NRXnz5/H3bt3wePx2FUNf//9N1JTU+Hq6ooNGzbA19eXfVbQJjV6//790blzZ6xcuRK7du1Cly5ddMpuYGFhodDOXF4TRH9opYGOamtr2ZE+VcVyzc3N4eDgAAcHB6067pvKkPu1sLCAg4MDnJycGu1w1ua9DKaYMhed2WZmZrC3t4eTk1O9AQNjwLSnvb29zqsvbG1t2XoGpj5gQAiX5DtmQkJC2DyWmmjoD2j5jrClS5dCIpFAIpFgx44dWqUhKykpYWf7RkZGAqh7YPD09ERGRgb279/PPoAwHUbynykyMpLdN1MgOy0tDTk5OQoznZnivvK57TWp2SGVSjFu3DhIJBKVsRw/frxermht6m20bdsW+/fvr/cZzp49W28WraFjUfXZmUK/zPYkEgni4uIa7QBWPu8yMjLYuHWdFSS/HeVj3RA+n4+MjAx2ZRZzzjSWUkEqlWLAgAH12rGhQtHyA1Lp6elsmyl3xqrbtrEWodeF/IBYeHh4o+cMcx7LH2dmNnJMTAy2bdvGvpc5H5kHb3d3d4X2Zu4lqo5VTk4OVqxYwZ4DfD5f4Rhoen4wK7jkZ+fKHz/mGn748CGKi4sVcr9rE686TCchAKxYsUKjFXfMMZG/bzLteuDAgXr3nLKyMjZOJkbm85aWluLAgQMAVF+bmggPD2fjYI4BM8irzNCxKGvofGyM/Lkvf+8cNmyYzvGouqcfOHCgwfOFmUzBHGMej4f9+/cjNTW10fNF/ruZacfGih5r2maqtl1cXKzQ8agrZhKLJt9ThtIcMahLNaXLPo2hzYj2rK2t2b8D8/PzUVJSAqDuOj137pxB922IGpHa1H+U78j+6aefcP/+fQBAeXk5Dh8+DKAu3VLXrl0V9nHmzBmcP38etbW1qKioQEpKCsrLy2FnZ6eQFkjfdI3XUCwsLNgCyllZWTh//jx69+4NBwcHvPTSS7Czs8Pp06eRlZWFHj16sIWxCwoKUFVVBUdHRzajR2FhIfusoClmompwcDCqqqqwfft2vdRj5fKaIPpDgwZaYkbuJk2axM6+6Nu3r0JuNkIIIUSVlJQUREREsJ2Y8+fPN8gDYWxsrNZpaxjyM9vk0ygxnYzyHf8MpmNWue7GkCFD2M6UkydPwtbWFuHh4QD+17kk3xGuSfFaZjUCgHqxKBfXZQZknJyc2P025v3331fovGFWR6jqQDF0LA1h0sFomkJF/hgJhUL2vPP29kbv3r11ikG+41n+WOuacqsx8ueXfKFoTWRnZyMoKKjBVXmqts3MWm/JmJQyTIf20qVLtZoNnZaWhsDAQI1Tltja2iImJkZlSjZVaZG0HTxVx8fHh+3kLikpYQdSQ0JC4Ofnx17DJSUlkEql7GoLbeNV5fLly1i2bBmAukEOTdpXfqCXScHE5/PZmeGq7jnh4eFsnMr3S/kZz+quzYZ4e3vj/fffZ/8tfx2oGjwzZCwN0fZ8lG9n5WMzYsQInVNIqrqna3q+6CI4OJj9bmK+lzTVWJup2jZzHTWVPlMpymvNqaaa2maGSjVFGmZra4u+ffsCqEv3MmnSJLz99ttYvHixwQd/mBqREydOxLhx45CRkQGgaTUimfqPlpaWOHLkCEJDQ/Huu+9CIBBAIpEo1H90cHDA+++/DwcHB0gkEowdOxYTJ07E2LFjkZqaCktLS0ycOLHefaumpgYLFizA+PHjMXr0aHawOSwsDL169WpaozRA13gNycfHBzweD1euXMH9+/fZFEQdO3aEp6cn+7qvry87ydXHxwd2dnbIzc1FVFQUJk+ejKioKJ0GfO3s7PDBBx+Ax+OhoKAAa9euxYMHD5r0mbi8Joj+UHoiHchkMly9ehVAXT6xmTNnGuXsdHlFRUVITU1FRUWFyp+/8sor7AVtTMrLy3Hw4EG1BaR79OjRpFlCzeXChQs4deqUyp/Z2NggNDSUzZ1HjE9Dy9o1TUGgTw2lGKECaMZJOa2MIYrxOTk5YdasWQqpCNLS0pCVlWWwc1S5Q9XFxUUhD6aq1EpMx152djbbIcEMojCzfvRB13oi6tI5NOXBQddYlHl7eyMqKkrh+k9OTsbZs2cbTFEhT/kY6Up5VqWxCg4OxpkzZxRSiUybNs1k7pXK57N8+ozGTJ48GWfPnmWvX6ZTTL64sjrapMLS1/XBdHJnZ2ezM6yzs7MRHh4Od3d3JCcnK8yYDwgIYPfb1NRd+/fvZ/9fk8FPQ9L12mxq+jN9xqJKU85Hhr7qy+nrnDW0htpMOc1pc2pKKkVTTTWlaZsZMtUUaVxwcDCys7ORmpqKsrIyODo6YsWKFUhNTdXrvVXZuHHjYG9vD5FIhKqqKlhbWyM6OrpJNSKZ+o/m5uZITEzE/fv32T6ZAQMGICYmRmHSyYABA7B69Wr8+9//Rm5uLttf1q1bN8yaNQsDBw6sF8uQIUPQr18/bNy4EZWVlbC0tIRAIMBHH31k8Dz2usRrSG5ubujRowc7wYd5Jmrfvj169+6Nq1evws7ODgEBAezv9OrVCx9++CG2bt2KwsJCyGQyzJo1C2fOnNEp7WPXrl0xbdo0xMXFsauRo6KimnQsuLomiP7QoIGWbG1tsWjRIkRGRsLFxQVOTk7Nmn5Imb+/P9LT0wGgwaIsdnZ28Pf3V1tQprk7rB0cHBAfH4+ampoGi/FaWlqid+/eagc7VBVWNkaurq7skjNllpaWRj/o1NpUVlaisrJSq99p7I9tbWZHybt9+zZOnTqFyspKODg4IDIyki2ALF+HQt6QIUPY616fsRDDSUpKYv8w0qaDA2i4VoYyZha1fAeYcv0AQ2JmxjIPvfI51BmqOvYAzVITaUM+r7mmmA5WPz8/9uGdyYmvz1iakvKGqS0i34HApKjQpIND+RjpC5Pyxdgw18/8+fMVOppUpZtqbfLz89nZ7/LntKaYek7KdSHOnDnTYIcjc/+RHxxtSj56bTCdwvfu3cP169fB4/Hg7+/P/vzy5ct48uSJwuv6iDciIgJPnjxBWloatmzZonVbN/S9oO15yswQZ+75mlyb8gMG8rE0tU6OLrGo09j5qMm93lDpxow1jVlDbcaskmtuyqkUta0Zo5xqivneO3bsmM4xMduRH5A4cOAAfH191Z5XzHdLeHg4pk2bVm8SkaqUXgwmHZS3tzd7/2noe7yxNpN/VlC1beZ7XzmdMtE/BwcHLF++HPPmzUNtbS3atm0LCwsLDBw4sN7f8ar+tldXR1Hd64ym1ohUt31N6z8CdYMMAwcOxMCBA1FeXo7KykpYWFiw9RhVMTMzw+jRozF69Gj272RtB2TVxd7Y85M28aqr/RkTE6PyGUHd6w2xs7PDhg0b6r1uZWWFxYsXY/HixfV+ZmFhgUmTJmHcuHGQyWTscR87dixWr17Nvk9VG6l6zczMDGPGjMGYMWM0jruxc7Op1wSgW3sS/TGpQQMXFxcUFxejsLBQ59xuAAyeY00bVlZWGj2UtG3b1mCzJXTB1F5ojLW1tVGugNBWp06dmnTOGbvCwkIAzVcsqKmYAktc+/7777F3714AdTMTo6OjYW1tbTTxEf2Qz3OtywOyus6choSFhWHIkCF6nY3XEPl0BqmpqewfdvI5/eVn3zJF/jIzM1FSUlIvrZGu5IuhpqWlITw8HHw+X22BT2Wq0uqkpqays370FUtTi74CdX9Ah4aGalzkV/4YiUQitnM0Pz8fz5490zpvq/Kxlm8n+U5aY8E81Oi7GLSxki/uq8uAgTymeL1yB7KzszN7Tt25c4f9O1O5A1Umk7EpBzQlv0pJmwFA5jzPysrC7du3FdKtMcv+S0pKFF7XR7zt2rXD+PHjkZWVhezsbOzatavRB1z5AdSkpCT4+/uzHY75+fnIy8vDiBEjNI5B/njId3gy12ZDVA3wNuVe1ZRYGqPufFRHvp2Tk5MxaNAghY7mwYMHax3D0aNHERoaCm9vb4V20vfgt75o22bNJTY2tt6AXUMaSzWlC1WpprKzs9lUU4ZYUaIuHZQmGmuzhlJN0aCB/jx69IhN+6RcL5CplcgFOzs7g0xG1PYzaRuHLoMF+mSodmsuXLdfY7i8JkjTmdSgAZOT+NixY5g6dSrX4RDSajCze5oz719LVl5ejsTERHaW9YQJEyAQCDiOihiKfEcM87Anr7GBAPmc/w3NqFS3ZL85OnHl0+YkJyfX65RQfriXT1EE1D206+v+ERoayi7713ZmM1Nomsl/DwC+vr46x9aUWFRRni3K0CS1k7e3N4KDg5GcnFwvHYN8QVttqDrW8h0WxkDdIIGxdu7pi3wnsPz5zNBkIEFdByOT1qd9+/ZwcXGBVCpl723btm1jZ/vLn2fapuxRHnRLS0vTKKUUU1skLS2NLW4tX4uFiUf+PqqPeIH698HOnTs3Osgrf4+IiIhQ+Jm2RYMbusYbIz9IwxxLJrWQLp38TYlFncbOx4aouxeHhIToNGig6njpa/Bbn5rSZoair1SKppRqqrE2o+ev5nP+/HmsWbMGz549Q2FhISwtLREYGGjwVDqEEMIVkxo0GD16NLKzs7Flyxbcv38fPj4+esnrS4ipevjwIfLy8rBv3z4AddcYadiVK1eQmJiIwsJC2NvbIzo6WiE3IWl9mpq2gOnskkqlWj/oN3WGsTbCwsLg4eFRr3NcVQ51+ZmfgH47MLy9vREfH6/Quc50vjU2w5zP5yMyMpLtZAkJCcGkSZOwYMGCZo9FU9rUx4iJicGgQYMUjlFTco6vXbtWIVWELitpuNBS4mwKQ6WLkr+eVXVkAfXrSERGRmLQoEEK6cg0oZyPXRO2trYICAio1/kvPwgh/7o+41XeliZ50b29vbF79+56A77yRda1wQyqMPcwPz8/rFixAsuWLWuwHW1tbSEUCtkC9QCwYsUKnDx5Ejk5OVrH0ZRYtKFpjQ5vb2/s37+/Xs0GXTuMQ0JC8NJLL2H9+vUAmve7tqmYNuOywLs+UimaWqqphtqMBg2aT01NDXJzcwHUZUSYOXMm/vWvf3EcVcNaco3I1lAXsiW3f0uOneiPGYBaQ+7g5ZdfBgCtl/kays6dO3Hw4EGuwyCk1Rk7diymTJnCdRhG7ejRo/j6668B1D1gzpgxQ6ETg7RcnTt3RkVFBdshoU2xUXlMHm1DFEo2dcyMS2rbppHP9a7red4S3bp1C7W1Bv2TWSedOnXC7du3ERMTAxcXF507LpnrwxQGVAjRhXyqQFP6HiksLFRbE68xrq6u+OWXXxAbG6t2YEV+laQm9x/51RPKNQ0GDx6MnJycejUGmI52JgZbW1v2WMq/T341nyYrm4D/fScq1zRoaJ/y25bfJ/N5lH+3sTYLDg7WaNudO3dGeXm5Bkeudfrmm29w+PBhzJ8/H+PHj9dpG9XV1Xjw4AGePXvG+SqVmpoaPHnyhK0RqS69TmVlJS5fvtxgjcjGVqvqU21tLVsfobGaB4WFhSpThwJ1dSF79uzZYF1PY2Bs7a+Nlhx7Q9avX4+9e/figw8+wKhRo7gOR2fh4eEAgHPnzhl0Pya10gAApkyZgsGDB+PChQuQSqV4+vQp1yERNUpKSgBA5xmQxPDatm0LHo+Hvn37ap0P29Rs27aNnd02cuRICIVCjiMihqTqAbIh6lILEe3l5+fjt99+w/vvv8++lpKSwnYycJmWgRBDYtIQadOh2VwFigkhBGh6KkVTTDXFZfpJosjCwgJubm5chwGg5daI1Ca/fWuoC2ls7a+Nlhw70R+TGzQAgK5du1IHZwvAjJwZyyoVQnRx9+5dJCYm4vLlywCAjz76CK+//jrHURHSuh04cAAJCQn1Xg8JCUFwcDAHERFCCCFEFW3SO1GqqTrycXKZaqolYSYi3r17l+NICCFcYu4BLi4uHEfSMphceiLSctCgAWnpTp06hYSEBDx9+hSenp6Ijo7Giy++yHVYxAA6d+5cb2ltTU0NR9HUl5+fj48//lhlQUs/Pz9s2rTJ6B+QNVVaWorZs2fXm5H39ddfs3+TNLeKigpUVlYCqJulZmNjo/eieT/++CNWrlyp8mdTp07FzJkz9bKfc+fOYfr06QDUt6m6YwDUzYzcvHmzURVLVmZubl7vNWNOT2RpWX8OkDHdf/SlJZ5XW7duxY4dO1T+bMmSJRgzZozW21S+n9ja2qo8Z01Fc50XMpkMcXFxbHqiRYsWqeykbqnft+rOoaamJ1KXMoVLpppqqqioyKTTE506dQrr1q1D165dIRaLuQ6HEMKBBw8eYOzYsXj27Bk2btyILl26cB2SzporPRENGhCjRYMGpCXbt28fWyA6MDAQ0dHRJvFAQghR7dy5cxCJRLh37x7MzMwgFArx5ptvch0WIaSFuHHjBpKSknD16lUAwIQJEyAQCDiOihD1aNDAuJj6oAEAzJ8/H3l5eejduzdGjBgBT09PrkMihDSDqqoq3L59GykpKSgsLMTAgQMxf/58rsNqEqppQAghLdDTp0+RkJCAU6dOAQAmTpxYL1cqIcT0vPzyy9i0aRNEIhHS09ORlJSEy5cvQygUwtHRkevwCCFG7PDhw/jmm28AAJ6enoiKioKfnx/HURFCSMsSGRmJbdu24fLly2zqWEKIaenduzcmT57MdRgtBg0aEEKInly+fBmJiYm4e/cuHBwcEB0djQEDBnAdFiHESNjY2CA6Ohq+vr4QiUTIyMhATk4OhEIhBg0axHV4hBAj8+jRIyQlJeHkyZMAgODgYAiFQr2nNyPEkJh0Wo0pLS3FvHnzkJOTU+9n7u7u2LRpk15SSVRWVrLgiAB/AAAgAElEQVQp3GpqalBZWakyPVNqairi4uJUbmPy5MmYMWNGo/t69OgRSktL2fR29vb2cHJyavZr2Nrauln3Z6x8fX2xefNmpKWlQSqVoqioiOuQSDOqqqpCWVkZgP/VuCCmwczMDO7u7vDw8MCwYcO4DqdFofRExGhReiLSkqSlpWHbtm0AgJdeegkzZsyAm5sbx1ERQozVP//8A5FIhLNnzwIA3nzzTQiFwnq1MQghpunUqVNISkrCw4cP0bZtWwiFQgwZMoTrsAghWnr8+DHEYjFSU1MBAFZWVoiIiKD0YoQ0sydPnmDKlClo164ddu7cyXU4hDQJpScihJAW4uuvv8bRo0cBAKNGjcIHH3zAcUSEEGPXsWNHfPbZZ0hJScGOHTvw008/semKfH19uQ6PEMKhb7/9FocOHQIA9O/fH0KhEB07duQ4KkKILuzt7fH+++8jKCgIYrEYJ0+exJ49e/Drr79CIBBg+PDhXIdICCGEqESDBoQQoqPCwkIkJCTg77//BgDMmDEDI0aM4DgqQkhLEhYWxqYrunbtGpYsWYLx48fj7bff5jo0Qkgzu379OpKSkpCbmwugLgXKW2+9xXFUhBB98PLywrx583D+/HmIxWL8/fff2Lp1K9LT0yEQCNC3b1+uQySEEEIU0KABIYTo4OTJk0hMTER5eTk6d+6M6OhodO/eneuwCCEtULdu3bBmzRrs3LkTBw8exN69e9laB56enlyHRwhpBj/++COSk5MBAN7e3oiKikLPnj05jooQom/9+vVDv379kJ6eDrFYjCtXriA2NhaBgYEQCATo3Lkz1yESQgghAGjQoFVr164d1yE0SVhYGICW/zmePHnCdQhEz/bu3Yvvv/8eAPDqq69ixowZsLGx4TgqQkhLN2XKFHbVwaVLlzBnzhwIhUIEBwdzHRohxECKi4shEolw+vRpAMDIkSMhFAo5jooQYmhBQUFsyiKxWIyMjAxkZGRg9OjREAgELf4ZmBBCSMtHhZBbMScnJzg6OnIdhkl79OgRSktLuQ6D6MmTJ0+QkJDAPthPmjQJ48aN4zgqQkhrI5PJkJSUhN9++w0AMHjwYAiFQjg4OHAcGSFEn06cOAGRSISysjI4ODggKioKgYGBXIdFCGlmJSUlEIvFbI00Ozs7CAQCdhIdIaTpqBAyaU2oEDIhhBiRnJwcJCQk4N69e3B0dER0dDT69+/PdViEkFbI1tYWMTEx7KqDEydOsOmKBg4cyHV4hBA9EIlEOHLkCADgX//6F6KiouDs7MxxVIQQLjg7O2P69OnsyoPMzEzs2LGDrXfw6quvch0iIYQQE0QrDVoxWmnAPVpp0DocOXIEIpEIAODv74/o6Gi4urpyHBUhxBTcv38fIpEIEokEADBq1Ch88MEHHEdFCNHVlStXIBKJkJ+fDwCIjIzEmDFjOI6KEGJMzpw5A7FYjLy8PAB1zx8CgQC+vr4cR0ZMnbOzM+zt7VFVVcV1KFqrqanBP//8A3Nzc3Ts2JHrcHRiaWmJkpISPH78mOtQCMeaa6WBBYDlhtwBj8cDALzzzjuG3A1RwdbWFra2tvVel8lkWLZsGRYsWID+/fvjhRde0Pu+8/PzMXnyZPznP//BwIED0b59e73vQx/i4+MxY8YMuLu7G6TYXEVFBWQymd63S5rPV199BbFYDAAYPXo0Zs+ejbZt23IcFSHEVLRr1w6vvfYarK2tcfHiRVy/fh2nT5+Gp6cnDV4S0sIcOHAA//73v1FaWopu3bph4cKFGDRoENdhEUKMTKdOnfDGG2/A0dERN27cQEFBAX777Tfcv38fnTt3hr29PdchEhPVpk0b2NjYwNzcvMX9Z2FhAQcHB9jb23Mei67/AcCzZ89QWVnJ8ZlAuLZv3z4AgFQqNeh+zA26dcK5/Px8hIaGgs/nIyUlBUDdSZWVlQUAOHnypEH2e/HiRUilUkilUly8eNEg+2iq0tJSnD17FkDdbA7q3Cfy7ty5g08//RQ///wzzMzMEB0djffee4/rsAghJuqtt97CmjVr0K1bN9y8eROLFy9mBzQJIcbtn3/+QVxcHHbv3g2gbhLCunXr0L17d44jI4QYs5CQEHz11VeIiIgAAPz++++Ijo7G7t27UVFRwXF0hBBCWjsaNDAhHh4eAOpWf/Tp0wcADDa7yd/fHzweD35+fhgyZIhB9tFUTk5ObE76gIAAlasyiGnKyMjAggULcPXqVXh5eWHt2rUICgriOixCiIl78cUXsW7dOrYw4p49e7BixQoUFhZyHBkhRJ3jx49jzpw5kEgkcHZ2xoIFC2gSAiFEY1ZWVpg4cSK+/PJLDB8+HEDdqqUPP/yQrYtCCNdkMhkWLVoEPp/PptTUN4lEAj6fj6lTpxp1Cuj4+HiFSbuEtGQ0aGCCbG1tERcXx950DcHb2xupqanYsWMHnJycDLIPfYiJiYFEImE7YAj5z3/+gw0bNkAmk+G1117DunXr0K1bN67DIoQQ1tSpU/Hpp5/C1dUVWVlZmD17Nn7++WeuwyKEyKmursZXX32FzZs3o7y8HIGBgdiwYQNeeeUVrkMjhLRAbm5umDlzJuLi4tC3b188evQIIpEIc+fOxalTp7gOj5gQrrJZMNvNzs5m630YG8pmQVobGjQwQaWlpZg6dWq90U/5mz/zn66jo8yARGhoKFvojRlxXbRoEXvzlI8lPj5e5e8yv6fqPcr7AICUlBT29cuXL7Mj3sr7lh8NZ7ar3Dby+1E1oq0ch0QiUdm2xPiVlZVhzZo12L9/PwBg8uTJ+L//+z9YWVlxHBkhhNQ3YMAAbNq0CUOHDkVVVRW++uorbNq0iQqjEWIEsrOzMWfOHHYwTygUYu7cuXB0dOQ4MkJIS9erVy8sXboUc+fORefOnZGfn49169YhLi4O165d4zo8YmKaM5sFs92QkBCjLQpO2SxIa2PJdQDEsNq3bw8XF5dGi2Pk5+cjJibG4EU0tLVs2TLk5OSw/05OTsa1a9cURq+lUilEIhGWLFmicFOWSqWYPHmywvbS0tLg7u6OmJiYRvd97Ngxhf1kZ2dj/fr17H5SUlIQGxursL9p06bp9DkJt7Kzs5GQkID79++jffv2mDFjhsFW4RBCiL7Y2dlh1qxZ8PX1hUgkwp9//onLly9DKBTiX//6F9fhEWKSxGIx9uzZAwDo2bMnoqKi4O3tzXFUhJDWJjAwEIGBgTh06BDEYjEkEgkkEglef/11CAQCdOjQgesQiQlhslnExcUZbB+GTH2kTzExMRr1NxHSEtBKAxPB4/Hg7Oys9udM4WI/Pz+kp6ezf3RwmbZHKpViwIABkEgk2L9/P3g8HoC6ZWnbtm2DRCJBZGQkACArK0vlgEdkZCT7WZj3Hj16VGFlgjplZWVsWyjvp7S0FAcOHABQN9KdkZEBiUSCpUuX6uWzk+Zz+PBhLF26FPfv30efPn2wdu1aGjAghLQoQUFB2LhxI/r164fi4mKsXbsW27dv5zosQkyKVCpFbGwsO2Dw1ltvYfXq1TRgQAgxqNGjR+Orr75in9t/+eUXfPjhh9i3bx9qamo4jo6YiubIZsFklJDPAEHZLAgxLBo0IAqys7MRFBRkNKO4zBI0+eVu8svRGlr6xuPxEBoayv47NDQUPB4PUqkUJSUlje47PDycrcegvJ+8vDxkZ2ez72NWOAwZMgR+fn6afjzCsS+//BLffPMNAGDMmDFYtmwZzcohhLRIPB4PS5YswbvvvgsASE1Nxbx583DlyhWOIyOk9fv1118xZ84cXLhwAa6urvjss8/qrXYlhBBDsbOzw9SpU7Flyxa8+uqrqKmpwb59+/Dhhx/il19+4To80sow2SwaY8zZLJKTk9l/JycnIyYmRiFrBJPNQrkmAZPNIi0tjX0tLS0NSUlJGu372LFjCvthslkw+0lJSakXx7Rp09i+J0KaGw0aEABAcHAwQkJCFF6bNm0aOzpq7FQNBLi4uKB9+/YG3W9jKziIcbp16xY++eQT/PLLLzA3N0dMTAy7moQQQlqy8PBwfP755/Dx8cGNGzewaNEi/PDDD1yHRUirVFFRgYSEBGzduhUVFRV47bXXsHHjRjafMSGENCcPDw/Mnj0by5cvh6+vLx48eIAvv/wSn3zyiVFMCCStC2WzoGwWpPWjQYNWzsnJCTt27EBqamqDy6OZHHTp6ekKM+XPnj1bb7lUS1VSUqL3UW5NVy0Q43HixAksXLgQ165dQ5cuXbB27VoMGzaM67AIIURvevTogfXr12P06NEAgO+++w6xsbG4e/cux5ER0npcuHABc+fORXp6OszNzTF9+nT83//9H9q2bct1aIQQE+fv74+VK1di1qxZ4PF4uHbtGuLi4rBu3TqNOjYJ0SfKZvE/lM2CtDQ0aNDKyedP0+QGzQwyGGI0s3PnzgAUR2yPHz9usKVW2dnZOH78OIC63HLMqK2fnx98fHyatG1nZ2d2VPrAgQPscrJdu3bR0jEj9t1332Hjxo2oqKjAkCFDsG7duiafC4QQYqzee+89fPLJJ+jQoQMuXLiAOXPm4NixY1yHRUiLt2fPHnYgztfXFxs3bkRwcDDXYRFCiIKhQ4ciISEB7777LmxsbHDq1CnMnTsXIpEIjx494jo80spRNgvdUDYLYkwsuQ6AGJb8aOXJkyfVFnhNSUlBbGxsvdf79+/PjoQ2lYeHB4C6m29ERIRettmY2NjYep+LGd1Vzk+nDW9vbwQHByM5ORlpaWkKOe2I8Xn06BESExORmZkJAJgyZQrGjh3LcVSEEGJ4AQEB8PX1hUgkwvHjx5GYmIicnBwIhUKaEU2Ilm7fvg2RSIRLly4BACIiIjBx4kSOoyKEkIaFh4cjKCgIYrEYR44cwZEjR5Ceng6BQIDw8HCuwyMtDDPRtDFMNov58+fj448/ZvulmGwW+upn4pIhs1k0lCmEkOZCKw1aOR8fH3YpU0PLrFRZunQpYmJi9BYLn89XWMHg5+eHH374wWBLrXg8HtauXcuuCACAbdu26S2HnnIefEN/HqKbixcvYuHChcjMzISzszMWL15MAwaEEJPStm1bfPzxx/joo49gZWWF48ePY/bs2Thz5gzXoRHSYvz888+YO3cuLl26BHd3dyxZsoQGDAghLYajoyOEQiE2bNiAV155BRUVFdi9ezeio6Px+++/cx0eaUEomwVlsyCmg1YatHKqRoFVvRYWFtYsBWlU7Uc5FlVfPswodVxcXKPvlefj44PU1FSVP1O1TXWj5ur2ExMTozCwkp+fj+LiYgD/W1lBuJOamort27cDAPr27Yvo6Gi4uLhwHBUhhHDj9ddfZ1cdXLhwAWvWrMGYMWOoEDwhDSgvL0dSUhLbSTBs2DBERUWxuYYJIaQl8fb2xoIFCyCRSCAWi3Ht2jVs2bKFXXng7+/PdYjEyFE2C8pmQUwHrTQgBnHy5EkAzZPzjSvbt29XKCRVWlqK5cuXQyqV6mWkmTRNQkICO2AQFhaGpUuX0oABIcTkvfDCC1i6dCkmTZoEAPjxxx8xf/58XL16lePICDE+EokEc+bMwfHjx2FtbY0ZM2YgJiaGBgwIIS0en8/HmjVr8NFHH6FDhw7IycnB8uXLsWnTJty5c4fr8IgRo2wWlM2CmA4zALWG3MHLL78MAOyyHdJ8nJyc4Ojo2Kz7jI+PR3JyMvvvpUuXNssKBnnMiDaPx0N8fLzBcsEpf1Z527ZtA5/Px6NHj1BaWmqQ/RPVCgoKkJiYiOvXr8PCwgLR0dEYOnQo12ERQojRuXLlCkQiETsA/u6771JuY0L+v927d7PPL3369IFQKESnTp04jooQQvSvpqYGYrEYYrEYNTU1AOomXQkEAtjZ2XEcHTEmzs7OsLe352TfTD+Pn58fNm/e3Kw1EZqrj0mV/Px8xMTEQCqVYtu2bfD29sbjx4+bbf/EODHPbOfOnTPofig9USv35MmTJm/jyJEjWLt2rcqfTZw4EdOnT2f/XVlZyf7/woULERQUpHEMJ06cQEVFRYPvsbGxweDBgxt8D7ONmpoalJeX66UNVHFzc6v32ogRIzB//nzY2toabL9EvT///BMJCQmorKxE165dMWPGDHTt2pXrsAghxCj16tULGzZswPbt25Gamordu3fj8uXLEAqFcHd35zo8Qjhx8+ZNJCUl4cqVKwCA8ePH4+233+Y4KkIIMRxzc3O88847bLHkX375BSkpKWzKotGjR3MdIjFxMpmMrcXl4eHRalf8bd++HcOGDWMHJVRls2AG9sj/a+/O46os8/+Pv9nxIIgLKiog7uI+7qaFWaOZMzYmltaMLdg0kjr6y6wcnUwtl7IcU5skl+ZbVi5Jkcuoo6aZy5c011AWj6jgIIiIR0Q45/cHcH9FUQGBA/J6Ph7+4Vnu+3MOcO773O/r+lwoD8w0QIXx9ddfa82aNbp+/Xqh97u4uOjJJ5/kixsKdeOIwODgYIWFhcnJycnOVQFA5bB3716Fh4crJSVFbm5uCg0NVb9+/exdFlCuNmzYoCVLlkjKvSgxatQotWvXzs5VAUD5OnHihFatWmWs6efv76+QkBA98MADdq4M9lbeMw0yMzM1ffr0Av3987s6lKeK1M0iNTWVmQZgpgGqngceeEDffPPNbe93dHTkRAW3SEtL08KFC42T2pEjR5Z7SywAqOy6d++uoKAghYeHG7O2jh49qtDQUFoT4L6Xnp6u8PBw7dq1S1LuouGjRo2SszNflQBUPS1atNDkyZO1Z88erVq1SvHx8Xr//feNmQetW7e2d4mo5G63SLIkPffcc7dd98AegUF58vf3v+W2AQMGaMqUKfft7ApUbMw0QIXy17/+VadPny70Pn9/f3344YflXBEqsl9++UWLFi1ScnKyateurbCwMHXs2NHeZQFApfbvf/9b4eHhys7OVt26dRUaGqouXbrYuyygTOzbt09LlixRSkqKqlWrplGjRrEWEgDcYP369Vq1apUuXbokSXr44YcVEhJSaLte3N8qW5j+5Zdf6ocffrjt/e7u7nryyScr3eDU7Oxse5cAOyuvmQaEBqhQ1q9fr//5n/9RZmZmgdvd3d317LPPauDAgXaqDBXNd999p2XLlknK/ZwZPXq0atWqZeeqAOD+cPbsWS1ZskSHDh2SlLsg4siRI+1cFVC6VqxYoYiICEm55xKjRo3iIhgAFOLatWtatWpVges6Q4cOVUhIiFxcXOxYGXB70dHRmj59uiwWS6H3Ozk5KTw8XDVq1CjnyoB7U16hgZOkt8pyB76+vpKkp556qix3g/uEj4+P1q1bJ5utYJZls9kUFhbGlCzIZrNp4cKFRiurJ554QmPGjFG1atXsXBkA3D+8vLwUHBwsR0dHHTlyRNHR0YqKilJAQIBq165t7/KAexITE6M5c+Zo9+7dkqRnnnlGL7/8sqpXr27nygCgYnJ2dlb79u314IMPymKx6NSpUzp27Ji2bt0qNzc3NWvWzN4lAreoU6eONm7ceNvQoHXr1gxMRaX01VdfSZISExPLdD+EBqhQ3N3ddfjwYSUnJxe4PSgoiA9z6NSpU3rnnXf0888/y9nZWWPGjGH9AgAoQ23atFG7du0UFxenuLg4bdmyRW5ubmrVqpW9SwNK5LvvvtPcuXOVkpKigIAATZw4UQ899JC9ywKASsHT01Pdu3dX27ZtlZKSIrPZrKioKP3v//6vvL291bBhQ3uXCBRw9epVRUdHy2q1FrjdZDIpJCREjRs3tlNlQMkRGqDKcnZ21qFDh3T9+nVJfJgj144dO/Tuu+/qwoULatq0qSZPnsz6BQBQDnx8fNS/f39dvnxZJ0+e1C+//KKYmBi1bNmSkdmoNC5evKgFCxYoMjJSUu7Cgm+++abq1q1r58oAoPKpW7eugoOD1aBBA505c0Zms1m7du1SXFycfH19aRuLCsPb21ubN29WTk5OgdutVqvGjx8vR0dHO1UGlByhAaqshg0b6quvvjJaFPFhjn/9619avny5rFarHn74Yb355puqWbOmvcsCgCrlN7/5jfz9/XX8+HHFxcVp69atqlmzpgIDA+1dGnBHu3fv1rvvvqvY2Fh5enoqLCxMQ4YMkYODg71LA4BKLSAgQI899pjc3d118uRJmc1mbd68WWlpaWrSpAktZGF3Xl5e2rVrl7GQd77u3burT58+dqoKuDeEBqiyHB0dderUKZ05c0YSH+ZV2cWLF/X+++9r27ZtkqTnnntOf/zjH/mSDwB24ufnp759++rChQuKi4vTvn37lJycrPbt28vZ2dne5QG3+PTTT7VixQpdu3ZN3bp10xtvvKHWrVvbuywAuK+0atVKjz76qHJycnTixAnFxsZq/fr1knJbHQL2ZLVadezYMWVnZ0uSPDw8NGLECDVo0MDOlQElQ2iAKs3d3V0///yzXF1d+TCvog4ePKh33nlHcXFxqlOnDj2HAaCCcHNzU8+ePVWjRg0dOHBAcXFx2rVrl3x9fTleo8KIjo7WrFmztG/fPknSyJEjFRoaKpPJZOfKAOD+5Obmpk6dOqlHjx7KyMiQ2WzWkSNHtG3bNlWrVk1NmjSxd4moourWratvvvnG6Gbh6uqqsLAwO1cFlFx5hQYOkmxluYPf/OY3kqS1a9eW5W6KZf/+/YqKilJiYqKuXLli73JwG6dOnZIk1jKowDw8POTr66vOnTura9eupbbdiIgIrVixQpLUuXNnhYWFydvbu9S2DwAoHQkJCQoPD9fhw4clSU888YT+9Kc/2bkqVHXr1q3TZ599Jklq2rSpRo0apRYtWti5KgCoWg4cOKDVq1fr+PHjknJnI4SEhKhTp052rgxV0ZQpU3T06FFJUv/+/fXnP//ZzhUBJTdkyBBJ0s8//1ym+6lyocH8+fO1Y8cOe5cB3HceeughjRs37p62kZOTo0WLFhntiIYMGaJnn322NMoDAJShr7/+Wl9++aUkqUWLFgoNDVWzZs3sXBWqmgsXLmjJkiXav3+/JGnQoEF64YUX7FwVAFRtW7du1erVq3X+/HlJUq9evTRs2DD5+/vbuTJUJT/88IOWLFkim82mKVOmqGXLlvYuCSgxQoMysH37dv3jH/+Qk5OTRo8erZYtW7KYKnAPLl68qOjoaC1atEg5OTkaO3asgoODS7St+Ph4LVy4UHFxcXJxcVFYWJgefPDBUq4YAFBWjhw5ovDwcJ0+fVpSbjuYwYMHl9r2L1++rKSkJKWlpZXaNmEfLi4u8vX1Vb169Uptmzt37tSSJUuUkZEhb29vjRo1Sj179iy17QMA7s2qVau0evVqXb9+XVJusDts2DBVr1693GpIT09XRESEEhMT9d///rfc9gv7s9lsOnXqlJycnAisqhgHBwfVr19f/v7+Gjp06H2xRiahQRmYPHmyjh8/rsmTJxtvMIB7t3btWs2cOVOtW7fWzJkzi/387du3a+HChcrJyVGzZs0UFhamgICAMqgUAFCWbDabwsPDtWHDBklS165d9eKLL6pu3bol3mZKSopWrlyp//znP6VVJiqIhg0basSIEfd0cd9qtSo8PFwbN26UJPXs2VOjRo2irSEAVECpqalavXq18ZldrVo1DRs2rFQHGdzO7t27tWjRIlksljLfF4CKqV69eho/fnylb1tJaFAGXnjhBaWlpWn9+vWlOrIJqOrOnz+vgQMHytvbW0uXLi3Wc1esWKGIiAhJUr9+/ViQCADuA7t371Z4eLjS0tJkMpkUGhpa4plokyZN0smTJyXl9kO+lwACFcPVq1eVkJCgpKQkSdKbb76pLl26FPrYzZs3a+/evfrb3/52y31Hjx5VeHi4zGazpNxz/UGDBpVd4QCAUhETE6PVq1cbi9U3bNhQw4YNU58+fcpkfzabTWFhYUpKSlJwcLD69+8vPz+/+2LEMYA7u379uhISErR27VodOHBA7du311tvvWXvsu5JeYUGzmW69Qomfzo7gQFQuvL/porTMiIlJUWLFi3SgQMHJEnPP/+8fve735VJfQCA8tWrVy8FBQUpPDxcu3fv1j/+8Q8dPXpUoaGhcnNzK/J2vv/+e508eVKNGzfWvHnzmIV2n1m2bJk++ugjrVy5stDQID4+XitWrJDFYtG2bdvUt29f477Vq1friy++kJS7jsaoUaPUtGnTcqsdAFByzZo10+uvv659+/Zp9erViomJ0QcffKCtW7cqJCREbdq0KdX97d69W0lJSerQoYPef//9Ut02gIqvXbt26tevn/7whz/o0KFDio2N5byxCKpUaACgYjhw4IAWLlyo1NRU+fj4KCwsTO3bt7d3WQCAUuTt7a1XX31VGzZsUHh4uLZu3apjx44pNDRUnTp1KtI24uLiJEnPPvssgcF96Pnnn1d4eLji4+NlsVhkMpkK3L906VKjjcTy5cvVpUsXXblyReHh4cbIqsGDB2vkyJHlXjsA4N5169ZN3bp108aNG7V69WodOnRIhw4dUnBwsEJCQuTr61sq+0lMTJQkdezYsVS2B6DycXNzU5s2bXT+/HklJSURGhQBoQGAcrVu3Tp99tlnkqQuXbooLCxMNWrUsHNVAICy8thjj6lNmzYKDw/XkSNHNH36dA0ZMkTPPvvsXZ+b377Gz8+vrMuEnfj5+enkyZNKTEws8OVt7dq1xqLaUu5C2K+99prS09N19epV1a5dW6NGjVK3bt3sUTYAoBQNGDBA/fr1MxZL3r59u7Zv364hQ4YoJCSkWLMUC3Pp0iVJosUhUMXlfwYUp0tGVeZo7wIAVA3Z2dmaP3++ERg8+eSTevPNNwkMAKAK8Pf319tvv61hw4ZJyr0g/MYbbyg2NvaOz8vOzpYkubu7l3mNsI/8C0FWq9W47fDhw/rmm290+fLlAo89f/68rl69qt69e2vevHkEBgBwH3FxcdGIESO0ePFiPfzww5JyzxdefvllrV+/3uLrH7UAACAASURBVM7VAUDVw0yDUmKz2RQXF6eoqCj17t1bDRo0sHdJlUZycrIiIyN17do19ejRo1hTBrOysrR9+3ZFRkYqLS1No0aNKrPFk8rCuXPntG/fPnXq1OmubRe2bdum6OhoeXl56YknnpDJZNLBgwe1Z88eubm5adCgQfLx8SmnyosnNjZWixYtUnx8vNzc3DR69OhK9XMCAJSOp59+2ph1EB0drYkTJ963a9oUdow2m83asGGDpNwZGJWh5VJh5x9lKTMzU59++qmuXLly28c8+eST8vT0LNM6AAD2Ua9ePb3yyivGzIODBw8abQ5DQkLUo0cPe5cIAFUCoUEpOXfunCZNmqT4+Hht375ds2fP5stMEWVkZGjNmjVKTEyUr69vkUMDi8Wi2bNnKzIy0rgtNTW1rMosdZcvX9aMGTO0d+9eBQUFad68eXe86H/kyBEtX75cbdu21cCBA2UymWQ2m7VkyRL5+voqODi4QoYG27Zt08KFC2W1WtW8eXOFhYXJ39/f3mUBAOykXbt2+uCDDxQeHq6NGzdq2bJlxiLJderUsXd5paawY/SFCxe0ZMkSSVLXrl0rRWhQ2PlHWfr888+VnJx8x8fMnj1bixYtKtM6AAD21bp1a02dOlU//vijVq1apfj4eM2ZM0edO3dWSEiIWrRoYe8SAeC+RnuiUuLp6al69epJyu2R5eLiYueK7n8HDx7Uxo0bJUkjRozQmjVr1L17dztXVXQuLi5GPzVvb29Vq1bNzhWVvuXLl2vBggWyWq165JFHNHv2bAIDAIAcHR310ksvacKECfLy8tK+ffs0fvx47dixw96lwY5++ukn7dy5U1evXr3j45KSkjRr1qxyqgoAYE8PPPCAPvzwQz3//POqXr26oqKi9Prrr2vx4sW6cOGCvcsDgPsWMw1KiZeXlz788ENdvXpVHh4ecnJysndJ973k5GRlZ2fL19dXQ4YMUePGje1dUrG4u7trypQpmjBhgqpVq3ZfBU0XLlzQokWLdPDgQUnSiy++qMcff9zOVQEAKprevXsb7Yp++uknzZ8/X8eOHVNoaOh9dVzE3V26dElLly5Venr6XR9brVo1nTx5UlevXr0vB10AAG71u9/9zmhZFBERoc2bNxsti0JCQuToaJ8xsVevXtX27dvl5eWlrl27ytXV1S51VEYlbYFos9kUHR2tr7/+WjExMeratatefvllzh3zFNYO02KxaN26dUpPT1fLli3Vt29fO1eJyoDQoJRYrVZdvXpVVqtV165dk8lkktVqVUZGhqxWq5ycnFS9enU5ODjIZrMpIyNDOTk5xu2SbrntypUrio6Olqurq1q0aCE3NzfZbDYlJSXp9OnT8vHxUUBAgBFQ3Lg/V1dXVatWTRcuXJDZbJbJZFLz5s2L/SFqtVqVmJioM2fOyGQyqWnTpgU+yK9fv270nPXw8JCjo6PMZrOSk5Pl7++v+vXry8HBocA2c3JydPLkSV26dEn+/v6y2WzFrikjI8MYhWa1WnX58mWlp6fLw8ND169fV2ZmphwdHeXh4aFr164pPj5e/v7+Rssom82mtLQ0xcXFKTs7Ww0bNpSvr2+BsOfm1+bk5CSz2az//ve/BV7btWvXdOLECWVlZal58+by8vIq0uuw2WyyWCyyWq3KzMyUs7NzgfcqJSXFWAOgJFMvc3JyjJ+Fp6dniX7+JREVFaVFixbp4sWLqlevnkaPHq127dqV+X4BAJVTzZo1NXHiRK1fv17h4eHavHmz0a6oLBR2Hna78zMHBwfl5OToypUrslqt8vDwkIuLi2w2my5fviyz2SyLxXJPx9kb9yvlDioo6sLPdzrWF/Z6Ll++rJMnTxY4t7zZvZ5/lFRkZKQuXrxY6H2Ojo4ymUzKyMhQ27ZtFRoaysxFAKiCTCaTRo4caYQHO3fu1FdffWWEB48++mi517Ry5UotXLhQUm77vEceeaTca6isStIC0Waz6bvvvtPMmTOVnZ0tSfLz81NOTg6hQZ7C2mFmZWVp06ZNOnLkiJ577jlCAxQJoUEpSU9P17hx44w/wDFjxhS4bcCAAZoyZYrc3d117do1zZo1Sxs3bjRul2Tc1r9/f3Xr1k2LFi1SSkqKJKlz586aPHmyvv76a3355ZfGfgcNGqRJkybJZDIV2N8zzzwjHx8fffTRR8YHadOmTTVr1iw1adKkSK8pMTFR7733nrZv327cVrt2bb366qt69NFH5eDgoEOHDumll16SJL3zzjv697//bTze2dlZoaGheuGFF4yL8UePHtW0adMUGxtrPOa3v/2trFZrid5rSTp//ryef/55+fr6asGCBTp06JDefvtt+fr6asyYMfrnP/8ps9msTz75RJ07dy70dUm5B5q33nrLWFPh5tf2n//8R1u2bDHqnjx5sho1aqSpU6cqMTFRUu6Mk9mzZ6tbt253fR2F/R7k/34sWbJE//rXv4yfXYcOHeTh4VHk9+j48eN6//33deDAgdu+vrIyc+ZMSbkHp7CwsCKHKACAqm3gwIEKCgpSeHi4jh07prffflu1atUqk32tWLFCy5YtU1BQkObPn69atWopLS1NEyZM0KFDhxQcHKzp06fLZDLp8OHD+vOf/yw/Pz/Nnz9fnp6eeuONN7Rnz54C2yzueVa+uLg4TZw4UWazWZ07d9Y777xTpNDgbsf6G88z8s8t58+fb4zkv7ne0jj/uBdxcXEFzgerV6+u69evq3r16urXr5/69++vmjVrlkstAICKrVGjRho/frwRHhw9elSLFy82woPOnTuXWy3+/v5ydnaWyWTiOFUOLly4oFWrVik7O1sdOnTQhAkTjEEdAEoXaxpUQDt27NDSpUvVt29fNWvWTFLu6O1nn31WP/74o4YOHWqsn7Bx40ajBcyN1qxZo2XLlmnQoEHq0qWLnJ2dFRsbq/fff79I075TU1M1bdo0bd++XZ06ddKcOXMUGhqqy5cv69133zUu2N9oxowZunTpkgYPHixXV1dlZ2crIiJCp0+flpR7cX/mzJmKjY2Vq6urBgwYoN69e2vLli06f/58kd8fR0dHNWjQQA0bNpSUewG/WbNmaty4sZyd/y8Hu3btmpYtWyaz2Vzo63J1dVVwcLCGDh0qLy8vJSQk6G9/+5sRaNxo1qxZyszM1IABA4zXNnPmTI0bN07t2rVT79695ezsrPT0dK1atUoWi6XIr+dGNptN33zzjZYtW6bs7Gw1a9ZMQ4cOVVpamnbv3l2kbZw6dUqTJ0/WgQMHFBwcrHnz5mno0KFKTEzUO++8ozNnzpSotuIYOnSo3njjDQIDAECxNG7cWDNmzFBISIgk3TJbsTQ4ODgYAXpSUpKx6O7Zs2cVExMjSYqOjjbOTeLj45Wdna2WLVuqdu3aslqtun79ugYOHKh3331XU6ZMUcuWLRUbG6vFixcX6xzAYrHos88+k9lsVkBAgCZNmlSkxaCLe6zfsWOH/vGPf+jhhx9W27ZtJUmxsbFav369bDZbqZx/lFRmZqak3PYOnp6ecnZ2VteuXTV27FitXLlSS5Ys0dNPP82FGADALdq3b6/p06dr7Nix8vX11YkTJzRz5kzNmTNH8fHx5VJDv379tGXLFn3//fflGlZUVRkZGcbMxMGDB6tt27YKDAykRThQBphpUAF5enpqzpw5atWqlc6cOaOxY8fKbDbL19dX8+bNU6NGjTRw4EC98sorslgs+vXXX9WrV68C26hZs6bmz5+vpk2bKicnR4sXL9ayZct06NAhnT592vjCeDv79+/X/v37FRAQoLfeekuNGjVSnz59lJycrIiICO3YseOWbQwePFjjx4+Xk5OTunfvrjfffFOJiYlKTk5WYGCg9uzZo+joaDk7O2vu3Lnq3bu3bDab/v3vf2vq1KnGqLa78fLy0rvvvquIiAi9/fbb8vHx0axZsxQYGChJ+vnnnyXlBgQdO3bUokWL5O3tLZvNpsjISO3fv79ADZI0bNgwjRs3TomJifr22281duzYAvt8/PHHNX78eDk6Omrp0qVatGiRsrOz9Ze//EUjR47U9evXNWvWLEVERCg+Pl4XL14scj++G6WlpWnTpk2SpODgYE2bNk3Vq1fXpUuX9MYbb2jv3r13fL7NZtPWrVtlNpvVtWtX/f3vf5eXl5c6deoks9ms/fv3KyoqSo0aNSp2bUX1//7f/9MDDzxQZtsHANz/hg8frjZt2ujzzz83Zl2WpsDAQAUGBio+Pl4xMTHGRX93d3f5+PjIbDbr7Nmz8vf3N4KEtm3byt3dXS4uLvrwww8LHOfr1KmjcePG6fjx4zp//rxxTnI3W7Zs0caNG+Xl5aXXX39dTZs2vetzinqs79+/v/EcT09Pffjhh2rVqpXS09P12muvaf/+/Tp79qwyMzOVmZl5T+cf9yI/nBkwYICGDBlCOAAAKLbg4GAFBwdr7dq1WrVqlfbs2aM9e/Zo4MCBxkCEsnLt2jXl5OTIZrMZLQEtFouysrKMlsn5F7Tzj7k33n7zbZJ08uRJZWRkKDAwULVr15aUe7E8v331jW2j79aO8OYW00VlsVgUGxsri8WiRo0aydfX11g34k6tsatXr67mzZsXehH/XlsgWiwWXb582ZiZePXqVaWlpcnd3V2urq4FanJ3d1diYqIsFouaNWtmDETJzMxUXFycLl++LE9PTzVp0qTADM/C3s/itg6/k8J+B253+421uLq6Gj/HzMxMnT17VhcuXJCzs3Ox2mTfrh5JBdpz3s7Nbbyl3N/XunXrqmbNmkZLzxvrvfn35eZ27sX5HUL5IjSogJo0aWKMoq9evbrRh7958+bG6DM/Pz81btxYx44dM/5gb/TQQw8ZCwM7OTmpZ8+eWrZsmSwWi8xm8x1Dg5ycHB06dEhS7ij+devWGSP4T506JSm3ddG1a9cKPK9jx47GH3WzZs1Ur149nT9/XomJicrJydGJEyckSS1atFBQUJCk3NF+nTp1UtOmTRUdHV2Cd+vOBg8ebLQ2uH79ug4fPixJatOmjdq3b288zs/PT507d1ZkZKQOHz58y3t642u7cQRgu3bt5ODgIFdXV7Vr104RERHKzMxUVlZWier973//a4wO7N27t7HeRY0aNdSnT5+7fmm/evWqjh07JknKysrSF198IUnKzs5WamqqJBkzP8oKgQEAoDS0b99en3/+eZlsu3bt2mrZsqXi4+N18uRJZWVl6fDhw/Lx8VHHjh1lNpt1+PBhdejQQfHx8apVq5Z+85vfSMo9r7Jardq2bZt+/vlnHT16tESz+KKjo7V69WplZ2frqaeeKvLoxJIc6288t/T09FSrVq20f/9+nTt3TteuXbvn84+S2rt3rwICAnTkyBE9+OCDBAYAgHsyZMgQo2XR+vXrtX79em3durXIYX5JbNq0yWiPvGDBAgUGBurTTz/V8uXLC9x2u8feeNv48eO1cuVKo/Wgl5eXZs2apbS0NM2aNcvoGhEQEKC5c+eqadOmd21HWLt2bc2YMaNILZSl3OtB69ev14IFCwoM3HjkkUc0adIk1apV666tsXv06KFp06YZ105KqwVi/vuab+7cuZo7d66mTp2qhx56qEBNJpNJS5YsMVpBOzg46PPPP9eSJUsKXK9xdXXVK6+8oqefflpOTk6Fvp/FbR1+J0ePHtXo0aOVnZ2txYsXq1u3brLZbAoPD9eyZctUq1YtffTRR2rZsqUuX76sv/71r/rll1+M9TI+/fRTffLJJwUG3bq6umry5Ml6/PHHizVL12KxaPbs2YqMjCxyq+0b23jPmDFD33zzjaKiojR16lS1b99eY8aMUWJiotG2Xbp7O/ei/A7BPggNKqCaNWvetR+bo6OjkfIWxt3d/bap3N1G9F+/fl1paWmScqeuF9aupzA3ftG7ub4bt+nv71/gg9TV1bVM+s/Vq1dPvr6+xv9zcnKMxZN9fX3l6upaoIb8D6OcnJxb1lgoypfYO/08iiojI8P4wn/zAn9FGR2QlZWlCxcuSJJ++eUX/fLLL/dcEwAA9xt3d3d17NhRGzduVEJCgs6ePatjx44pKChIwcHBWrNmjWJiYnT69GmdPXtWzZs3V4MGDSTltox84403lJKSotq1ayswMFBdunQxRuoX1U8//SSz2SyTyaQOHToUeTRVSY71N55bOjg43LKvez3/KKnu3btr0aJFZbZ9AEDVU6NGDYWGhhrhwZ49e4rUotnekpOTNWPGDPXq1Uu9e/c26p4wYYIcHR316KOP6vTp0zpw4IDMZnOhHRJ27NihnTt36sEHH1RmZqZ2796tlJQUvffee0bXirvZsGGDZsyYIUdHR4WGhqpFixZauXKltmzZoho1aujVV18t8Pg1a9aodu3aeuKJJ7R3714lJCRoz549+vHHHzV48OACLRCl3AGmHTt21P79+4t9vcLLy0vNmjXTqVOnlJ2drYYNG8rb2/uW8GHv3r26dOmS8f+cnBx98cUX+vjjjyVJrVu3VqdOnbRv3z7FxMRo3rx58vDw0ODBg295P48cOaK+ffvq4MGDiomJMVqH165dW0OHDtXOnTt1/vx5I2S4uQvIzfz8/IxBs7GxserWrZsyMjKMASGpqan69ddf1bJlSyUnJyspKUm+vr7GbNSrV6+qY8eOCg4OVv369bV582Zt2rTJCBqaN29epPfSZrMZM16dnZ01fvx4de3atUjPzbdq1apSueZ0t98h2A+hQRlydHQs9Aug1Wo1pv+UlczMTGM6lSSj55ukAhfSC+Pk5KRq1apJyp3mN3HixFsW5HNycpKbm1uR63F0dDRmK5w+fVoWi8XY5sWLF8uk9cDNwYWLi4u8vb0LreHq1as6d+6cpNyZBDcGCuXJyclJzs7Oys7O1unTp41RhzabTQkJCUV6fv4Bc9iwYXrppZduSZrt9doAAKhI2rdvr1q1aikmJkb79u1TbGysnnrqKTVu3FhNmzaV2WzW8ePHdebMGT366KOqXr26srKy9O233yolJUVPP/20xo0bJ1dXV0VFRRU7NBg2bJg8PT21adMmzZ07V/PmzTNmid5JWRzr7/X8AwCAiiYwMFCvvfaaoqKitGvXLuP7fkWVnZ2tP//5z3rqqacKtD/OX0/xkUceKdBi8OTJk7JYLAUGYDo6OmrOnDnq2bOnbDabIiIiNH36dMXGxurXX3+9a2iQnp6uyMhIZWdna/To0XrhhRfk4OCgOnXq6JVXXtHu3bt19uzZAoMqAwIC9MEHH6hevXoF2mvHx8fLZrPdcwvmG40cOVIPPvigMZr9xRdfNC4q5w9SlaRz587prbfeUt++fWW1WnX69GlFRERIym2Bmd9W22KxaMaMGdq0aZPWrFmjBx54wOj0IZVO6/Cb1axZU0FBQYqOjtavv/5qDAY5ffq0goKCdOzYMZ04cUI5OTlKTEzU+fPnFRwcbKxrOnLkyAIthNq0aaNTp04pOjpax44dK3JoEBcXp+XLlys7O1ujRo0q9iwFKTeMWbt2rfz9/ZWTk1Pic8a7/Q6VxRpnKBoWQi5Drq6uxgX6+Ph4YwTXkSNHjL77ZWXHjh1GD97U1FR9++23knIPnPnT02/HxcVFLVu2lJS7PsDp06fl7e1t/MvvQVacP1xXV1e1atVKknTixAnt2rVLNptNWVlZ2rhxoxITE0vyMovFycnJaEl04sQJ/fDDD8aMgsOHD2vPnj2ScqfJleWoujtp0KCBkSBv2LDBGEkYExOj//znP3d9vslkMg4Se/fuVWpq6i0/u+KEPQAA3K8aNGig5s2b68yZM9q+fbu8vLzUqlUr48tcfHy8tm7dKim3TaGDg4MsFovRqrFBgwZycXFRTk6Ofvrpp2Lv32Qy6cUXX5Svr6/MZrPRRrIozyvtY/29nn8AAFBRde7c2Wi7V5GZTCa1bdvWaH+cf2Hex8fHOEbntxiUpCtXrignJ6fANrp166YOHTpIyp1Z2KFDB+Oa1MmTJ+9aQ2JiotFpIiEhQf/85z/18ccfa8OGDcb9+de18gUFBRktofPbP0q5MyeK0gKxLHTr1k09e/Y0Bq/GxcUpMTFRzs7OeuSRR4zBtSaTyWivfOLECZ09e7bAdorTOlxSoa3Db+bi4qJ27dpJyr1wn5GRodjYWCUmJqpHjx6qVauWjh8/ritXrhgtvrt06WJcozKZTDpy5IjCw8M1duxY/eUvfyl2q+/09HR99tlnMpvN6ty5s4YOHVqi9QMGDBiggIAAOTg4GIOES+Juv0OwH2YalKEbp75HR0cbfbryF2opyylyFy9eVGhoqPz8/JSYmGjsa+jQocb0+jvp27evNm/erKioKI0ZM0aNGzeWm5ubrl27JpPJpA8++MAYtV9UPXv2VEBAgMxms6ZNm6YVK1bo+vXrSklJMUa3lbU+ffpo0KBBioyM1PTp07V06VJVq1bNmN7WuXNnDRw4sMzruJ3atWurb9++io6OVlRUlEJCQuTr66uEhIRbWiYVxsnJSb///e+1c+dOmc1mPfvsswoMDJSzs7OuXLmiVq1aacqUKSwoAwCo8qpXr66goCDt3btX+/btU/fu3Y0gIP/L+b59+4xFk6XcBd+aN2+uI0eO6KOPPtL3339vfCEuiSZNmig0NFTTp09XZGSkfH19NWrUqDsep4t6rC+Oez3/AAAA96ZGjRp37fFfWIvBG7m7u9+2bXJRrrfc2K7wu+++u+vjpdy6b2yBePP+7dEC0c/Pz+ieIf3fxXwfHx/VqFGjwGPr168vKff9uTmEKY3W4YUJCgqSj4+PkpKSlJiYqAMHDigwMFDBwcGKiopSQkKC4uPjjTaW+SFDamqq/v73v2v37t1ydXVVYGCg2rZtqytXrig5ObnI+4+OjjZ+Ju3bty/xmlL558v36m6/Q7AffhJlrH///ho0aJCk3DQvKytL06ZNMxbTKytPPvmk/vSnPyk2Nlbp6elydXXV+PHjNWTIkCLNEKhTp46mTZumfv36ScodaXb06FGdOnVKAQEBJWpx07hxY02dOlV+fn6SchdVrlu3rt5++235+PgUe3slYTKZNGHCBA0fPlyurq46e/asYmJi5OjoqOHDh2vWrFl2XWjFyclJzzzzjJ555hk5OzsrPT1d8fHxevnll/Xkk08WaRtNmzbVzJkz1bVrV2VlZSk6OlpHjx7VuXPnFBAQQGAAAIByv5R07NjR+H9QUJAx+q1du3bGF9mOHTuqbt26knJHh/3xj39Up06djGNss2bN9Le//a3ENfz2t781zhW/+uorRUVF3fV5pX2sL43zDwAAkOt2o66LMqPwXmRmZhYI+69cuWL09i/KegZubm7G+c97772nrVu33vIvv3tDUeW3QJRy20TnK8sWiE5OTgWue9WuXVtS7kyJmy+u59dUq1atcpuR0rBhQ7Vp00apqanav3+/jh07ppYtWyowMFCtW7dWamqqjh07pri4ODVr1syY7fDTTz9p9+7datmypdasWaMvvvhC48ePN1oXFVWXLl0UGhoqSfrXv/5lzCQprpvPN2/Xoj0rK0vXr18v0T5gX8w0KGNeXl5666239Oqrr8pms8nDw0NOTk7q2bOnZs6cWeCxM2fOvOU2b29vrVix4pbt3u72fC4uLho1apSeeeYZZWVlycPDo9iLDfv6+mrOnDnKzMw01mC4eTudO3cu9MttYGCgIiMjb7m9Y8eOWrt2rTIyMiTljvJzdHQ0woniGDx4cKGLotzu9nz5i/eMHz9eV65ckdVqLfT9ud1rK+l+b+bu7l7ozzw/2Bg9erQyMzPl7u5urL0wYcKEIu2zdevW+vjjj2WxWJSVlSVHR0fjdw8AAOTq3bt3ocf6tm3baufOnYU+JyAgQJ988okyMjLk4OBg9JXt379/gccVdowu7NzCZDJp2rRpmjZtWrFqv9ux3sXFpdDzDEkaM2aMxowZc0sdRT3/AAAAt5ff3SE5OVlms1mNGzdWSkqKtm3bVqb73bdvnw4cOKBevXopKytLERERslgsBVob3km9evXUuHFjHTt2TNu3b1f37t2NEMFqtd6yhkJR5LdAjI6O1oYNG9SnTx/VqVOnXFsgNm7c2Oh68d1336lNmzby8PDQhQsXjAvmrVq1umsr79JiMpnUpk0bbd++XVu2bFFqaqp++9vfymQyqVOnTvryyy/1/fffKzU1VX379pWXl5ek3HZGklS3bl2jVdLx48eN24sqf9DKvn37tGnTJi1dulStW7e+55kDNWrUkLe3t86cOaNTp04pPT1dnp6e2rNnj9H2CpULoUEpSUpK0vnz5yXplpHqDg4OBRZTKU8mk+mep3zd+KWxNDg6Ohofevbk5ORUIeq4ndJ430vj5w8AAAqqKOcyUukf60v7vA8AgKomv/1McnKyJk2apICAAF24cKHEbWCKymq16rXXXlOjRo108eJFpaSkSModyNC6deu7Pr9OnToKCQnRzJkzFRkZqZ9++slo35OUlKSwsLBiDZSUKkYLxIYNG+q5557TzJkztX79eu3atUsNGzbU2bNnlZ6eLi8vL/3xj39U9erVjQGzZa1Dhw5ydnbW8ePHC7Qg8vPzM9Y1kKROnToZA0Lyf4Y7d+7Uc889Jzc3NyUmJiorK6vY+89fW+vQoUMym82aPXu23nnnnXvqvOHp6amOHTvqyJEj2r59uw4fPixPT0+jzXlZtmhH2aA90T2KjIzUiBEjNHbsWCUnJ8vHx0ddunSxd1kAAACVXv508nPnztm5EpSVxMRESSrzCykAAJSXJk2a6OWXX5arq6uys7OVkJCgF198USNGjCjT/T700EP661//qtOnTxtrRw4fPlx/+ctfitR1wMHBQY8//rimTJmievXqKSUlRUePHtXRo0fl7OxstGssjorQAvHm15Wenq7jx48rPT1dXbt21UcffaSuXbuWSy35/Pz8jJH9N7YgatCggTErCcsKQAAACrNJREFUJL9dUb5evXoZ7+OpU6dksVg0ZcoUY3Hs4mrSpIleeuklOTs7KyoqSqtXr75lXYficHJy0vDhw433MiUlRTVr1tT06dNvWc8ClYODJFtZ7iC/d//atWvLcjdFMmTIEEkqUq/YooqIiNDbb78tKfeL7auvvqpHH320SOsGlLa0tDSNGzdOR44c0XPPPXfLtPN8FotF69atu23K17JlS/Xt27csS72j5ORkRUZG3naV9B49ehToQVxRbdu27bar2Ht5eemJJ564r2YBdO7cWVLF+FsHANwfPvvsM61bt04DBw7U9OnT7V1OuTh48KD27NlT6H1ubm4aNGhQua0FVdb27NmjsLAwubq66ssvv7R3OQCA+9Snn36q77//XhMnTtTTTz9dqtvOvybk6+urBQsWKDAw0Lgvv9VzWc7iy8zM1PTp07Vx40YNGDBAU6ZMMW6/l/1arVZlZGTIarXKycnJaMd4r7WW9ftxNzabTRkZGcrJyZGrq2ulvCZjsViUnZ1dYVtQ5//uSP/XkryimDt3rr788ku9+OKLevzxx+1dTonlX9/++eefy3Q/Vao9kaurq7KyspSRkVFqC5wMHDjQuFhar169Yvd3K01eXl5asGCBrFbrHRcqdnZ2VlBQ0G0vyttzIWApd5pU+/btlZ2dXej9leWLsr+//20PQG5ubrddHKkyyj8glGSBbAAAbqd///769ttvtX79el27dk1dunQxpsnfr/JHBhbGZrPpwIEDlb590JUrV5SQkKDly5dLkv7whz/YuSIAAIovJydHJ0+elJR7PcbDw6PA/fa6OF4a+y2LVowVoQWiPduHl5aKHnRUpDaeuDf3z1XLIvD19ZXZbFZCQkKR+rkVhYuLS5FWoS8PRf3DdHV1rdAj9T08PIwgpjJr2rTpPS8kU1kkJCRIyv0bAwCgtNSrV0+hoaFasWKFtm7dqq1bt9q7JJSyXr166amnnrJ3GQAAFFlaWpqmTp2q8+fP69SpU5Kkrl27Gm0VAeB+UKVCgzZt2shsNmvx4sWaNGlSua2MDtzPzp49q8WLF0vK/RsDAKA0DRgwQN26ddMPP/ygxMREpaWl2bsk3CNXV1fVr19fzZs3V7du3exdDgAAxXbp0iXFxMRIkh555BGNHDmyQraKuVFFb6Fc0esrisrcbrsy146yUaVCgxEjRujHH3/Ujz/+qN///veqX7++vL297V0WUGmlpaUpKSlJklSjRo0yX9gJAFA11apVS0888YS9ywAAAFCNGjW0YMECnT9/XvXq1ZOnp6dd1rWUclsfv/7665o4caKcnJzk5uZ228dW9BbKFb2+oqjM7bYrc+0oGxX/L64UmUwmzZ49WytXrtTOnTuVlJRkXPAEUDKOjo7q06ePhg8fXuFTfwAAAABA1ZK/9t6VK1dKZXsODg7y8vKqEH3bi9Ojv6K3UK7o9RVFZW63XZlrL6r8zwDW4yyaKhUaSFLdunU1btw4jRs3TklJSbJYLPYuCai0TCbTfb8gJQAAAACg8sr/zpq/Fh+Aqon1OIunyoUGN+JiJwAAAAAAwP2rWbNmkqTvvvtOPXr00IABA+xcEYDy9tVXX+ngwYPy8PBQYGCgvcupFKp0aAAAAAAAAID7V2BgoAYPHqyIiAhNnjxZ7777rho1amTvsgCUg5ycHCUkJCgzM1OSNHz4cHl4eNi5qsqB0AAAAAAAAAD3rZEjR6pu3bpatWqV0tLS9Ouvv9q7JADlqH79+hoxYoR69+5t71IqDUIDAAAAAAAA3Ncee+wxPfbYY7p8+bKSk5PtXQ6AclK/fn2ZTCZ7l1HpEBoAAAAAAACgSvD09JSnp6e9ywCACs3R3gUAAAAAAAAAAICKgdAAAAAAAAAAAABIIjQAAAAAAAAAAAB5CA0AAAAAAAAAAIAkQgMAAAAAAAAAAJCH0AAAAAAAAAAAAEgiNAAAAAAAAAAAAHkIDQAAAAAAAAAAgCRCAwAAAAAAAAAAkIfQAAAAAAAAAAAASCI0AAAAAAAAAAAAeQgNAAAAAAAAAACAJEIDAAAAAAAAAACQh9AAAAAAAAAAAABIIjQAAAAAAAAAAAB5CA0AAAAAAAAAAIAkQgMAAAAAAAAAAJCH0AAAAAAAAAAAAEgiNAAAAAAAAAAAAHkIDQAAAAAAAAAAgCRCAwAAAAAAAAAAkIfQAAAAAAAAAAAASCI0AAAAAAAAAAAAeQgNAAAAAAAAAACAJEIDAAAAAAAAAACQh9AAAAAAAAAAAABIIjQAAAAAAAAAAAB5CA0AAAAAAAAAAIAkQgMAAAAAAAAAAJCH0AAAAAAAAAAAAEgiNAAAAAAAAAAAAHkIDQAAAAAAAAAAgCRCAwAAAAAAAAAAkIfQAAAAAAAAAAAASCI0AAAAAAAAAAAAeQgNAAAAAAAAAACAJEIDAAAAAAAAAACQh9AAAAAAAAAAAABIIjQAAAAAAAAAAAB5CA0AAAAAAAAAAIAkQgMAAAAAAAAAAJCH0AAAAAAAAAAAAEgiNAAAAAAAAAAAAHkIDQAAAAAAAAAAgCRCAwAAAAAAAAAAkIfQAAAAAAAAAAAASCI0AAAAAAAAAAAAeQgNAAAAAAAAAACAJEIDAAAAAAAAAACQh9AAAAAAAAAAAABIIjQAAAAAAAAAAAB5CA0AAAAAAAAAAIAkQgMAAAAAAAAAAJCH0AAAAAAAAAAAAEgiNAAAAAAAAAAAAHkIDQAAAAAAAAAAgCRCAwAAAAAAAAAAkIfQAAAAAAAAAAAASCI0AAAAAAAAAAAAeQgNAAAAAAAAAACAJEIDAAAAAAAAAACQh9AAAAAAAAAAAABIIjQAAAAAAAAAAAB5CA0AAAAAAAAAAIAkQgMAAAAAAAAAAJCH0AAAAAAAAAAAAEgiNAAAAAAAAAAAAHkIDQAAAAAAAAAAgCRCAwAAAAAAAAAAkIfQAAAAAAAAAAAASCI0AAAAAAAAAAAAeQgNAAAAAAAAAACAJEIDAAAAAAAAAACQh9AAAAAAAAAAAABIIjQAAAAAAAAAAAB5CA0AAAAAAAAAAIAkQgMAAAAAAAAAAJCH0AAAAAAAAAAAAEgiNAAAAAAAAAAAAHkIDQAAAAAAAAAAgCRCAwAAAAAAAAAAkIfQAAAAAAAAAAAASCI0AAAAAAAAAAAAeQgNAAAAAAAAAACAJEIDAAAAAAAAAACQh9AAAAAAAAAAAABIIjQAAAAAAAAAAAB5nMtrR6NHjy6vXQEAAAAAAAAAgBIot9AgKSmpvHYFAAAAAAAAAABKgPZEAAAAAAAAAABAkuQgyWbvIgAAAAAAAAAAgP0x0wAAAAAAAAAAAEgiNAAAAAAAAAAAAHkIDQAAAAAAAAAAgCRCAwAAAAAAAAAAkIfQAAAAAAAAAAAASCI0AAAAAAAAAAAAeQgNAAAAAAAAAACAJEIDAAAAAAAAAACQh9AAAAAAAAAAAABIIjQAAAAAAAAAAAB5CA0AAAAAAAAAAIAkQgMAAAAAAAAAAJCH0AAAAAAAAAAAAEgiNAAAAAAAAAAAAHkIDQAAAAAAAAAAgCRCAwAAAAAAAAAAkIfQAAAAAAAAAAAASCI0AAAAAAAAAAAAeQgNAAAAAAAAAACAJEIDAAAAAAAAAACQh9AAAAAAAAAAAABIIjQAAAAAAAAAAAB5/j/jEf7MtOK+gQAAAABJRU5ErkJggg==;" vertex="1" parent="1">
          <mxGeometry x="-488.25" y="970" width="1549" height="487" as="geometry" />
        </mxCell>
        <mxCell id="K_LMG_pKWYeQ4_rN-_Q0-2" value="其中边说明中的[x]代表优先级，数字越小优先级越高" style="text;whiteSpace=wrap;html=1;fontSize=16;" vertex="1" parent="1">
          <mxGeometry x="-470" y="930" width="420" height="30" as="geometry" />
        </mxCell>
      </root>
    </mxGraphModel>
  </diagram>
</mxfile>
